SplineFontDB: 3.0
FontName: Stroke
FullName: Stroke
FamilyName: Stroke
Weight: Thin
Copyright: Created by Mathieu,,, with FontForge 2.0 (http://fontforge.sf.net)
UComments: "2012-2-10: Created." 
Version: 001.000
ItalicAngle: 0
UnderlinePosition: -204
UnderlineWidth: 102
Ascent: 1638
Descent: 410
LayerCount: 2
Layer: 0 0 "Arri+AOgA-re"  1
Layer: 1 0 "Avant"  0
NeedsXUIDChange: 1
XUID: [1021 705 1737556998 2408963]
FSType: 0
OS2Version: 0
OS2_WeightWidthSlopeOnly: 0
OS2_UseTypoMetrics: 1
CreationTime: 1328828815
ModificationTime: 1330817109
OS2TypoAscent: 0
OS2TypoAOffset: 1
OS2TypoDescent: 0
OS2TypoDOffset: 1
OS2TypoLinegap: 184
OS2WinAscent: 0
OS2WinAOffset: 1
OS2WinDescent: 0
OS2WinDOffset: 1
HheadAscent: 0
HheadAOffset: 1
HheadDescent: 0
HheadDOffset: 1
Lookup: 258 0 0 "ff"  {"ff-1" [307,30,0] } []
MarkAttachClasses: 1
DEI: 91125

StartChar: A
Encoding: 256 65 0
Width: 923
VWidth: 0
Flags: W
HStem: 0 21G<79.3794 87.8848 836.325 844.83> 370.98 35.6396<242.189 682.02> 1073.5 20G<458.055 465.75>
VStem: 66.4199 34.8301<0.0164628 12.1504> 822.96 34.8301<0.0164628 12.1504>
LayerCount: 2
Fore
SplineSet
462.511 1093.5 m 4
 468.989 1093.5 476.28 1088.64 478.71 1082.16 c 6
 724.14 396.09 l 6
 724.95 395.28 724.95 393.66 724.95 392.85 c 6
 856.98 23.4893 l 6
 857.79 21.8701 857.79 19.4395 857.79 17.8203 c 4
 857.79 8.09961 849.689 0 839.97 0 c 4
 832.68 0 825.39 5.66992 822.96 12.1504 c 6
 694.98 370.98 l 5
 229.23 370.98 l 5
 101.25 12.1504 l 6
 98.8203 5.66992 91.5303 0 84.2393 0 c 4
 74.5195 0 66.4199 8.09961 66.4199 17.8203 c 4
 66.4199 19.4395 66.4199 21.8701 67.2305 23.4893 c 6
 197.64 389.61 l 6
 197.64 392.85 200.07 396.9 201.689 399.33 c 6
 445.5 1082.16 l 6
 447.93 1088.64 454.41 1093.5 461.7 1093.5 c 4
 462.511 1093.5 l 4
462.511 1023.03 m 5
 242.189 406.62 l 5
 682.02 406.62 l 5
 462.511 1023.03 l 5
EndSplineSet
Validated: 1
EndChar

StartChar: B
Encoding: 257 66 1
Width: 899
VWidth: 0
Flags: W
HStem: 0 35.6396<351.696 555.129> 680.4 35.6396<349.592 559.621> 1050.57 35.6396<313.063 503.154>
VStem: 96.3896 35.6406<0.00590762 202.5 254.563 1076.49> 686.07 35.6396<677.595 867.654> 776.79 35.6396<257.301 461.705>
LayerCount: 2
Fore
SplineSet
113.4 1094.31 m 4
 114.21 1094.31 l 4
 123.93 1094.31 132.03 1086.21 132.03 1076.49 c 4
 132.03 918.54 l 5
 184.68 1018.17 289.17 1086.21 409.05 1086.21 c 4
 581.58 1086.21 721.71 946.08 721.71 773.55 c 4
 721.71 721.71 708.75 673.11 686.07 630.18 c 5
 763.02 564.57 812.43 466.561 812.43 358.02 c 4
 812.43 160.38 652.05 0 454.41 0 c 4
 312.66 0 190.35 82.6201 132.03 202.5 c 5
 132.03 17.8203 l 6
 132.03 8.09961 123.93 0 114.21 0 c 4
 104.489 0 96.3896 8.09961 96.3896 17.8203 c 4
 96.3896 358.02 l 6
 96.3896 358.83 l 4
 96.3896 773.55 l 5
 96.3896 1076.49 l 6
 96.3896 1086.21 103.68 1094.31 113.4 1094.31 c 4
409.05 1050.57 m 4
 255.96 1050.57 132.03 926.64 132.03 773.55 c 6
 132.03 358.02 l 6
 132.03 179.82 276.21 35.6396 454.41 35.6396 c 4
 632.61 35.6396 776.79 179.82 776.79 358.02 c 4
 776.79 460.08 729 550.8 655.29 609.93 c 4
 653.67 610.739 651.239 612.36 650.43 613.98 c 4
 596.16 656.1 528.12 680.4 454.41 680.4 c 4
 377.46 680.4 306.989 653.67 251.91 609.12 c 4
 249.48 606.689 243.811 604.261 239.761 604.261 c 4
 230.04 604.261 221.939 612.36 221.939 622.08 c 4
 221.939 626.939 225.18 633.42 229.23 636.66 c 4
 290.79 686.07 369.36 716.04 454.41 716.04 c 4
 529.739 716.04 600.21 692.55 657.72 652.05 c 5
 675.54 688.5 686.07 729.811 686.07 773.55 c 4
 686.07 926.64 562.14 1050.57 409.05 1050.57 c 4
EndSplineSet
Validated: 1
EndChar

StartChar: C
Encoding: 258 67 2
Width: 813
VWidth: 0
Flags: W
HStem: 0 35.6396<343.161 549.246> 1058.67 34.8301<343.161 546.592>
VStem: 85.8604 35.6396<260.039 834.207>
LayerCount: 2
Fore
SplineSet
443.88 1093.5 m 4
 567.811 1093.5 677.97 1030.32 741.96 934.739 c 4
 743.58 932.311 745.2 928.261 745.2 925.02 c 4
 745.2 915.3 737.1 907.2 727.38 907.2 c 4
 722.52 907.2 715.23 911.25 711.989 915.3 c 4
 654.48 1001.97 555.66 1058.67 443.88 1058.67 c 4
 265.68 1058.67 121.5 914.489 121.5 736.29 c 6
 121.5 358.02 l 6
 121.5 179.82 265.68 35.6396 443.88 35.6396 c 4
 555.66 35.6396 654.48 92.3398 711.989 179.011 c 4
 715.23 183.061 722.52 187.11 727.38 187.11 c 4
 737.1 187.11 745.2 179.011 745.2 169.29 c 4
 745.2 166.05 743.58 161.189 741.96 158.761 c 4
 677.97 63.1797 567.811 0 443.88 0 c 4
 246.239 0 85.8604 160.38 85.8604 358.02 c 6
 85.8604 736.29 l 6
 85.8604 933.93 246.239 1093.5 443.88 1093.5 c 4
EndSplineSet
Validated: 1
EndChar

StartChar: D
Encoding: 259 68 3
Width: 843
VWidth: 0
Flags: W
HStem: 0 35.6396<290.154 494.379> 1058.67 34.8301<292.285 494.379>
VStem: 93.1504 35.6396<0.00590762 117.45 152.058 929.07 929.88 941.588> 716.04 35.6396<260.039 834.207>
LayerCount: 2
Fore
SplineSet
393.66 1093.5 m 4
 591.3 1093.5 751.68 933.93 751.68 736.29 c 6
 751.68 358.02 l 6
 751.68 160.38 591.3 0 393.66 0 c 4
 288.36 0 194.4 45.3604 128.79 117.45 c 5
 128.79 17.8203 l 6
 128.79 8.09961 120.689 0 110.97 0 c 4
 101.25 0 93.1504 8.09961 93.1504 17.8203 c 4
 93.1504 167.67 l 6
 93.1504 168.48 93.1504 168.48 93.1504 169.29 c 4
 93.1504 170.1 93.1504 170.1 93.1504 170.91 c 6
 93.1504 922.59 l 6
 93.1504 923.4 93.1504 923.4 93.1504 924.21 c 4
 93.1504 925.02 93.1504 927.45 93.1504 928.261 c 4
 93.1504 929.07 l 4
 93.96 929.88 l 4
 93.96 930.689 93.96 930.689 93.96 931.5 c 4
 94.7695 933.12 96.3896 935.55 98.0107 937.17 c 4
 162.811 1031.94 270.54 1093.5 393.66 1093.5 c 4
393.66 1058.67 m 4
 283.5 1058.67 187.11 1003.59 128.79 919.35 c 5
 128.79 174.96 l 5
 187.11 90.7197 283.5 35.6396 393.66 35.6396 c 4
 571.86 35.6396 716.04 179.82 716.04 358.02 c 6
 716.04 736.29 l 6
 716.04 914.489 571.86 1058.67 393.66 1058.67 c 4
EndSplineSet
Validated: 1
EndChar

StartChar: E
Encoding: 260 69 4
Width: 809
VWidth: 0
Flags: W
HStem: 0 35.6396<132.03 737.094> 378.27 34.8301<132.03 661.764> 1058.67 34.8301<132.03 737.094>
VStem: 96.3896 35.6406<35.6396 378.27 413.1 1058.67>
LayerCount: 2
Fore
SplineSet
114.21 1093.5 m 5
 719.28 1093.5 l 6
 729 1093.5 737.1 1086.21 737.1 1076.49 c 4
 737.1 1066.77 729 1058.67 719.28 1058.67 c 4
 132.03 1058.67 l 5
 132.03 413.1 l 5
 643.14 413.91 l 6
 643.95 413.91 l 4
 653.67 413.91 661.77 405.811 661.77 396.09 c 4
 661.77 386.37 653.67 378.27 643.95 378.27 c 4
 643.14 378.27 l 6
 132.03 378.27 l 5
 132.03 35.6396 l 5
 719.28 35.6396 l 6
 729 35.6396 737.1 27.54 737.1 17.8203 c 4
 737.1 8.09961 729 0 719.28 0 c 4
 114.21 0 l 6
 104.489 0 96.3896 8.09961 96.3896 17.8203 c 6
 96.3896 392.85 l 6
 96.3896 393.66 96.3896 395.28 96.3896 396.09 c 4
 96.3896 396.9 96.3896 397.71 96.3896 398.52 c 6
 96.3896 1076.49 l 6
 96.3896 1086.21 104.489 1093.5 114.21 1093.5 c 5
EndSplineSet
Validated: 1
EndChar

StartChar: F
Encoding: 261 70 5
Width: 801
VWidth: 0
Flags: W
HStem: 0 21G<109.35 119.07> 370.98 35.6396<132.03 661.764> 1058.67 35.6406<132.03 737.094>
VStem: 96.3896 35.6406<0.00590762 370.98 406.62 1058.67>
LayerCount: 2
Fore
SplineSet
114.21 1094.31 m 5
 719.28 1094.31 l 6
 729 1094.31 737.1 1086.21 737.1 1076.49 c 4
 737.1 1066.77 729 1058.67 719.28 1058.67 c 4
 132.03 1058.67 l 5
 132.03 406.62 l 5
 643.14 406.62 l 6
 643.95 406.62 l 4
 653.67 406.62 661.77 398.52 661.77 388.8 c 4
 661.77 379.08 653.67 370.98 643.95 370.98 c 4
 643.14 370.98 l 6
 132.03 370.98 l 5
 132.03 17.8203 l 6
 132.03 8.09961 123.93 0 114.21 0 c 4
 104.489 0 96.3896 8.09961 96.3896 17.8203 c 4
 96.3896 385.561 l 6
 96.3896 386.37 96.3896 387.989 96.3896 388.8 c 4
 96.3896 389.61 96.3896 390.42 96.3896 391.23 c 6
 96.3896 1076.49 l 6
 96.3896 1086.21 104.489 1094.31 114.21 1094.31 c 5
EndSplineSet
Validated: 1
EndChar

StartChar: G
Encoding: 262 71 6
Width: 842
VWidth: 0
Flags: W
HStem: 0 35.6396<343.161 547.599> 1058.67 34.8301<343.161 546.592>
VStem: 85.8604 35.6396<260.039 834.207> 709.561 35.6396<-236.514 117.45 152.058 605.07>
LayerCount: 2
Fore
SplineSet
443.88 1093.5 m 4
 567.811 1093.5 677.97 1030.32 741.96 934.739 c 4
 743.58 932.311 745.2 928.261 745.2 925.02 c 4
 745.2 915.3 737.1 907.2 727.38 907.2 c 4
 722.52 907.2 715.23 911.25 711.989 915.3 c 4
 654.48 1001.97 555.66 1058.67 443.88 1058.67 c 4
 265.68 1058.67 121.5 914.489 121.5 736.29 c 6
 121.5 358.02 l 6
 121.5 179.82 265.68 35.6396 443.88 35.6396 c 4
 554.04 35.6396 651.239 90.7197 709.561 174.96 c 5
 709.561 605.07 l 5
 639.09 675.54 l 6
 635.85 678.78 633.42 684.45 633.42 688.5 c 4
 633.42 698.22 641.52 706.32 651.239 706.32 c 4
 655.29 706.32 660.96 703.89 664.2 700.65 c 6
 739.53 625.32 l 6
 742.77 622.08 745.2 617.22 745.2 613.17 c 4
 745.2 170.91 l 6
 745.2 170.1 745.2 170.1 745.2 169.29 c 4
 745.2 168.48 745.2 167.67 745.2 166.86 c 6
 745.2 -218.7 l 6
 745.2 -228.42 737.1 -236.52 727.38 -236.52 c 4
 717.66 -236.52 709.561 -228.42 709.561 -218.7 c 4
 709.561 117.45 l 5
 643.95 45.3604 549.18 0 443.88 0 c 4
 246.239 0 85.8604 160.38 85.8604 358.02 c 6
 85.8604 736.29 l 6
 85.8604 933.93 246.239 1093.5 443.88 1093.5 c 4
EndSplineSet
Validated: 1
EndChar

StartChar: H
Encoding: 263 72 7
Width: 835
VWidth: 0
Flags: W
HStem: 0 21G<109.35 119.07 714.42 724.14> 378.27 35.6406<132.03 701.46> 1074.31 20G<109.35 119.07 714.42 724.14>
VStem: 96.3896 35.6406<0.00590762 378.27 413.91 1094.3> 701.46 35.6396<0.00590762 378.27 413.91 1094.3>
LayerCount: 2
Fore
SplineSet
114.21 1094.31 m 4
 123.93 1094.31 132.03 1086.21 132.03 1076.49 c 4
 132.03 413.91 l 5
 701.46 413.91 l 5
 701.46 1076.49 l 6
 701.46 1086.21 709.561 1094.31 719.28 1094.31 c 4
 729 1094.31 737.1 1086.21 737.1 1076.49 c 4
 737.1 399.33 l 6
 737.1 398.52 737.1 396.9 737.1 396.09 c 4
 737.1 395.28 737.1 393.66 737.1 392.85 c 6
 737.1 17.8203 l 6
 737.1 8.09961 729 0 719.28 0 c 4
 709.561 0 701.46 8.09961 701.46 17.8203 c 4
 701.46 378.27 l 5
 132.03 378.27 l 5
 132.03 17.8203 l 6
 132.03 8.09961 123.93 0 114.21 0 c 4
 104.489 0 96.3896 8.09961 96.3896 17.8203 c 4
 96.3896 392.85 l 6
 96.3896 393.66 96.3896 395.28 96.3896 396.09 c 4
 96.3896 396.9 96.3896 398.52 96.3896 399.33 c 6
 96.3896 1076.49 l 6
 96.3896 1086.21 104.489 1094.31 114.21 1094.31 c 4
EndSplineSet
Validated: 1
EndChar

StartChar: I
Encoding: 264 73 8
Width: 229
VWidth: 0
Flags: W
HStem: 0 21G<109.35 119.07> 1074.31 20G<108.54 119.07>
VStem: 96.3896 35.6406<0.00590762 1076.49>
LayerCount: 2
Fore
SplineSet
113.4 1094.31 m 5
 114.21 1094.31 l 4
 123.93 1094.31 132.03 1086.21 132.03 1076.49 c 4
 132.03 17.8203 l 6
 132.03 8.09961 123.93 0 114.21 0 c 4
 104.489 0 96.3896 8.09961 96.3896 17.8203 c 4
 96.3896 1076.49 l 6
 96.3896 1086.21 103.68 1094.31 113.4 1094.31 c 5
EndSplineSet
Validated: 1
EndChar

StartChar: J
Encoding: 265 74 9
Width: 810
VWidth: 0
Flags: W
HStem: -218.7 35.6396<250.31 456.309> 1074.31 20G<690.93 700.65>
VStem: 677.97 35.6406<41.3391 1094.3>
LayerCount: 2
Fore
SplineSet
695.79 1094.31 m 4
 705.511 1094.31 713.61 1086.21 713.61 1076.49 c 4
 713.61 139.32 l 6
 713.61 -58.3203 553.23 -218.7 355.59 -218.7 c 4
 231.66 -218.7 122.311 -155.52 58.3203 -59.9395 c 4
 56.7002 -57.5107 55.0801 -52.6504 55.0801 -49.4102 c 4
 55.0801 -39.6895 63.1797 -31.5898 72.9004 -31.5898 c 4
 78.5703 -31.5898 84.2393 -35.6396 87.4805 -40.5 c 4
 144.989 -127.17 243.811 -183.061 355.59 -183.061 c 4
 533.79 -183.061 677.97 -38.8799 677.97 139.32 c 6
 677.97 1076.49 l 6
 677.97 1086.21 686.07 1094.31 695.79 1094.31 c 4
EndSplineSet
Validated: 1
EndChar

StartChar: K
Encoding: 266 75 10
Width: 801
VWidth: 0
Flags: W
HStem: 0 21G<109.35 119.07 716.04 724.14> 1074.31 20G<109.35 119.07 641.115 648>
VStem: 96.3896 35.6406<0.00590762 614.79 661.77 1094.3> 702.27 34.0205<0.00590762 11.3398>
LayerCount: 2
Fore
SplineSet
114.21 1094.31 m 4
 123.93 1094.31 132.03 1086.21 132.03 1076.49 c 4
 132.03 661.77 l 5
 631.8 1089.45 l 6
 634.23 1091.88 639.09 1094.31 643.14 1094.31 c 4
 652.86 1094.31 660.96 1086.21 660.96 1076.49 c 4
 660.96 1071.63 658.53 1065.96 655.29 1062.72 c 6
 405.811 848.88 l 5
 735.48 24.2998 l 6
 736.29 22.6797 736.29 19.4395 736.29 17.8203 c 4
 736.29 8.09961 729 0 719.28 0 c 4
 712.8 0 704.7 4.86035 702.27 11.3398 c 6
 377.46 824.58 l 5
 132.03 614.79 l 5
 132.03 17.8203 l 6
 132.03 8.09961 123.93 0 114.21 0 c 4
 104.489 0 96.3896 8.09961 96.3896 17.8203 c 4
 96.3896 620.46 l 6
 96.3896 621.27 96.3896 622.08 96.3896 622.89 c 4
 96.3896 623.7 96.3896 624.511 96.3896 625.32 c 6
 96.3896 1076.49 l 6
 96.3896 1086.21 104.489 1094.31 114.21 1094.31 c 4
EndSplineSet
Validated: 1
EndChar

StartChar: L
Encoding: 267 76 11
Width: 805
VWidth: 0
Flags: W
HStem: 0 35.6396<132.03 737.094> 1074.31 20G<108.54 119.07>
VStem: 96.3896 35.6406<35.6396 1094.3>
LayerCount: 2
Fore
SplineSet
113.4 1094.31 m 5
 114.21 1094.31 l 4
 123.93 1094.31 132.03 1086.21 132.03 1076.49 c 4
 132.03 35.6396 l 5
 718.47 35.6396 l 6
 719.28 35.6396 l 4
 729 35.6396 737.1 27.54 737.1 17.8203 c 4
 737.1 8.09961 729 0 719.28 0 c 4
 718.47 0 l 6
 114.21 0 l 6
 104.489 0 96.3896 8.09961 96.3896 17.8203 c 6
 96.3896 1076.49 l 6
 96.3896 1086.21 103.68 1094.31 113.4 1094.31 c 5
EndSplineSet
Validated: 1
EndChar

StartChar: M
Encoding: 268 77 12
Width: 947
VWidth: 0
Flags: W
HStem: 0 21G<109.35 119.07 826.2 835.92> 1074.31 20G<112.185 116.64 828.63 831.87>
VStem: 96.3896 35.6406<0.00590762 1030.32> 813.239 35.6406<0.00590762 1033.56>
LayerCount: 2
Fore
SplineSet
114.21 1094.31 m 6
 119.07 1094.31 125.55 1091.07 128.79 1087.02 c 6
 456.84 727.38 l 5
 816.48 1087.02 l 6
 819.72 1091.07 826.2 1094.31 831.061 1094.31 c 4
 832.68 1094.31 834.3 1093.5 835.92 1093.5 c 4
 836.73 1093.5 836.73 1093.5 837.54 1093.5 c 4
 837.54 1092.69 l 4
 838.35 1092.69 838.35 1092.69 839.16 1092.69 c 4
 839.16 1091.88 l 4
 840.78 1091.07 842.4 1090.26 843.21 1089.45 c 4
 846.45 1086.21 848.88 1080.54 848.88 1076.49 c 4
 848.88 1075.68 848.88 1074.87 848.88 1074.06 c 6
 848.88 17.8203 l 6
 848.88 8.09961 840.78 0 831.061 0 c 4
 821.34 0 813.239 8.09961 813.239 17.8203 c 4
 813.239 1033.56 l 5
 481.14 700.65 l 5
 541.89 635.04 l 6
 545.13 631.8 546.75 626.13 546.75 622.08 c 4
 546.75 612.36 538.65 604.261 528.93 604.261 c 4
 524.07 604.261 518.4 607.5 515.16 610.739 c 6
 445.5 686.88 l 6
 443.88 687.689 442.261 690.12 441.45 691.739 c 6
 132.03 1030.32 l 5
 132.03 17.8203 l 6
 132.03 8.09961 123.93 0 114.21 0 c 4
 104.489 0 96.3896 8.09961 96.3896 17.8203 c 4
 96.3896 1074.06 l 6
 96.3896 1074.87 96.3896 1075.68 96.3896 1076.49 c 4
 96.3896 1081.35 99.6299 1087.02 102.87 1090.26 c 4
 103.68 1091.07 l 4
 105.3 1091.88 l 4
 106.11 1092.69 l 4
 107.73 1093.5 l 4
 108.54 1093.5 108.54 1093.5 109.35 1093.5 c 4
 110.16 1093.5 111.78 1094.31 112.59 1094.31 c 4
 114.21 1094.31 l 6
EndSplineSet
Validated: 1
EndChar

StartChar: N
Encoding: 269 78 13
Width: 837
VWidth: 0
Flags: W
HStem: 0.810547 20.1895G<113.4 115.83 715.23 724.95> 1074.31 20G<121.905 123.93 714.42 724.95>
VStem: 96.3896 35.6406<4.08897 1052.19> 702.27 35.6406<0.00590762 1076.49>
LayerCount: 2
Fore
SplineSet
719.28 1094.31 m 5
 720.09 1094.31 l 4
 729.811 1094.31 737.91 1086.21 737.91 1076.49 c 4
 737.91 17.8203 l 6
 737.91 8.09961 729.811 0 720.09 0 c 4
 710.37 0 702.27 8.09961 702.27 17.8203 c 4
 702.27 763.02 l 5
 132.03 1052.19 l 5
 132.03 17.8203 l 6
 132.03 17.0107 131.22 15.3896 131.22 14.5801 c 4
 131.22 13.7695 131.22 13.7695 131.22 12.96 c 4
 131.22 12.1504 130.41 11.3398 130.41 10.5303 c 4
 130.41 9.71973 129.6 10.5303 129.6 9.71973 c 4
 129.6 8.91016 128.79 8.09961 128.79 8.09961 c 4
 127.98 7.29004 125.55 4.86035 124.739 4.0498 c 4
 122.311 2.42969 117.45 0.810547 114.21 0.810547 c 4
 112.59 0.810547 109.35 0.810547 107.73 1.62012 c 4
 106.92 1.62012 106.92 2.42969 106.11 2.42969 c 4
 105.3 3.23926 103.68 3.23926 102.87 4.0498 c 4
 102.061 4.86035 101.25 5.66992 100.439 6.48047 c 4
 99.6299 7.29004 98.8203 9.71973 98.0107 11.3398 c 4
 98.0107 12.1504 96.3896 13.7695 96.3896 14.5801 c 4
 96.3896 15.3896 96.3896 17.0107 96.3896 17.8203 c 6
 96.3896 1076.49 l 6
 96.3896 1077.3 96.3896 1078.92 96.3896 1079.73 c 4
 96.3896 1080.54 97.2002 1081.35 97.2002 1082.16 c 4
 97.2002 1082.97 98.0107 1082.97 98.0107 1083.78 c 4
 98.0107 1084.59 98.8203 1084.59 98.8203 1085.4 c 4
 99.6299 1086.21 99.6299 1087.02 100.439 1087.83 c 4
 101.25 1088.64 102.87 1089.45 103.68 1090.26 c 4
 103.68 1090.26 103.68 1091.07 104.489 1091.07 c 4
 105.3 1091.07 105.3 1091.88 106.11 1091.88 c 4
 106.92 1091.88 106.92 1092.69 107.73 1092.69 c 4
 109.35 1093.5 112.59 1093.5 114.21 1093.5 c 4
 115.02 1093.5 l 4
 115.83 1093.5 115.83 1093.5 116.64 1093.5 c 4
 118.261 1093.5 l 4
 119.07 1093.5 119.88 1093.5 120.689 1093.5 c 4
 121.5 1093.5 121.5 1094.31 122.311 1094.31 c 4
 123.12 1094.31 l 4
 124.739 1094.31 127.17 1093.5 128.79 1092.69 c 4
 129.6 1092.69 129.6 1091.88 130.41 1091.88 c 6
 702.27 802.71 l 5
 702.27 1076.49 l 6
 702.27 1086.21 709.561 1094.31 719.28 1094.31 c 5
EndSplineSet
Validated: 1
EndChar

StartChar: O
Encoding: 270 79 14
Width: 894
VWidth: 0
Flags: W
HStem: 0 35.6396<343.161 544.599> 1058.67 34.8301<343.161 544.599>
VStem: 85.8604 35.6396<260.039 834.207> 766.261 35.6396<260.039 834.207>
LayerCount: 2
Fore
SplineSet
443.88 1093.5 m 4
 641.52 1093.5 801.9 933.93 801.9 736.29 c 6
 801.9 358.02 l 6
 801.9 160.38 641.52 0 443.88 0 c 4
 246.239 0 85.8604 160.38 85.8604 358.02 c 6
 85.8604 736.29 l 6
 85.8604 933.93 246.239 1093.5 443.88 1093.5 c 4
443.88 1058.67 m 4
 265.68 1058.67 121.5 914.489 121.5 736.29 c 6
 121.5 358.02 l 6
 121.5 179.82 265.68 35.6396 443.88 35.6396 c 4
 622.08 35.6396 766.261 179.82 766.261 358.02 c 6
 766.261 736.29 l 6
 766.261 914.489 622.08 1058.67 443.88 1058.67 c 4
EndSplineSet
Validated: 1
EndChar

StartChar: P
Encoding: 271 80 15
Width: 890
VWidth: 0
Flags: W
HStem: 0 21G<109.35 119.07> 378.27 35.6406<351.299 553.598> 1058.67 35.6406<351.299 552.851>
VStem: 96.3896 35.6406<0.00590762 580.77 632.834 1076.49> 776.79 35.6396<631.531 841.049>
LayerCount: 2
Fore
SplineSet
113.4 1094.31 m 4
 114.21 1094.31 l 4
 123.93 1094.31 132.03 1086.21 132.03 1076.49 c 4
 132.03 891.811 l 5
 189.54 1010.88 311.85 1093.5 452.79 1094.31 c 4
 453.6 1094.31 453.6 1094.31 454.41 1094.31 c 4
 455.22 1094.31 454.41 1094.31 455.22 1094.31 c 4
 652.05 1093.5 812.43 933.12 812.43 736.29 c 4
 812.43 539.46 652.86 379.08 456.03 378.27 c 4
 454.41 378.27 l 4
 453.6 378.27 453.6 378.27 452.79 378.27 c 4
 311.85 379.08 189.54 461.7 132.03 580.77 c 5
 132.03 17.8203 l 6
 132.03 8.09961 123.93 0 114.21 0 c 4
 104.489 0 96.3896 8.09961 96.3896 17.8203 c 4
 96.3896 736.29 l 5
 96.3896 1076.49 l 6
 96.3896 1086.21 103.68 1094.31 113.4 1094.31 c 4
454.41 1058.67 m 4
 276.21 1058.67 132.03 914.489 132.03 736.29 c 4
 132.03 558.09 276.21 413.91 454.41 413.91 c 4
 632.61 413.91 776.79 558.09 776.79 736.29 c 4
 776.79 914.489 632.61 1058.67 454.41 1058.67 c 4
EndSplineSet
Validated: 1
EndChar

StartChar: Q
Encoding: 272 81 16
Width: 894
VWidth: 0
Flags: W
HStem: 0 35.6396<343.161 548.435> 1058.67 34.8301<343.161 544.599>
VStem: 85.8604 35.6396<260.039 834.207> 766.261 35.6396<254.383 834.207>
LayerCount: 2
Fore
SplineSet
443.88 1093.5 m 4
 641.52 1093.5 801.9 933.93 801.9 736.29 c 6
 801.9 358.02 l 6
 801.9 288.36 782.46 222.75 747.63 167.67 c 4
 744.39 162.811 737.91 158.761 732.239 158.761 c 4
 722.52 158.761 714.42 166.86 714.42 176.58 c 4
 714.42 179.82 715.23 183.87 716.85 186.3 c 4
 748.439 235.71 766.261 294.84 766.261 358.02 c 6
 766.261 736.29 l 6
 766.261 914.489 622.08 1058.67 443.88 1058.67 c 4
 265.68 1058.67 121.5 914.489 121.5 736.29 c 6
 121.5 358.02 l 6
 121.5 179.82 265.68 35.6396 443.88 35.6396 c 4
 522.45 35.6396 595.35 63.9893 651.239 110.97 c 5
 386.37 375.84 l 6
 383.13 379.08 380.7 383.939 380.7 387.989 c 4
 380.7 397.71 388.8 405.811 398.52 405.811 c 4
 402.57 405.811 408.239 404.189 411.48 400.95 c 6
 689.311 122.311 l 5
 789.75 22.6797 l 6
 792.989 19.4395 794.61 14.5801 794.61 10.5303 c 4
 794.61 0.810547 786.511 -7.29004 776.79 -7.29004 c 4
 772.739 -7.29004 767.07 -5.66992 763.83 -2.42969 c 6
 676.35 85.8604 l 5
 613.98 32.4004 532.17 0 443.88 0 c 4
 246.239 0 85.8604 160.38 85.8604 358.02 c 6
 85.8604 736.29 l 6
 85.8604 933.93 246.239 1093.5 443.88 1093.5 c 4
EndSplineSet
Validated: 1
EndChar

StartChar: R
Encoding: 273 82 17
Width: 891
VWidth: 0
Flags: W
HStem: 0 21G<109.35 119.07 792.99 799.47> 378.27 35.6406<371.669 555.129> 1058.67 35.6406<351.696 555.129>
VStem: 96.3896 35.6406<0.00590762 1076.49> 776.79 35.6396<635.571 837.009>
LayerCount: 2
Fore
SplineSet
113.4 1094.31 m 6
 114.21 1094.31 l 4
 123.93 1094.31 132.03 1086.21 132.03 1076.49 c 4
 132.03 891.811 l 5
 190.35 1011.69 312.66 1094.31 454.41 1094.31 c 4
 652.05 1094.31 812.43 933.93 812.43 736.29 c 4
 812.43 538.65 652.05 378.27 454.41 378.27 c 4
 425.25 378.27 396.9 382.32 370.17 388.8 c 5
 805.95 31.5898 l 6
 809.189 28.3496 812.43 22.6797 812.43 17.8203 c 4
 812.43 8.09961 804.33 0 794.61 0 c 4
 791.37 0 785.7 1.62012 783.27 4.0498 c 6
 230.85 456.84 l 6
 230.04 456.84 l 4
 230.04 457.65 l 4
 228.42 458.46 l 4
 228.42 459.27 l 4
 227.61 460.08 l 4
 226.8 461.7 l 4
 225.989 461.7 l 4
 225.989 462.511 l 4
 225.989 463.32 l 4
 225.18 463.32 l 4
 225.18 464.939 l 4
 225.18 465.75 224.37 465.75 224.37 466.561 c 4
 224.37 467.37 224.37 468.18 224.37 468.989 c 4
 223.561 469.8 l 4
 223.561 470.61 l 4
 224.37 471.42 l 4
 224.37 472.23 l 4
 224.37 473.85 l 4
 224.37 474.66 224.37 474.66 224.37 475.47 c 4
 224.37 476.28 225.18 477.09 225.18 477.09 c 4
 225.18 477.9 225.989 477.09 225.989 477.9 c 4
 225.989 478.71 l 4
 226.8 480.33 l 4
 227.61 481.14 l 4
 229.23 482.761 l 4
 230.04 484.38 l 4
 230.85 485.189 232.47 485.189 233.28 486 c 4
 234.09 486 234.09 486.811 234.9 486.811 c 4
 235.71 486.811 235.71 487.62 236.52 487.62 c 4
 237.33 487.62 l 4
 238.14 487.62 l 4
 238.95 487.62 238.95 488.43 239.761 488.43 c 4
 241.38 488.43 l 4
 242.189 488.43 l 4
 243 488.43 l 4
 243.811 488.43 l 4
 244.62 488.43 244.62 487.62 245.43 487.62 c 4
 246.239 487.62 246.239 487.62 247.05 487.62 c 4
 247.86 487.62 249.48 486.811 250.29 486 c 4
 251.91 485.189 l 4
 252.72 485.189 252.72 484.38 253.53 484.38 c 6
 253.53 483.57 l 6
 308.61 439.83 378.27 413.91 454.41 413.91 c 4
 632.61 413.91 776.79 558.09 776.79 736.29 c 4
 776.79 914.489 632.61 1058.67 454.41 1058.67 c 4
 276.21 1058.67 132.03 914.489 132.03 736.29 c 4
 132.03 735.48 l 4
 132.03 734.67 l 6
 132.03 17.8203 l 6
 132.03 8.09961 123.93 0 114.21 0 c 4
 104.489 0 96.3896 8.09961 96.3896 17.8203 c 4
 96.3896 736.29 l 5
 96.3896 1076.49 l 6
 96.3896 1086.21 103.68 1094.31 113.4 1094.31 c 6
EndSplineSet
Validated: 1
EndChar

StartChar: S
Encoding: 274 83 18
Width: 874
VWidth: 0
Flags: W
HStem: 0 35.6396<330.201 531.639> 680.4 35.6396<328.3 531.639> 1058.67 34.8301<340.318 521.522>
VStem: 72.9004 35.6396<260.039 375.834> 148.23 35.6396<722.313 902.179> 677.97 35.6406<793.806 901.966> 753.3 35.6396<257.301 458.738>
LayerCount: 2
Fore
SplineSet
430.92 1093.5 m 4
 586.439 1093.5 713.61 967.14 713.61 811.62 c 4
 713.61 801.9 705.511 793.8 695.79 793.8 c 4
 686.07 793.8 677.97 801.9 677.97 811.62 c 4
 677.97 948.511 567.811 1058.67 430.92 1058.67 c 4
 294.03 1058.67 183.87 948.511 183.87 811.62 c 4
 183.87 754.11 204.12 700.65 237.33 658.53 c 5
 293.22 694.98 359.64 716.04 430.92 716.04 c 4
 628.561 716.04 788.939 555.66 788.939 358.02 c 4
 788.939 160.38 628.561 0 430.92 0 c 4
 233.28 0 72.9004 160.38 72.9004 358.02 c 4
 72.9004 367.739 81 375.84 90.7197 375.84 c 4
 100.439 375.84 108.54 367.739 108.54 358.02 c 4
 108.54 179.82 252.72 35.6396 430.92 35.6396 c 4
 609.12 35.6396 753.3 179.82 753.3 358.02 c 4
 753.3 536.22 609.12 680.4 430.92 680.4 c 4
 368.55 680.4 311.04 662.58 261.63 631.8 c 5
 276.21 618.03 292.41 605.88 310.23 596.16 c 4
 315.09 593.73 319.14 586.439 319.14 580.77 c 4
 319.14 571.05 311.04 562.95 301.32 562.95 c 4
 298.89 562.95 294.84 563.761 292.41 565.38 c 4
 266.489 579.96 243 598.59 222.75 620.46 c 4
 221.13 622.08 218.7 624.511 217.89 626.13 c 4
 174.96 675.54 148.23 740.34 148.23 811.62 c 4
 148.23 967.14 275.4 1093.5 430.92 1093.5 c 4
EndSplineSet
Validated: 1
EndChar

StartChar: T
Encoding: 275 84 19
Width: 838
VWidth: 0
Flags: W
HStem: 0 21G<413.1 422.82> 1058.67 35.6406<59.9454 400.14 435.78 775.975>
VStem: 400.14 35.6406<0.00590762 1058.67>
LayerCount: 2
Fore
SplineSet
417.96 1094.31 m 6
 418.77 1094.31 420.39 1094.31 421.2 1094.31 c 6
 758.16 1094.31 l 6
 767.88 1094.31 775.98 1086.21 775.98 1076.49 c 4
 775.98 1066.77 767.88 1058.67 758.16 1058.67 c 4
 435.78 1058.67 l 5
 435.78 17.8203 l 6
 435.78 8.09961 427.68 0 417.96 0 c 4
 408.239 0 400.14 8.09961 400.14 17.8203 c 4
 400.14 1058.67 l 5
 77.7607 1058.67 l 6
 68.04 1058.67 59.9395 1066.77 59.9395 1076.49 c 4
 59.9395 1086.21 68.04 1094.31 77.7607 1094.31 c 4
 414.72 1094.31 l 6
 415.53 1094.31 417.15 1094.31 417.96 1094.31 c 6
EndSplineSet
Validated: 1
EndChar

StartChar: U
Encoding: 276 85 20
Width: 901
VWidth: 0
Flags: W
HStem: 0 35.6396<348.831 550.237> 1074.31 20G<103.68 114.21 784.08 793.8>
VStem: 91.5303 35.6396<260.039 1094.3> 771.93 34.8311<260.039 1094.3>
LayerCount: 2
Fore
SplineSet
108.54 1094.31 m 5
 109.35 1094.31 l 4
 119.07 1094.31 127.17 1086.21 127.17 1076.49 c 4
 127.17 358.02 l 6
 127.17 179.82 271.35 35.6396 449.55 35.6396 c 4
 627.75 35.6396 771.93 179.82 771.93 358.02 c 6
 771.93 1076.49 l 6
 771.93 1086.21 779.22 1094.31 788.939 1094.31 c 4
 798.66 1094.31 806.761 1086.21 806.761 1076.49 c 4
 806.761 358.02 l 6
 806.761 160.38 647.189 0 449.55 0 c 4
 251.91 0 91.5303 160.38 91.5303 358.02 c 6
 91.5303 1076.49 l 6
 91.5303 1086.21 98.8203 1094.31 108.54 1094.31 c 5
EndSplineSet
Validated: 1
EndChar

StartChar: V
Encoding: 277 86 21
Width: 916
VWidth: 0
Flags: W
HStem: 0 21G<453.195 460.485> 1074.31 20G<73.3052 83.0249 831.465 839.97>
VStem: 61.5605 34.0195<1082.16 1094.27> 818.1 34.8301<1082.16 1094.29>
LayerCount: 2
Fore
SplineSet
77.7607 1094.31 m 4
 79.3799 1094.31 l 4
 86.6699 1094.31 93.1504 1088.64 95.5801 1082.16 c 6
 456.84 70.4697 l 5
 818.1 1082.16 l 6
 820.53 1088.64 827.82 1094.31 835.11 1094.31 c 4
 844.83 1094.31 852.93 1086.21 852.93 1076.49 c 4
 852.93 1074.87 852.93 1071.63 852.12 1070.01 c 6
 473.85 12.1504 l 6
 471.42 5.66992 464.13 0 456.84 0 c 4
 449.55 0 443.07 5.66992 440.64 12.1504 c 6
 62.3701 1070.01 l 6
 61.5605 1071.63 61.5605 1074.87 61.5605 1076.49 c 4
 61.5605 1085.4 68.8496 1093.5 77.7607 1094.31 c 4
EndSplineSet
Validated: 1
EndChar

StartChar: W
Encoding: 278 87 22
Width: 1295
VWidth: 0
Flags: W
HStem: 0 21G<453.195 460.485 831.465 838.755> 1074.31 20G<73.3052 83.0249 451.98 460.485 831.465 839.97 1209.73 1218.24>
VStem: 61.5605 34.8291<1082.16 1094.27> 439.02 34.8301<1082.16 1094.29> 818.1 34.8301<1082.16 1094.29> 1196.37 34.8301<1082.16 1094.29>
LayerCount: 2
Fore
SplineSet
77.7607 1094.31 m 4
 79.3799 1094.31 l 4
 86.6699 1094.31 93.96 1088.64 96.3896 1082.16 c 6
 456.84 70.4697 l 5
 626.939 546.75 l 5
 440.64 1070.01 l 6
 439.83 1071.63 439.02 1074.87 439.02 1076.49 c 4
 439.02 1086.21 447.12 1094.31 456.84 1094.31 c 4
 464.13 1094.31 471.42 1088.64 473.85 1082.16 c 6
 646.38 600.21 l 5
 818.1 1082.16 l 6
 820.53 1088.64 827.82 1094.31 835.11 1094.31 c 4
 844.83 1094.31 852.93 1086.21 852.93 1076.49 c 4
 852.93 1074.87 852.93 1071.63 852.12 1070.01 c 6
 665.011 546.75 l 5
 835.11 70.4697 l 5
 1196.37 1082.16 l 6
 1198.8 1088.64 1206.09 1094.31 1213.38 1094.31 c 4
 1223.1 1094.31 1231.2 1086.21 1231.2 1076.49 c 4
 1231.2 1074.87 1230.39 1071.63 1229.58 1070.01 c 6
 852.12 12.1504 l 6
 849.689 5.66992 842.4 0 835.11 0 c 4
 827.82 0 820.53 5.66992 818.1 12.1504 c 6
 646.38 494.1 l 5
 473.85 12.1504 l 6
 471.42 5.66992 464.13 0 456.84 0 c 4
 449.55 0 443.07 5.66992 440.64 12.1504 c 6
 62.3701 1070.01 l 6
 61.5605 1071.63 61.5605 1074.87 61.5605 1076.49 c 4
 61.5605 1085.4 68.8496 1093.5 77.7607 1094.31 c 4
EndSplineSet
Validated: 1
EndChar

StartChar: X
Encoding: 279 88 23
Width: 923
VWidth: 0
Flags: W
HStem: 0 21G<82.6206 89.9102 834.3 841.59>
LayerCount: 2
Fore
SplineSet
86.6699 1091.07 m 6
 87.4805 1091.07 l 4
 92.3398 1091.07 98.8203 1087.83 102.061 1083.78 c 6
 461.7 575.91 l 5
 822.15 1083.78 l 6
 825.39 1087.83 831.87 1091.07 836.73 1091.07 c 4
 846.45 1091.07 854.55 1082.97 854.55 1073.25 c 4
 854.55 1070.01 852.93 1065.15 851.311 1062.72 c 6
 483.57 545.13 l 5
 851.311 28.3496 l 6
 852.93 25.9199 854.55 21.0605 854.55 17.8203 c 4
 854.55 8.09961 846.45 0 836.73 0 c 4
 831.87 0 825.39 3.23926 822.15 7.29004 c 6
 461.7 515.16 l 5
 102.061 7.29004 l 6
 98.8203 3.23926 92.3398 0 87.4805 0 c 4
 77.7607 0 69.6602 8.09961 69.6602 17.8203 c 4
 69.6602 21.0605 71.2803 25.9199 72.9004 28.3496 c 6
 440.64 545.13 l 5
 72.9004 1062.72 l 6
 71.2803 1065.15 69.6602 1070.01 69.6602 1073.25 c 4
 69.6602 1082.97 76.9502 1091.07 86.6699 1091.07 c 6
EndSplineSet
Validated: 1
EndChar

StartChar: Y
Encoding: 280 89 24
Width: 1130
VWidth: 0
Flags: W
HStem: 1074.31 20G<287.955 296.865 1045.31 1053.81>
VStem: 275.4 34.8301<1082.97 1094.27> 1032.75 34.0195<1082.97 1094.28>
LayerCount: 2
Fore
SplineSet
292.41 1094.31 m 5
 293.22 1094.31 l 4
 300.511 1094.31 307.8 1089.45 310.23 1082.97 c 6
 671.489 71.2803 l 5
 1032.75 1082.97 l 6
 1035.18 1089.45 1041.66 1094.31 1048.95 1094.31 c 4
 1058.67 1094.31 1066.77 1086.21 1066.77 1076.49 c 4
 1066.77 1074.87 1066.77 1072.44 1065.96 1070.82 c 6
 688.5 14.5801 l 6
 688.5 12.96 687.689 10.5303 686.88 8.91016 c 4
 617.22 -174.15 412.29 -267.3 228.42 -199.261 c 4
 157.14 -172.53 98.8203 -125.55 58.3203 -67.2305 c 4
 56.7002 -64.7998 55.0801 -60.75 55.0801 -57.5107 c 4
 55.0801 -47.79 63.1797 -39.6895 72.9004 -39.6895 c 4
 77.7607 -39.6895 84.2393 -42.9297 87.4805 -46.9805 c 4
 123.93 -99.6299 175.77 -142.561 240.57 -166.05 c 4
 405.811 -227.61 588.061 -144.989 652.05 18.6299 c 5
 276.21 1070.82 l 6
 275.4 1072.44 275.4 1074.87 275.4 1076.49 c 4
 275.4 1085.4 283.5 1093.5 292.41 1094.31 c 5
EndSplineSet
Validated: 33
EndChar

StartChar: Z
Encoding: 281 90 25
Width: 933
VWidth: 0
Flags: W
HStem: 0 35.6396<122.311 861.834> 1058.67 34.8301<69.6661 809.189>
LayerCount: 2
Fore
SplineSet
87.4805 1093.5 m 4
 844.02 1093.5 l 6
 853.739 1093.5 861.03 1086.21 861.03 1076.49 c 4
 861.03 1073.25 859.41 1068.39 857.79 1065.96 c 6
 122.311 35.6396 l 5
 844.02 35.6396 l 6
 853.739 35.6396 861.84 27.54 861.84 17.8203 c 4
 861.84 8.09961 853.739 0 844.02 0 c 4
 87.4805 0 l 6
 77.7607 0 69.6602 8.09961 69.6602 17.8203 c 4
 69.6602 21.0605 71.2803 25.9199 72.9004 28.3496 c 6
 809.189 1058.67 l 5
 87.4805 1058.67 l 6
 77.7607 1058.67 69.6602 1066.77 69.6602 1076.49 c 4
 69.6602 1086.21 77.7607 1093.5 87.4805 1093.5 c 4
EndSplineSet
Validated: 1
EndChar

StartChar: zero
Encoding: 282 48 26
Width: 896
VWidth: 0
Flags: W
HStem: 0 35.6396<350.822 547.467> 1058.67 34.8301<350.822 547.927>
VStem: 91.5303 35.6396<260.039 834.207> 771.12 35.6406<260.039 839.746>
LayerCount: 2
Fore
SplineSet
448.739 1093.5 m 4
 449.55 1093.5 449.55 1093.5 450.36 1093.5 c 4
 647.189 1092.69 806.761 933.12 806.761 736.29 c 6
 806.761 358.02 l 6
 806.761 160.38 647.189 0 449.55 0 c 4
 448.739 0 l 4
 251.1 0 91.5303 160.38 91.5303 358.02 c 6
 91.5303 736.29 l 6
 91.5303 933.93 251.1 1093.5 448.739 1093.5 c 4
448.739 1058.67 m 4
 270.54 1058.67 127.17 914.489 127.17 736.29 c 6
 127.17 358.02 l 6
 127.17 179.82 270.54 35.6396 448.739 35.6396 c 4
 449.55 35.6396 449.55 35.6396 450.36 35.6396 c 4
 627.75 36.4502 771.12 180.63 771.12 358.02 c 6
 771.12 736.29 l 6
 771.12 914.489 626.939 1058.67 448.739 1058.67 c 4
EndSplineSet
Validated: 1
EndChar

StartChar: one
Encoding: 283 49 27
Width: 516
VWidth: 0
Flags: W
HStem: 0 21G<396.9 406.621> 1074.31 20G<398.52 406.621>
VStem: 383.939 35.6406<0.00590762 1025.46>
LayerCount: 2
Fore
SplineSet
400.95 1094.31 m 4
 401.761 1094.31 l 4
 411.48 1094.31 419.58 1086.21 419.58 1076.49 c 4
 419.58 17.8203 l 6
 419.58 8.09961 411.48 0 401.761 0 c 4
 392.04 0 383.939 8.09961 383.939 17.8203 c 4
 383.939 1025.46 l 5
 112.59 686.88 l 6
 109.35 682.83 103.68 680.4 98.8203 680.4 c 4
 89.0996 680.4 81 688.5 81 698.22 c 4
 81 701.46 82.6201 707.13 85.0498 709.561 c 6
 387.18 1087.83 l 6
 390.42 1091.07 396.09 1094.31 400.95 1094.31 c 4
EndSplineSet
Validated: 1
EndChar

StartChar: two
Encoding: 284 50 28
Width: 734
VWidth: 0
Flags: W
HStem: 0 35.6396<137.7 649.614> 529.739 34.8311<276.584 384.745> 1058.67 35.6406<276.427 457.532>
VStem: 85.0498 35.6396<721.061 902.222> 613.98 35.6396<721.827 902.222>
LayerCount: 2
Fore
SplineSet
366.93 1094.31 m 5
 522.45 1094.31 649.62 967.14 649.62 811.62 c 4
 649.62 746.82 627.75 687.689 591.3 639.9 c 4
 137.7 35.6396 l 5
 631.8 35.6396 l 6
 641.52 35.6396 649.62 27.54 649.62 17.8203 c 4
 649.62 8.09961 641.52 0 631.8 0 c 4
 102.061 0 l 6
 92.3398 0 84.2393 8.09961 84.2393 17.8203 c 4
 84.2393 21.0605 86.6699 25.9199 88.29 28.3496 c 6
 562.95 661.77 l 6
 594.54 703.08 613.98 754.92 613.98 811.62 c 4
 613.98 948.511 503.82 1058.67 366.93 1058.67 c 4
 230.04 1058.67 120.689 948.511 120.689 811.62 c 4
 120.689 674.73 230.04 564.57 366.93 564.57 c 4
 367.739 564.57 l 4
 377.46 564.57 384.75 556.47 384.75 546.75 c 4
 384.75 537.03 377.46 529.739 367.739 529.739 c 4
 366.93 529.739 l 4
 211.41 529.739 85.0498 656.1 85.0498 811.62 c 4
 85.0498 967.14 211.41 1094.31 366.93 1094.31 c 5
EndSplineSet
Validated: 1
EndChar

StartChar: three
Encoding: 285 51 29
Width: 855
VWidth: 0
Flags: W
HStem: 0 35.6396<306.486 513.009> 680.4 35.6396<306.486 516.097> 1058.67 34.8301<325.808 503.702>
VStem: 660.15 35.6396<721.222 902.179> 734.67 35.6406<257.301 462.826>
LayerCount: 2
Fore
SplineSet
413.1 1093.5 m 4
 568.62 1093.5 695.79 967.14 695.79 811.62 c 4
 695.79 746.011 673.11 685.261 635.85 637.47 c 5
 646.38 629.37 656.1 620.46 665.82 610.739 c 4
 730.62 545.939 770.311 456.84 770.311 358.02 c 4
 770.311 160.38 609.93 0 412.29 0 c 4
 362.88 0 315.9 10.5303 272.97 28.3496 c 4
 230.04 46.1699 191.97 72.0898 159.57 104.489 c 4
 127.17 136.89 100.439 175.77 82.6201 218.7 c 4
 81.8105 220.32 81 223.561 81 225.18 c 4
 81 234.9 89.0996 243 98.8203 243 c 4
 105.3 243 113.4 238.14 115.83 232.47 c 4
 132.03 193.59 155.52 158.761 184.68 129.6 c 4
 213.84 100.439 247.86 76.9502 286.739 60.75 c 4
 325.62 44.5498 367.739 35.6396 412.29 35.6396 c 4
 590.489 35.6396 734.67 179.82 734.67 358.02 c 4
 734.67 447.12 699.03 527.311 640.71 585.63 c 4
 628.561 597.78 615.6 609.12 601.83 618.84 c 4
 601.02 619.65 598.59 620.46 597.78 621.27 c 4
 545.13 658.53 481.14 680.4 412.29 680.4 c 4
 367.739 680.4 325.62 671.489 286.739 655.29 c 4
 285.12 654.48 281.88 653.67 280.261 653.67 c 4
 270.54 653.67 262.439 661.77 262.439 671.489 c 4
 262.439 677.97 267.3 685.261 272.97 687.689 c 4
 315.9 705.511 362.88 716.04 412.29 716.04 c 4
 483.57 716.04 550.8 694.98 606.689 658.53 c 5
 639.9 700.65 660.15 753.3 660.15 811.62 c 4
 660.15 948.511 549.989 1058.67 413.1 1058.67 c 4
 345.061 1058.67 283.5 1030.32 238.95 985.77 c 4
 235.71 982.53 230.04 980.91 225.989 980.91 c 4
 216.27 980.91 208.17 989.011 208.17 998.73 c 4
 208.17 1002.78 210.6 1007.64 213.84 1010.88 c 4
 264.87 1061.91 335.34 1093.5 413.1 1093.5 c 4
EndSplineSet
Validated: 1
EndChar

StartChar: four
Encoding: 286 52 30
Width: 882
VWidth: 0
Flags: W
HStem: 0 21G<626.94 636.66> 378.27 35.6406<132.84 613.98 649.62 801.084> 696.04 20G<626.94 636.66> 1074.31 20G<477.495 485.19>
VStem: 613.98 35.6396<0.00590762 378.27 413.91 716.034>
LayerCount: 2
Fore
SplineSet
480.33 1094.31 m 4
 490.05 1094.31 498.15 1086.21 498.15 1076.49 c 4
 498.15 1074.06 497.34 1070.01 495.72 1067.58 c 6
 132.84 413.91 l 5
 613.98 413.91 l 5
 613.98 698.22 l 6
 613.98 707.939 622.08 716.04 631.8 716.04 c 4
 641.52 716.04 649.62 707.939 649.62 698.22 c 4
 649.62 413.91 l 5
 782.46 413.91 l 6
 783.27 413.91 l 4
 792.989 413.91 801.09 405.811 801.09 396.09 c 4
 801.09 386.37 792.989 378.27 783.27 378.27 c 4
 782.46 378.27 l 6
 649.62 378.27 l 5
 649.62 17.8203 l 6
 649.62 8.09961 641.52 0 631.8 0 c 4
 622.08 0 613.98 8.09961 613.98 17.8203 c 4
 613.98 378.27 l 5
 102.061 378.27 l 6
 92.3398 378.27 84.2393 386.37 84.2393 396.09 c 4
 84.2393 398.52 85.0498 402.57 86.6699 405 c 6
 464.939 1084.59 l 6
 467.37 1089.45 474.66 1094.31 480.33 1094.31 c 4
EndSplineSet
Validated: 1
EndChar

StartChar: five
Encoding: 287 53 31
Width: 855
VWidth: 0
Flags: W
HStem: 0 35.6396<306.486 513.009> 680.4 35.6396<308.956 513.009> 1058.67 34.8301<166.05 691.733>
VStem: 130.41 35.6396<617.22 1058.67> 734.67 35.6406<257.301 458.738>
LayerCount: 2
Fore
SplineSet
148.23 1093.5 m 5
 673.92 1093.5 l 6
 683.64 1093.5 691.739 1086.21 691.739 1076.49 c 4
 691.739 1066.77 683.64 1058.67 673.92 1058.67 c 4
 166.05 1058.67 l 5
 166.05 617.22 l 5
 230.04 678.78 316.71 716.04 412.29 716.04 c 4
 609.93 716.04 770.311 555.66 770.311 358.02 c 4
 770.311 160.38 609.93 0 412.29 0 c 4
 362.88 0 315.9 10.5303 272.97 28.3496 c 4
 230.04 46.1699 191.97 72.0898 159.57 104.489 c 4
 127.17 136.89 100.439 175.77 82.6201 218.7 c 4
 81.8105 220.32 81 223.561 81 225.18 c 4
 81 234.9 89.0996 243 98.8203 243 c 4
 105.3 243 113.4 238.14 115.83 232.47 c 4
 132.03 193.59 155.52 158.761 184.68 129.6 c 4
 213.84 100.439 247.86 76.9502 286.739 60.75 c 4
 325.62 44.5498 367.739 35.6396 412.29 35.6396 c 4
 590.489 35.6396 734.67 179.82 734.67 358.02 c 4
 734.67 536.22 590.489 680.4 412.29 680.4 c 4
 311.04 680.4 221.939 633.42 162.811 561.33 c 4
 159.57 557.28 153.09 554.04 148.23 554.04 c 4
 146.61 554.04 l 4
 145.8 554.04 145.8 554.04 144.989 554.04 c 4
 143.37 554.04 l 4
 142.561 554.85 l 4
 141.75 554.85 141.75 554.85 140.939 554.85 c 4
 134.46 557.28 129.6 565.38 129.6 571.86 c 4
 129.6 572.67 130.41 572.67 130.41 573.48 c 6
 130.41 1076.49 l 6
 130.41 1086.21 138.511 1093.5 148.23 1093.5 c 5
EndSplineSet
Validated: 1
EndChar

StartChar: six
Encoding: 288 54 32
Width: 892
VWidth: 0
Flags: W
HStem: 0 35.6396<348.871 550.237> 680.4 35.6396<346.836 550.237> 1058.67 34.8301<348.831 551.368>
VStem: 91.5303 35.6396<260.039 461.476 513.54 834.207> 771.93 34.8311<257.301 458.738>
LayerCount: 2
Fore
SplineSet
449.55 1093.5 m 4
 498.96 1093.5 545.939 1083.78 588.87 1065.96 c 4
 631.8 1048.14 669.87 1021.41 702.27 989.011 c 4
 734.67 956.61 761.4 918.54 779.22 875.61 c 4
 780.03 873.989 780.84 869.939 780.84 867.511 c 4
 780.84 857.79 772.739 849.689 763.02 849.689 c 4
 756.54 849.689 748.439 854.55 746.011 861.03 c 4
 729.811 899.91 706.32 934.739 677.16 963.9 c 4
 648 993.061 613.98 1016.55 575.1 1032.75 c 4
 536.22 1048.95 494.1 1058.67 449.55 1058.67 c 4
 271.35 1058.67 127.17 914.489 127.17 736.29 c 6
 127.17 513.54 l 5
 185.489 633.42 307.8 716.04 449.55 716.04 c 4
 647.189 716.04 806.761 555.66 806.761 358.02 c 4
 806.761 160.38 647.189 0 449.55 0 c 4
 251.91 0 91.5303 160.38 91.5303 358.02 c 6
 91.5303 736.29 l 6
 91.5303 933.93 251.91 1093.5 449.55 1093.5 c 4
449.55 680.4 m 4
 271.35 680.4 127.17 536.22 127.17 358.02 c 4
 127.17 357.21 l 4
 127.17 356.4 l 4
 127.98 179.011 271.35 35.6396 449.55 35.6396 c 4
 627.75 35.6396 771.93 179.82 771.93 358.02 c 4
 771.93 536.22 627.75 680.4 449.55 680.4 c 4
EndSplineSet
Validated: 1
EndChar

StartChar: seven
Encoding: 289 55 33
Width: 801
VWidth: 0
Flags: W
HStem: 0 21G<245.43 253.53> 378.27 35.6406<232.476 385.561 439.83 571.044> 1058.67 35.6406<81.0059 677.16>
VStem: 232.47 34.0195<0.0316212 10.5303>
LayerCount: 2
Fore
SplineSet
99.6299 1094.31 m 6
 703.89 1094.31 l 6
 713.61 1094.31 721.71 1086.21 721.71 1076.49 c 4
 721.71 1074.87 720.9 1070.82 720.09 1069.2 c 6
 439.83 413.91 l 5
 553.23 413.91 l 6
 562.95 413.91 571.05 405.811 571.05 396.09 c 4
 571.05 386.37 562.95 378.27 553.23 378.27 c 4
 424.439 378.27 l 5
 266.489 10.5303 l 6
 264.061 4.86035 256.77 0 250.29 0 c 4
 240.57 0 232.47 8.09961 232.47 17.8203 c 4
 232.47 19.4395 233.28 23.4893 234.09 25.1104 c 6
 385.561 378.27 l 5
 250.29 378.27 l 6
 240.57 378.27 232.47 386.37 232.47 396.09 c 4
 232.47 405.811 240.57 413.91 250.29 413.91 c 4
 400.95 413.91 l 5
 677.16 1058.67 l 5
 99.6299 1058.67 l 6
 98.8203 1058.67 l 4
 89.0996 1058.67 81 1066.77 81 1076.49 c 4
 81 1086.21 89.0996 1094.31 98.8203 1094.31 c 4
 99.6299 1094.31 l 6
EndSplineSet
Validated: 1
EndChar

StartChar: eight
Encoding: 290 56 34
Width: 890
VWidth: 0
Flags: HW
LayerCount: 2
Fore
SplineSet
223.561 638.28 m 5
 189.686 681.067 163.62 740.349 163.62 811.62 c 4
 163.62 905.58 209.79 989.82 281.07 1040.85 c 5
 281.07 1040.85 281.07 1041.66 281.88 1041.66 c 6
 283.5 1042.47 l 5
 324.267 1071.59 379.51 1093.5 445.5 1093.5 c 4
 601.02 1093.5 728.189 967.14 728.189 811.62 c 4
 728.189 746.011 705.511 686.07 668.25 638.28 c 5
 750.87 572.67 803.52 471.42 803.52 358.02 c 4
 803.52 160.38 643.14 0 445.5 0 c 4
 247.86 0 88.29 160.38 88.29 358.02 c 4
 88.29 471.42 140.939 572.67 223.561 638.28 c 5
768.689 358.02 m 4
 768.689 530.803 630.402 680.4 445.5 680.4 c 4
 410.67 680.4 377.46 675.54 345.87 665.011 c 4
 344.25 664.2 341.011 663.39 339.39 663.39 c 4
 329.67 663.39 321.57 671.489 321.57 681.21 c 4
 321.57 688.5 328.05 696.6 335.34 698.22 c 4
 370.17 709.561 406.62 716.04 445.5 716.04 c 4
 516.78 716.04 584.011 694.98 639.9 658.53 c 5
 673.11 700.65 692.55 754.11 692.55 811.62 c 4
 692.55 948.511 582.39 1058.67 445.5 1058.67 c 4
 301.289 1058.67 199.261 943.341 199.261 811.62 c 4
 199.261 697.575 267.765 618.241 349.92 584.011 c 4
 356.4 581.58 361.261 574.29 361.261 567.811 c 4
 361.261 558.09 353.16 549.989 343.439 549.989 c 4
 341.011 549.989 337.77 550.8 336.15 551.61 c 4
 302.939 566.189 272.16 586.439 247.05 611.55 c 5
 171.72 552.42 123.12 460.89 123.12 358.02 c 4
 123.12 179.82 267.3 35.6396 445.5 35.6396 c 4
 623.7 35.6396 768.689 179.82 768.689 358.02 c 4
EndSplineSet
Validated: 524289
EndChar

StartChar: nine
Encoding: 291 57 35
Width: 891
VWidth: 0
Flags: W
HStem: 0 35.6396<336.456 542.979> 378.27 35.6406<341.542 544.974> 1058.67 34.8301<341.542 542.806>
VStem: 84.2393 35.6406<635.571 836.977> 764.64 35.6406<260.039 580.77 632.834 835.414>
LayerCount: 2
Fore
SplineSet
442.261 1093.5 m 4
 639.09 1093.5 799.47 934.739 800.28 737.91 c 4
 800.28 736.29 l 4
 800.28 358.02 l 6
 800.28 160.38 639.9 0 442.261 0 c 4
 392.85 0 345.87 10.5303 302.939 28.3496 c 4
 260.011 46.1699 221.939 72.0898 189.54 104.489 c 4
 157.14 136.89 130.41 175.77 112.59 218.7 c 4
 111.78 220.32 110.97 223.561 110.97 225.18 c 4
 110.97 234.9 119.07 243 128.79 243 c 4
 135.27 243 143.37 238.14 145.8 232.47 c 4
 162 193.59 185.489 158.761 214.65 129.6 c 4
 243.811 100.439 277.83 76.9502 316.71 60.75 c 4
 355.59 44.5498 397.71 35.6396 442.261 35.6396 c 4
 620.46 35.6396 764.64 179.82 764.64 358.02 c 6
 764.64 580.77 l 5
 706.32 460.89 584.011 378.27 442.261 378.27 c 4
 244.62 378.27 84.2393 538.65 84.2393 736.29 c 4
 84.2393 933.93 244.62 1093.5 442.261 1093.5 c 4
442.261 1058.67 m 4
 264.061 1058.67 119.88 914.489 119.88 736.29 c 4
 119.88 558.09 264.061 413.91 442.261 413.91 c 4
 620.46 413.91 764.64 558.09 764.64 736.29 c 4
 764.64 914.489 620.46 1058.67 442.261 1058.67 c 4
EndSplineSet
Validated: 1
EndChar

StartChar: a
Encoding: 292 97 36
Width: 809
VWidth: 0
Flags: W
HStem: 0 35.6396<317.302 521.74> 680.4 35.6396<317.302 521.74>
VStem: 60 35.6406<257.301 458.738> 683.7 34.8301<-0.804639 117.45 152.058 563.982 598.59 716.034>
LayerCount: 2
Fore
SplineSet
418.021 716.04 m 4
 523.32 716.04 618.09 670.68 683.7 598.59 c 5
 683.7 698.22 l 6
 683.7 707.939 691.8 716.04 701.521 716.04 c 4
 711.24 716.04 718.53 707.939 718.53 698.22 c 4
 718.53 548.37 l 6
 718.53 547.561 719.34 547.561 719.34 546.75 c 4
 719.34 545.939 718.53 545.939 718.53 545.13 c 6
 718.53 170.91 l 6
 718.53 170.1 719.34 170.1 719.34 169.29 c 4
 719.34 168.48 718.53 167.67 718.53 166.86 c 6
 718.53 17.8203 l 6
 718.53 17.0107 l 4
 718.53 7.29004 711.24 -0.810547 701.521 -0.810547 c 4
 691.8 -0.810547 683.7 7.29004 683.7 17.0107 c 4
 683.7 17.8203 l 6
 683.7 117.45 l 5
 618.09 45.3604 523.32 0 418.021 0 c 4
 220.381 0 60 160.38 60 358.02 c 4
 60 555.66 220.381 716.04 418.021 716.04 c 4
418.021 680.4 m 4
 239.82 680.4 95.6406 536.22 95.6406 358.02 c 4
 95.6406 179.82 239.82 35.6396 418.021 35.6396 c 4
 528.182 35.6396 625.381 90.7197 683.7 174.96 c 5
 683.7 541.08 l 5
 625.381 625.32 528.182 680.4 418.021 680.4 c 4
EndSplineSet
Validated: 1
EndChar

StartChar: b
Encoding: 293 98 37
Width: 842
VWidth: 0
Flags: W
HStem: 0 35.6396<293.394 497.619> 680.4 35.6396<293.394 497.619> 1074.31 20G<108.54 119.07>
VStem: 96.3896 35.6406<0.00590762 117.45 151.268 564.772 598.59 1076.49> 719.28 35.6396<257.301 458.738>
LayerCount: 2
Fore
SplineSet
113.4 1094.31 m 4
 114.21 1094.31 l 4
 123.93 1094.31 132.03 1086.21 132.03 1076.49 c 4
 132.03 1075.68 l 6
 132.03 598.59 l 5
 197.64 670.68 291.6 716.04 396.9 716.04 c 4
 594.54 716.04 754.92 555.66 754.92 358.02 c 4
 754.92 160.38 594.54 0 396.9 0 c 4
 291.6 0 197.64 45.3604 132.03 117.45 c 5
 132.03 17.8203 l 6
 132.03 8.09961 123.93 0 114.21 0 c 4
 104.489 0 96.3896 8.09961 96.3896 17.8203 c 4
 96.3896 168.48 l 6
 96.3896 169.29 l 4
 96.3896 170.1 l 6
 96.3896 546.75 l 5
 96.3896 1075.68 l 6
 96.3896 1076.49 l 4
 96.3896 1086.21 103.68 1094.31 113.4 1094.31 c 4
396.9 680.4 m 4
 286.739 680.4 190.35 626.13 132.03 541.89 c 5
 132.03 174.15 l 5
 190.35 89.9102 286.739 35.6396 396.9 35.6396 c 4
 575.1 35.6396 719.28 179.82 719.28 358.02 c 4
 719.28 536.22 575.1 680.4 396.9 680.4 c 4
EndSplineSet
Validated: 1
EndChar

StartChar: c
Encoding: 294 99 38
Width: 813
VWidth: 0
Flags: W
HStem: 0 35.6396<336.682 542.766> 680.4 35.6396<336.682 542.766>
VStem: 79.3799 35.6396<257.301 458.738>
LayerCount: 2
Fore
SplineSet
437.4 716.04 m 4
 561.33 716.04 671.489 652.05 735.48 556.47 c 4
 737.1 554.04 737.91 549.989 737.91 546.75 c 4
 737.91 537.03 730.62 528.93 720.9 528.93 c 4
 715.23 528.93 708.75 532.98 705.511 537.03 c 4
 648 623.7 549.18 680.4 437.4 680.4 c 4
 259.2 680.4 115.02 536.22 115.02 358.02 c 4
 115.02 179.82 259.2 35.6396 437.4 35.6396 c 4
 549.18 35.6396 648 92.3398 705.511 179.011 c 4
 708.75 183.061 715.23 186.3 720.09 186.3 c 4
 729.811 186.3 737.91 179.011 737.91 169.29 c 4
 737.91 166.05 737.1 161.189 735.48 158.761 c 4
 671.489 63.1797 561.33 0 437.4 0 c 4
 239.761 0 79.3799 160.38 79.3799 358.02 c 4
 79.3799 555.66 239.761 716.04 437.4 716.04 c 4
EndSplineSet
Validated: 1
EndChar

StartChar: d
Encoding: 295 100 39
Width: 835
VWidth: 0
Flags: W
HStem: 0 35.6396<335.061 539.499> 680.4 35.6396<335.061 539.499> 1074.31 20G<713.61 723.33>
VStem: 77.7607 35.6396<257.301 458.738> 701.46 34.8301<0.00590762 117.45 151.268 563.982 598.59 1094.3>
LayerCount: 2
Fore
SplineSet
718.47 1094.31 m 4
 728.189 1094.31 736.29 1086.21 736.29 1076.49 c 4
 736.29 1075.68 l 6
 736.29 169.29 l 5
 736.29 17.8203 l 6
 736.29 8.09961 728.189 0 718.47 0 c 4
 708.75 0 700.65 8.09961 700.65 17.8203 c 4
 701.46 17.8203 l 6
 701.46 117.45 l 5
 635.85 45.3604 541.08 0 435.78 0 c 4
 238.14 0 77.7607 160.38 77.7607 358.02 c 4
 77.7607 555.66 238.14 716.04 435.78 716.04 c 4
 541.08 716.04 635.85 670.68 701.46 598.59 c 5
 701.46 1075.68 l 6
 701.46 1076.49 l 4
 701.46 1086.21 708.75 1094.31 718.47 1094.31 c 4
435.78 680.4 m 4
 257.58 680.4 113.4 536.22 113.4 358.02 c 4
 113.4 179.82 257.58 35.6396 435.78 35.6396 c 4
 545.939 35.6396 643.14 89.9102 701.46 174.15 c 5
 701.46 541.08 l 5
 643.14 625.32 545.939 680.4 435.78 680.4 c 4
EndSplineSet
Validated: 1
EndChar

StartChar: e
Encoding: 296 101 40
Width: 874
VWidth: 0
Flags: W
HStem: 0 35.6396<336.682 542.766> 378.27 35.6406<192.786 754.92> 680.4 35.6396<336.682 537.039>
VStem: 79.3799 35.6396<257.301 458.738>
LayerCount: 2
Fore
SplineSet
437.4 716.04 m 4
 621.27 716.04 773.55 576.72 792.989 397.71 c 4
 792.989 396.9 793.8 396.9 793.8 396.09 c 4
 793.8 386.37 785.7 378.27 775.98 378.27 c 4
 210.6 378.27 l 6
 200.88 378.27 192.78 386.37 192.78 396.09 c 4
 192.78 405.811 200.88 413.91 210.6 413.91 c 4
 754.92 413.91 l 5
 728.189 565.38 596.97 680.4 437.4 680.4 c 4
 259.2 680.4 115.02 536.22 115.02 358.02 c 4
 115.02 179.82 259.2 35.6396 437.4 35.6396 c 4
 549.18 35.6396 648 92.3398 705.511 179.011 c 4
 708.75 183.061 715.23 187.11 720.9 187.11 c 4
 730.62 187.11 738.72 179.011 738.72 169.29 c 4
 738.72 166.05 737.1 161.189 735.48 158.761 c 4
 671.489 63.1797 561.33 0 437.4 0 c 4
 239.761 0 79.3799 160.38 79.3799 358.02 c 4
 79.3799 555.66 239.761 716.04 437.4 716.04 c 4
EndSplineSet
Validated: 1
EndChar

StartChar: f
Encoding: 297 102 41
Width: 704
VWidth: 0
Flags: W
HStem: 378.27 35.6406<61.8272 220.581 256.221 475.726> 1058.67 35.6406<477.882 681.685>
VStem: 220.581 35.6396<-226.794 378.27 413.91 834.271>
LayerCount: 2
Fore
SplineSet
578.601 1094.31 m 0
 686.331 1094.31 783.531 1045.71 849.141 970.38 c 0
 851.572 967.95 854 963.09 854 959.04 c 0
 854 949.32 845.901 941.22 836.181 941.22 c 0
 831.322 941.22 825.651 944.46 822.411 947.7 c 0
 763.281 1015.74 675.801 1058.67 578.601 1058.67 c 0
 400.401 1058.67 256.221 914.489 256.221 736.29 c 2
 256.221 413.91 l 1
 457.911 413.91 l 2
 467.631 413.91 475.731 405.811 475.731 396.09 c 0
 475.731 386.37 467.631 378.27 457.911 378.27 c 0
 256.221 378.27 l 1
 256.221 -208.17 l 2
 256.221 -208.98 l 0
 256.221 -218.7 248.121 -226.8 238.401 -226.8 c 0
 228.681 -226.8 220.581 -218.7 220.581 -208.98 c 0
 220.581 -208.17 l 2
 220.581 378.27 l 1
 79.6406 378.27 l 2
 69.9209 378.27 61.8213 386.37 61.8213 396.09 c 0
 61.8213 405.811 69.9209 413.91 79.6406 413.91 c 0
 220.581 413.91 l 1
 220.581 736.29 l 2
 220.581 933.93 380.961 1094.31 578.601 1094.31 c 0
EndSplineSet
Validated: 524289
EndChar

StartChar: g
Encoding: 298 103 42
Width: 837
VWidth: 0
Flags: W
HStem: -362.88 35.6406<277.025 481.387> 0 35.6396<336.682 541.119> 680.4 35.6396<336.682 541.119>
VStem: 79.3799 35.6396<257.301 458.738> 703.08 34.8301<-102.841 117.45 151.268 698.22>
LayerCount: 2
Fore
SplineSet
720.09 716.04 m 0
 720.9 716.04 l 0
 730.62 716.04 737.91 707.939 737.91 698.22 c 0
 737.91 547.561 l 2
 737.91 546.75 l 0
 737.91 545.939 l 2
 737.91 169.29 l 1
 737.91 -4.86035 l 2
 737.91 -202.5 578.34 -362.88 380.7 -362.88 c 0
 285.12 -362.88 197.64 -324.811 133.65 -264.061 c 0
 130.41 -260.82 127.98 -255.15 127.98 -251.1 c 0
 127.98 -241.38 136.08 -233.28 145.8 -233.28 c 0
 149.85 -233.28 154.71 -235.71 157.95 -238.95 c 0
 215.46 -294.03 294.84 -327.239 380.7 -327.239 c 0
 558.9 -327.239 703.08 -183.061 703.08 -4.86035 c 2
 703.08 117.45 l 1
 637.47 45.3604 542.7 0 437.4 0 c 0
 239.761 0 79.3799 160.38 79.3799 358.02 c 0
 79.3799 555.66 239.761 716.04 437.4 716.04 c 0
 542.7 716.04 637.47 670.68 703.08 598.59 c 1
 703.08 698.22 l 2
 703.08 707.939 710.37 716.04 720.09 716.04 c 0
437.4 680.4 m 0
 259.2 680.4 115.02 536.22 115.02 358.02 c 0
 115.02 179.82 259.2 35.6396 437.4 35.6396 c 0
 547.561 35.6396 644.761 89.9102 703.08 174.15 c 1
 703.08 541.08 l 1
 644.761 625.32 547.561 680.4 437.4 680.4 c 0
EndSplineSet
Validated: 1
EndChar

StartChar: h
Encoding: 299 104 43
Width: 828
VWidth: 0
Flags: W
HStem: 0 21G<109.35 119.07 713.61 723.33> 680.4 35.6396<273.875 481.919> 1074.31 20G<109.35 119.07>
VStem: 96.3896 35.6406<0.00590762 584.501 617.22 1094.3> 700.65 35.6396<0.00590762 460.093>
LayerCount: 2
Fore
SplineSet
114.21 1094.31 m 6
 123.93 1094.31 132.03 1086.21 132.03 1076.49 c 4
 132.03 617.22 l 5
 196.02 677.97 282.689 716.04 378.27 716.04 c 4
 573.48 716.04 732.239 559.71 736.29 366.12 c 4
 736.29 17.8203 l 6
 736.29 8.09961 728.189 0 718.47 0 c 4
 708.75 0 700.65 8.09961 700.65 17.8203 c 4
 700.65 366.12 l 5
 696.6 541.08 554.04 680.4 378.27 680.4 c 4
 279.45 680.4 191.16 635.85 132.03 565.38 c 5
 132.03 17.8203 l 6
 132.03 8.09961 123.93 0 114.21 0 c 4
 104.489 0 96.3896 8.09961 96.3896 17.8203 c 4
 96.3896 570.239 l 6
 96.3896 571.05 96.3896 571.05 96.3896 571.86 c 4
 96.3896 572.67 96.3896 573.48 96.3896 574.29 c 6
 96.3896 1076.49 l 6
 96.3896 1086.21 104.489 1094.31 114.21 1094.31 c 6
EndSplineSet
Validated: 1
EndChar

StartChar: i
Encoding: 300 105 44
Width: 258
VWidth: 0
Flags: W
HStem: 0 21G<122.31 132.03> 696.04 20G<121.5 132.03> 983.34 35.6406<107.505 146.385> 1058.67 35.6406<107.534 146.359>
VStem: 71.2803 35.6396<1019.23 1058.06> 109.35 34.8301<0.00590762 698.22> 146.61 35.6396<1019.21 1058.08>
LayerCount: 2
Fore
SplineSet
127.17 1094.31 m 0
 157.95 1094.31 182.25 1069.2 182.25 1038.42 c 0
 182.25 1007.64 157.95 983.34 127.17 983.34 c 0
 96.3896 983.34 71.2803 1007.64 71.2803 1038.42 c 0
 71.2803 1069.2 96.3896 1094.31 127.17 1094.31 c 0
127.17 1058.67 m 0
 115.83 1058.67 106.92 1049.76 106.92 1038.42 c 0
 106.92 1027.08 115.83 1018.98 127.17 1018.98 c 0
 138.511 1018.98 146.61 1027.08 146.61 1038.42 c 0
 146.61 1049.76 138.511 1058.67 127.17 1058.67 c 0
126.36 716.04 m 4
 127.17 716.04 l 4
 136.89 716.04 144.18 707.939 144.18 698.22 c 4
 144.18 17.8203 l 6
 144.18 8.09961 136.89 0 127.17 0 c 4
 117.45 0 109.35 8.09961 109.35 17.8203 c 4
 109.35 698.22 l 6
 109.35 707.939 116.64 716.04 126.36 716.04 c 4
EndSplineSet
Validated: 1
EndChar

StartChar: j
Encoding: 301 106 45
Width: 557
VWidth: 0
Flags: W
HStem: -362.07 35.6406<-1.67105 202.438> 696.85 20G<437.06 446.78> 983.34 35.6406<422.283 461.506> 1058.67 35.6406<422.255 461.534>
VStem: 386.03 35.6387<1019.59 1058.42> 424.101 35.6406<-102.031 716.844> 462.169 34.8311<1019.63 1058.39>
LayerCount: 2
Fore
SplineSet
441.919 1094.31 m 4
 472.7 1094.31 497 1070.01 497 1039.23 c 4
 497 1008.45 472.7 983.34 441.919 983.34 c 4
 411.141 983.34 386.03 1008.45 386.03 1039.23 c 4
 386.03 1070.01 411.141 1094.31 441.919 1094.31 c 4
441.919 1058.67 m 4
 430.58 1058.67 421.669 1050.57 421.669 1039.23 c 4
 421.669 1027.89 430.58 1018.98 441.919 1018.98 c 4
 453.261 1018.98 462.169 1027.89 462.169 1039.23 c 4
 462.169 1050.57 453.261 1058.67 441.919 1058.67 c 4
441.919 716.85 m 4
 451.641 716.85 459.741 708.75 459.741 699.03 c 4
 459.741 -4.0498 l 6
 459.741 -201.689 299.36 -362.07 101.72 -362.07 c 4
 6.14062 -362.07 -80.5303 -324.811 -144.52 -264.061 c 4
 -147.759 -260.82 -150.189 -255.15 -150.189 -251.1 c 4
 -150.189 -241.38 -142.09 -233.28 -132.369 -233.28 c 4
 -128.319 -233.28 -123.459 -235.71 -120.22 -238.14 c 4
 -62.709 -293.22 15.8604 -326.43 101.72 -326.43 c 4
 279.919 -326.43 424.101 -182.25 424.101 -4.0498 c 6
 424.101 699.03 l 6
 424.101 708.75 432.2 716.85 441.919 716.85 c 4
EndSplineSet
Validated: 1
EndChar

StartChar: k
Encoding: 302 107 46
Width: 828
VWidth: 0
Flags: W
HStem: 0 21G<109.35 119.07 713.61 723.33> 680.4 35.6396<346.6 481.919> 1074.31 20G<109.35 119.07>
VStem: 96.3896 35.6406<0.00590762 464.939 519.21 1094.3> 700.65 35.6396<0.00590762 459.358>
LayerCount: 2
Fore
SplineSet
114.21 1094.31 m 5
 123.93 1094.31 132.03 1086.21 132.03 1076.49 c 4
 132.03 519.21 l 5
 285.93 699.03 l 6
 286.739 699.84 288.36 701.46 289.17 702.27 c 6
 289.17 703.08 l 5
 554.04 1012.5 l 6
 557.28 1016.55 563.761 1018.98 568.62 1018.98 c 4
 578.34 1018.98 585.63 1010.88 585.63 1001.16 c 4
 585.63 997.11 584.011 991.439 581.58 989.011 c 6
 345.87 714.42 l 5
 356.4 715.23 366.93 716.04 378.27 716.04 c 4
 573.48 716.04 732.239 559.71 736.29 366.12 c 4
 736.29 365.311 l 6
 736.29 17.8203 l 6
 736.29 8.09961 728.189 0 718.47 0 c 4
 708.75 0 700.65 8.09961 700.65 17.8203 c 4
 700.65 365.311 l 6
 696.6 540.27 554.04 680.4 378.27 680.4 c 4
 354.78 680.4 332.1 677.97 310.23 673.11 c 5
 132.03 464.939 l 5
 132.03 17.8203 l 6
 132.03 8.09961 123.93 0 114.21 0 c 4
 104.489 0 96.3896 8.09961 96.3896 17.8203 c 4
 96.3896 468.989 l 6
 96.3896 469.8 96.3896 470.61 96.3896 471.42 c 4
 96.3896 472.23 96.3896 473.04 96.3896 473.85 c 6
 96.3896 1076.49 l 6
 96.3896 1086.21 104.489 1094.31 114.21 1094.31 c 5
EndSplineSet
Validated: 1
EndChar

StartChar: l
Encoding: 303 108 47
Width: 229
VWidth: 0
Flags: W
HStem: 0 21G<109.35 119.07> 1074.31 20G<108.54 119.07>
VStem: 96.3896 35.6406<0.00590762 1076.49>
LayerCount: 2
Fore
SplineSet
113.4 1094.31 m 4
 114.21 1094.31 l 4
 123.93 1094.31 132.03 1086.21 132.03 1076.49 c 4
 132.03 17.8203 l 6
 132.03 8.09961 123.93 0 114.21 0 c 4
 104.489 0 96.3896 8.09961 96.3896 17.8203 c 4
 96.3896 1076.49 l 6
 96.3896 1086.21 103.68 1094.31 113.4 1094.31 c 4
EndSplineSet
Validated: 1
EndChar

StartChar: m
Encoding: 304 109 48
Width: 1281
VWidth: 0
Flags: W
HStem: 0 21G<107.73 117.45 711.99 721.71 1165.59 1175.31> 680.4 35.6396<272.255 480.299 725.983 934.629>
VStem: 94.7695 35.6406<0.00590762 584.501 617.22 716.035> 699.03 35.6396<0.00590762 460.093> 1152.63 35.6396<0.00590762 460.093>
LayerCount: 2
Fore
SplineSet
112.59 716.04 m 5
 122.311 716.04 130.41 708.75 130.41 699.03 c 4
 130.41 698.22 l 6
 130.41 617.22 l 5
 194.4 677.97 281.07 716.04 376.65 716.04 c 4
 571.86 716.04 730.62 559.71 734.67 366.12 c 4
 734.67 17.8203 l 6
 734.67 8.09961 726.57 0 716.85 0 c 4
 707.13 0 699.03 8.09961 699.03 17.8203 c 4
 699.03 365.311 l 6
 699.03 366.12 l 4
 694.98 541.08 552.42 680.4 376.65 680.4 c 4
 277.83 680.4 189.54 635.85 130.41 565.38 c 5
 130.41 17.8203 l 6
 130.41 8.09961 122.311 0 112.59 0 c 4
 102.87 0 94.7695 8.09961 94.7695 17.8203 c 4
 94.7695 569.43 l 6
 94.7695 570.239 94.7695 571.05 94.7695 571.86 c 4
 94.7695 572.67 94.7695 573.48 94.7695 574.29 c 6
 94.7695 698.22 l 6
 94.7695 699.03 l 4
 94.7695 708.75 102.87 716.04 112.59 716.04 c 5
831.061 716.04 m 4
 1026.27 716.04 1184.22 559.71 1188.27 366.12 c 4
 1188.27 17.8203 l 6
 1188.27 8.09961 1180.17 0 1170.45 0 c 4
 1160.73 0 1152.63 8.09961 1152.63 17.8203 c 4
 1152.63 365.311 l 6
 1152.63 366.12 l 4
 1148.58 541.08 1006.83 680.4 831.061 680.4 c 4
 764.64 680.4 702.27 660.15 651.239 626.13 c 4
 648.811 624.511 644.761 622.89 641.52 622.89 c 4
 631.8 622.89 623.7 630.989 623.7 640.71 c 4
 623.7 646.38 626.939 652.86 631.8 656.1 c 4
 688.5 694.17 757.35 716.04 831.061 716.04 c 4
EndSplineSet
Validated: 1
EndChar

StartChar: n
Encoding: 305 110 49
Width: 828
VWidth: 0
Flags: W
HStem: 0 21G<107.73 117.45 711.99 721.71> 680.4 35.6396<272.255 480.299>
VStem: 94.7695 35.6406<0.00590762 699.03> 699.03 35.6396<0.00590762 460.093>
LayerCount: 2
Fore
SplineSet
111.78 716.04 m 4
 112.59 716.04 l 4
 122.311 716.04 130.41 708.75 130.41 699.03 c 4
 130.41 698.22 l 6
 130.41 617.22 l 5
 194.4 677.97 281.07 716.04 376.65 716.04 c 4
 571.86 716.04 730.62 559.71 734.67 366.12 c 4
 734.67 17.8203 l 6
 734.67 8.09961 726.57 0 716.85 0 c 4
 707.13 0 699.03 8.09961 699.03 17.8203 c 4
 699.03 365.311 l 6
 699.03 366.12 l 4
 694.98 541.08 552.42 680.4 376.65 680.4 c 4
 277.83 680.4 189.54 635.85 130.41 565.38 c 5
 130.41 17.8203 l 6
 130.41 8.09961 122.311 0 112.59 0 c 4
 102.87 0 94.7695 8.09961 94.7695 17.8203 c 4
 94.7695 570.239 l 6
 94.7695 571.05 94.7695 571.05 94.7695 571.86 c 4
 94.7695 572.67 94.7695 573.48 94.7695 574.29 c 6
 94.7695 698.22 l 6
 94.7695 699.03 l 4
 94.7695 708.75 102.061 716.04 111.78 716.04 c 4
EndSplineSet
Validated: 1
EndChar

StartChar: o
Encoding: 306 111 50
Width: 884
VWidth: 0
Flags: W
HStem: 0 35.6396<338.213 535.381> 680.4 35.6396<339.42 536.587>
VStem: 79.3799 35.6396<253.261 458.738> 759.78 35.6396<257.301 462.778>
LayerCount: 2
Fore
SplineSet
437.4 716.04 m 5
 438.21 716.04 438.21 716.04 439.02 716.04 c 4
 635.85 715.23 795.42 554.85 795.42 358.02 c 4
 795.42 160.38 635.04 0 437.4 0 c 4
 436.59 0 436.59 0 435.78 0 c 4
 238.95 0.810547 79.3799 161.189 79.3799 358.02 c 4
 79.3799 555.66 239.761 716.04 437.4 716.04 c 5
437.4 680.4 m 4
 259.2 680.4 115.02 536.22 115.02 358.02 c 4
 115.02 179.82 259.2 35.6396 437.4 35.6396 c 4
 615.6 35.6396 759.78 179.82 759.78 358.02 c 4
 759.78 536.22 615.6 680.4 437.4 680.4 c 4
EndSplineSet
Validated: 1
EndChar

StartChar: p
Encoding: 307 112 51
Width: 842
VWidth: 0
Flags: W
HStem: -378.27 21G<107.73 117.45> 0 35.6396<292.371 496.734> 680.4 35.6396<292.371 496.734>
VStem: 94.7695 35.6406<-378.264 117.45 151.268 563.982 598.59 716.034> 717.66 35.6396<257.301 458.738>
LayerCount: 2
Fore
SplineSet
112.59 716.04 m 4
 122.311 716.04 130.41 707.939 130.41 698.22 c 4
 130.41 598.59 l 5
 196.02 670.68 290.79 716.04 396.09 716.04 c 4
 593.73 716.04 753.3 555.66 753.3 358.02 c 4
 753.3 160.38 593.73 0 396.09 0 c 4
 290.79 0 196.02 45.3604 130.41 117.45 c 5
 130.41 -360.45 l 6
 130.41 -370.17 122.311 -378.27 112.59 -378.27 c 4
 102.87 -378.27 94.7695 -370.17 94.7695 -360.45 c 4
 94.7695 166.05 l 6
 94.7695 166.86 94.7695 168.48 94.7695 169.29 c 4
 94.7695 170.1 94.7695 172.53 94.7695 173.34 c 6
 94.7695 542.7 l 6
 94.7695 543.511 94.7695 545.13 94.7695 545.939 c 4
 94.7695 546.75 94.7695 549.18 94.7695 549.989 c 6
 94.7695 698.22 l 6
 94.7695 707.939 102.87 716.04 112.59 716.04 c 4
396.09 680.4 m 4
 285.93 680.4 188.73 625.32 130.41 541.08 c 5
 130.41 174.15 l 5
 188.73 89.9102 285.93 35.6396 396.09 35.6396 c 4
 574.29 35.6396 717.66 179.82 717.66 358.02 c 4
 717.66 536.22 574.29 680.4 396.09 680.4 c 4
EndSplineSet
Validated: 1
EndChar

StartChar: q
Encoding: 308 113 52
Width: 837
VWidth: 0
Flags: W
HStem: -378.27 21G<716.04 725.76> 0 35.6396<336.682 541.119> 680.4 35.6396<336.682 541.119>
VStem: 79.3799 35.6396<257.301 458.738> 703.08 34.8301<-378.264 117.45 151.268 698.22>
LayerCount: 2
Fore
SplineSet
720.09 716.04 m 4
 720.9 716.04 l 4
 730.62 716.04 737.91 707.939 737.91 698.22 c 4
 737.91 547.561 l 5
 737.91 169.29 l 5
 737.91 -360.45 l 6
 737.91 -370.17 730.62 -378.27 720.9 -378.27 c 4
 711.18 -378.27 703.08 -370.17 703.08 -360.45 c 4
 703.08 117.45 l 5
 637.47 45.3604 542.7 0 437.4 0 c 4
 239.761 0 79.3799 160.38 79.3799 358.02 c 4
 79.3799 555.66 239.761 716.04 437.4 716.04 c 4
 542.7 716.04 637.47 670.68 703.08 598.59 c 5
 703.08 698.22 l 6
 703.08 707.939 710.37 716.04 720.09 716.04 c 4
437.4 680.4 m 4
 259.2 680.4 115.02 536.22 115.02 358.02 c 4
 115.02 179.82 259.2 35.6396 437.4 35.6396 c 4
 547.561 35.6396 644.761 89.9102 703.08 174.15 c 5
 703.08 541.08 l 5
 644.761 625.32 547.561 680.4 437.4 680.4 c 4
EndSplineSet
Validated: 1
EndChar

StartChar: r
Encoding: 309 114 53
Width: 801
VWidth: 0
Flags: W
HStem: 0 21G<107.73 117.45> 673.11 35.6396<291.774 501.084> 696.04 20G<107.73 117.45>
VStem: 94.7695 35.6406<0.00590762 556.692 591.3 716.035>
LayerCount: 2
Fore
SplineSet
112.59 716.04 m 5xb0
 122.311 716.04 130.41 708.75 130.41 699.03 c 4
 130.41 698.22 l 6
 130.41 591.3 l 5
 196.02 663.39 289.98 708.75 395.28 708.75 c 4
 444.689 708.75 491.67 698.22 534.6 680.4 c 4
 577.53 662.58 616.41 635.85 648.811 603.45 c 4
 681.21 571.05 707.13 532.98 724.95 490.05 c 4
 725.761 488.43 726.57 484.38 726.57 482.761 c 4
 726.57 473.04 718.47 464.939 708.75 464.939 c 4
 702.27 464.939 694.98 470.61 692.55 476.28 c 4
 676.35 515.16 652.86 549.18 623.7 578.34 c 4
 594.54 607.5 559.71 631.8 520.83 648 c 4
 481.95 664.2 439.83 673.11 395.28 673.11 c 4xd0
 285.12 673.11 188.73 618.03 130.41 533.79 c 5
 130.41 17.8203 l 6
 130.41 8.09961 122.311 0 112.59 0 c 4
 102.87 0 94.7695 8.09961 94.7695 17.8203 c 4
 94.7695 537.03 l 6
 94.7695 537.84 94.7695 538.65 94.7695 539.46 c 4
 94.7695 540.27 94.7695 541.08 94.7695 541.89 c 6
 94.7695 698.22 l 6
 94.7695 699.03 l 4
 94.7695 708.75 102.87 716.04 112.59 716.04 c 5xb0
EndSplineSet
Validated: 1
EndChar

StartChar: s
Encoding: 310 115 54
Width: 710
VWidth: 0
Flags: W
HStem: 0.015625 21G<36.5957 43.6377> 3.23047 32.0098<328.094 498.101> 784.895 32.0107<277.44 366.368>
VStem: 218.473 32.0078<668.816 757.974> 393.326 32.0078<672.475 757.974> 637.99 32.0098<175.218 331.628>
LayerCount: 2
Back
SplineSet
504.97 825.39 m 6
 514.689 825.39 521.979 817.29 521.979 807.57 c 4
 521.979 805.14 521.17 801.09 519.55 798.66 c 6
 471.76 714.42 l 5
 654.819 699.03 799 545.13 799 358.02 c 4
 799 160.38 638.62 0 440.979 0 c 4
 319.479 0 212.56 60.75 147.76 153.9 c 5
 63.5195 8.91016 l 6
 61.0898 3.23926 53.7998 -0.810547 48.1289 -0.810547 c 4
 38.4092 -0.810547 30.3096 7.29004 30.3096 17.0107 c 4
 30.3096 20.25 31.1201 24.2998 32.7393 26.7305 c 6
 129.939 193.59 l 6
 130.75 195.21 131.56 198.45 133.18 200.07 c 6
 424.779 704.7 l 6
 425.59 706.32 426.4 707.939 427.21 709.561 c 6
 488.77 816.48 l 6
 491.201 821.34 498.489 825.39 504.16 825.39 c 4
 504.97 825.39 l 6
451.51 680.4 m 5
 167.201 187.92 l 5
 223.9 96.3896 325.15 35.6396 440.979 35.6396 c 4
 619.18 35.6396 763.359 179.82 763.359 358.02 c 4
 763.359 532.98 624.85 674.73 451.51 680.4 c 5
EndSplineSet
Fore
SplineSet
321.904 816.905 m 0xbc
 378.828 816.905 425.334 770.453 425.334 713.523 c 0
 425.334 696.2 420.908 679.797 413.33 665.408 c 0
 413.105 664.84 412.682 663.942 412.379 663.407 c 0
 412.363 663.376 412.35 663.342 412.33 663.308 c 2
 412.232 663.157 l 2
 412.111 662.936 411.91 662.575 411.781 662.356 c 2
 370.318 586.283 l 1
 565.5 454.31 l 2
 565.74 454.125 566.123 453.813 566.35 453.609 c 0
 566.518 453.482 566.633 453.291 566.801 453.159 c 0
 625.568 406.854 670 336.854 670 256.31 c 0
 670 116.794 556.547 3.23047 417.021 3.23047 c 0
 329.436 3.23047 239.818 43.2256 194.441 111.004 c 0
 192.697 113.353 191.279 117.635 191.279 120.561 c 0
 191.279 129.395 198.449 136.565 207.287 136.565 c 0
 212.279 136.565 218.426 133.093 221 128.81 c 0
 260.643 69.5986 340.303 35.2402 417.021 35.2402 c 0x7c
 539.234 35.2402 637.99 134.091 637.99 256.31 c 0
 637.99 327.4 597.971 388.57 545.943 429.002 c 1
 545.893 429.002 l 2
 545.594 429.224 545.125 429.606 544.844 429.853 c 2
 354.812 557.824 l 1
 55.0703 8.35254 l 2
 52.5566 3.75098 46.2598 0.015625 41.0156 0.015625 c 0
 32.1758 0.015625 25 7.18945 25 16.0293 c 0
 25 18.2871 25.8789 21.7285 26.9609 23.707 c 2
 329.105 577.683 l 1
 264.836 627.297 l 2
 264.582 627.48 264.178 627.797 263.936 627.996 c 0
 263.922 628.012 263.9 628.036 263.885 628.047 c 0
 236.525 646.658 218.473 678.058 218.473 713.523 c 0
 218.473 770.453 264.979 816.905 321.904 816.905 c 0xbc
321.904 784.895 m 0
 282.275 784.895 250.48 753.151 250.48 713.523 c 0
 250.48 688.355 263.375 666.454 282.891 653.704 c 0
 282.947 653.676 283.037 653.632 283.09 653.604 c 0
 283.15 653.566 283.184 653.492 283.242 653.454 c 0
 283.512 653.285 283.936 652.995 284.191 652.805 c 0
 284.248 652.764 284.336 652.694 284.393 652.653 c 0
 284.691 652.432 285.16 652.051 285.443 651.804 c 2
 344.66 606.139 l 1
 384.273 678.763 l 2
 384.301 678.792 384.348 678.834 384.373 678.861 c 0
 384.42 678.94 384.43 679.034 384.473 679.111 c 0
 390.096 689.315 393.326 700.984 393.326 713.523 c 0
 393.326 753.151 361.533 784.895 321.904 784.895 c 0
EndSplineSet
Validated: 524289
EndChar

StartChar: t
Encoding: 311 116 55
Width: 764
VWidth: 0
Flags: W
HStem: 0 35.6396<347.211 551.321> 680.4 35.6396<125.55 352.344>
VStem: 89.9102 35.6396<260.039 680.4 716.04 1078.91>
LayerCount: 2
Fore
SplineSet
106.92 1078.92 m 6
 107.73 1078.92 l 4
 117.45 1078.92 125.55 1070.82 125.55 1061.1 c 4
 125.55 716.04 l 5
 334.53 716.04 l 6
 344.25 716.04 352.35 707.939 352.35 698.22 c 4
 352.35 688.5 344.25 680.4 334.53 680.4 c 4
 125.55 680.4 l 5
 125.55 358.02 l 6
 125.55 179.82 269.73 35.6396 447.93 35.6396 c 4
 533.79 35.6396 612.36 68.8496 669.87 123.93 c 4
 673.11 126.36 677.97 129.6 682.02 129.6 c 4
 691.739 129.6 699.84 121.5 699.84 111.78 c 4
 699.84 107.73 697.41 102.061 694.17 98.8203 c 4
 630.18 38.0703 543.511 0 447.93 0 c 4
 250.29 0 89.9102 160.38 89.9102 358.02 c 6
 89.9102 695.79 l 6
 89.9102 696.6 89.9102 697.41 89.9102 698.22 c 4
 89.9102 699.03 89.9102 700.65 89.9102 701.46 c 6
 89.9102 1061.1 l 6
 89.9102 1070.82 97.2002 1078.92 106.92 1078.92 c 6
EndSplineSet
Validated: 1
EndChar

StartChar: u
Encoding: 312 117 56
Width: 825
VWidth: 0
Flags: W
HStem: 0 35.6396<340.231 548.531> 696.04 20G<98.8198 108.54 703.89 713.61>
VStem: 85.8604 35.6396<256.683 716.034> 690.93 35.6406<0.00590762 98.8203 131.539 716.034>
LayerCount: 2
Fore
SplineSet
103.68 716.04 m 4
 113.4 716.04 121.5 707.939 121.5 698.22 c 4
 121.5 350.73 l 5
 125.55 175.77 268.11 35.6396 443.88 35.6396 c 4
 542.7 35.6396 631.8 80.1895 690.93 150.66 c 5
 690.93 698.22 l 6
 690.93 707.939 699.03 716.04 708.75 716.04 c 4
 718.47 716.04 726.57 707.939 726.57 698.22 c 4
 726.57 145.8 l 6
 726.57 144.989 726.57 144.989 726.57 144.18 c 4
 726.57 143.37 726.57 143.37 726.57 142.561 c 6
 726.57 17.8203 l 6
 726.57 8.09961 718.47 0 708.75 0 c 4
 699.03 0 690.93 8.09961 690.93 17.8203 c 4
 690.93 98.8203 l 5
 626.939 38.0703 539.46 0 443.88 0 c 4
 248.67 0 89.9102 156.33 85.8604 349.92 c 4
 85.8604 350.73 l 6
 85.8604 698.22 l 6
 85.8604 707.939 93.96 716.04 103.68 716.04 c 4
EndSplineSet
Validated: 1
EndChar

StartChar: v
Encoding: 313 118 57
Width: 780
VWidth: 0
Flags: W
HStem: 0 21G<384.75 391.229> 696.04 20G<80.1899 89.1001 687.69 695.79>
VStem: 68.04 34.0205<705.511 716.034> 674.73 34.0195<705.511 716.008>
LayerCount: 2
Fore
SplineSet
85.0498 716.04 m 4
 85.8604 716.04 l 4
 92.3398 716.04 99.6299 711.18 102.061 705.511 c 6
 387.989 61.5605 l 5
 674.73 705.511 l 6
 677.16 711.18 684.45 716.04 690.93 716.04 c 4
 700.65 716.04 708.75 707.939 708.75 698.22 c 4
 708.75 695.79 707.939 692.55 707.13 690.93 c 6
 404.189 10.5303 l 6
 401.761 4.86035 394.47 0 387.989 0 c 4
 381.511 0 374.22 4.86035 371.79 10.5303 c 6
 69.6602 690.93 l 6
 68.8496 692.55 68.04 695.79 68.04 698.22 c 4
 68.04 707.939 75.3301 716.04 85.0498 716.04 c 4
EndSplineSet
Validated: 1
EndChar

StartChar: w
Encoding: 314 119 58
Width: 1082
VWidth: 0
Flags: W
HStem: 0 21G<384.75 391.229 687.69 694.17> 696.04 20G<80.1899 89.1001 383.129 391.229 687.69 695.79 989.82 997.92>
VStem: 68.04 34.0205<705.511 716.034> 370.17 34.0195<705.511 716.008> 674.73 34.0195<705.511 716.008> 976.86 34.0195<705.511 716.008>
LayerCount: 2
Fore
SplineSet
85.0498 716.04 m 4
 85.8604 716.04 l 4
 92.3398 716.04 99.6299 711.18 102.061 705.511 c 6
 387.989 61.5605 l 5
 520.02 358.02 l 5
 371.79 690.93 l 6
 370.98 692.55 370.17 695.79 370.17 698.22 c 4
 370.17 707.939 378.27 716.04 387.989 716.04 c 4
 394.47 716.04 401.761 711.18 404.189 705.511 c 6
 539.46 401.761 l 5
 674.73 705.511 l 6
 677.16 711.18 684.45 716.04 690.93 716.04 c 4
 700.65 716.04 708.75 707.939 708.75 698.22 c 4
 708.75 695.79 707.939 692.55 707.13 690.93 c 6
 558.9 358.02 l 5
 690.93 61.5605 l 5
 976.86 705.511 l 6
 979.29 711.18 986.58 716.04 993.061 716.04 c 4
 1002.78 716.04 1010.88 707.939 1010.88 698.22 c 4
 1010.88 695.79 1010.07 692.55 1009.26 690.93 c 6
 707.13 10.5303 l 6
 704.7 4.86035 697.41 0 690.93 0 c 4
 684.45 0 677.16 4.86035 674.73 10.5303 c 6
 539.46 314.28 l 5
 404.189 10.5303 l 6
 401.761 4.86035 394.47 0 387.989 0 c 4
 381.511 0 374.22 4.86035 371.79 10.5303 c 6
 69.6602 690.93 l 6
 68.8496 692.55 68.04 695.79 68.04 698.22 c 4
 68.04 707.939 75.3301 716.04 85.0498 716.04 c 4
EndSplineSet
Validated: 1
EndChar

StartChar: x
Encoding: 315 120 59
Width: 790
VWidth: 0
Flags: W
HStem: 0 21G<87.48 94.3647 695.385 702.27> 691.989 20G<86.6704 94.77 694.98 702.27>
VStem: 74.5195 640.711<8.09961 21.8701 690.12 703.89>
LayerCount: 2
Fore
SplineSet
91.5303 711.989 m 4
 92.3398 711.989 l 4
 97.2002 711.989 102.87 708.75 106.11 705.511 c 6
 394.47 382.32 l 5
 683.64 705.511 l 6
 686.88 708.75 692.55 711.989 697.41 711.989 c 4
 707.13 711.989 715.23 703.89 715.23 694.17 c 4
 715.23 690.12 712.8 685.261 710.37 682.02 c 6
 418.77 355.59 l 5
 710.37 29.9697 l 6
 712.8 27.54 715.23 21.8701 715.23 17.8203 c 4
 715.23 8.09961 707.13 0 697.41 0 c 4
 693.36 0 686.88 2.42969 683.64 5.66992 c 6
 394.47 328.86 l 5
 106.11 5.66992 l 6
 102.87 2.42969 96.3896 0 92.3398 0 c 4
 82.6201 0 74.5195 8.09961 74.5195 17.8203 c 4
 74.5195 21.8701 76.9502 27.54 79.3799 29.9697 c 6
 370.98 355.59 l 5
 79.3799 682.02 l 6
 76.9502 684.45 74.5195 690.12 74.5195 694.17 c 4
 74.5195 703.89 81.8105 711.18 91.5303 711.989 c 4
EndSplineSet
Validated: 1
EndChar

StartChar: y
Encoding: 316 121 60
Width: 856
VWidth: 0
Flags: W
HStem: 696.04 20G<219.44 228.35 826.939 835.04>
VStem: -149.92 34.0195<-69.6818 -24.3315> 813.979 34.0205<705.511 716.008>
LayerCount: 2
Fore
SplineSet
224.3 716.04 m 4
 225.109 716.04 l 4
 231.59 716.04 238.88 711.18 241.31 705.511 c 6
 527.239 61.5605 l 5
 813.979 705.511 l 6
 816.41 711.18 823.699 716.04 830.18 716.04 c 4
 839.899 716.04 848 707.939 848 698.22 c 4
 848 695.79 847.189 692.55 846.38 690.93 c 6
 545.06 12.96 l 6
 545.06 11.3398 543.44 8.91016 542.63 8.09961 c 6
 508.609 -68.04 l 6
 508.609 -68.8496 l 4
 425.18 -247.86 212.149 -325.62 33.1406 -242.189 c 4
 -53.5303 -201.689 -116.71 -131.22 -149.109 -48.5996 c 4
 -149.92 -46.9805 -149.92 -43.7393 -149.92 -42.1201 c 4
 -149.92 -32.4004 -141.82 -24.2998 -132.101 -24.2998 c 4
 -125.62 -24.2998 -118.33 -29.1602 -115.9 -35.6396 c 4
 -86.7402 -110.16 -30.04 -173.34 47.7197 -209.79 c 4
 208.909 -285.12 400.88 -214.65 476.21 -53.46 c 5
 507.8 17.8203 l 5
 208.909 690.93 l 6
 208.1 692.55 207.29 695.79 207.29 698.22 c 4
 207.29 707.939 214.58 716.04 224.3 716.04 c 4
EndSplineSet
Validated: 33
EndChar

StartChar: z
Encoding: 317 122 61
Width: 861
VWidth: 0
Flags: W
HStem: 0 35.6396<128.79 784.074> 680.4 35.6396<145.806 723.33>
LayerCount: 2
Fore
SplineSet
163.62 716.04 m 4
 766.261 716.04 l 6
 775.98 716.04 784.08 707.939 784.08 698.22 c 4
 784.08 694.17 781.65 688.5 778.41 685.261 c 6
 128.79 35.6396 l 5
 766.261 35.6396 l 6
 775.98 35.6396 784.08 27.54 784.08 17.8203 c 4
 784.08 8.09961 775.98 0 766.261 0 c 4
 85.8604 0 l 6
 76.1396 0 68.04 8.09961 68.04 17.8203 c 4
 68.04 21.8701 69.6602 26.7305 72.9004 29.9697 c 6
 723.33 680.4 l 5
 163.62 680.4 l 6
 153.9 680.4 145.8 688.5 145.8 698.22 c 4
 145.8 707.939 153.9 716.04 163.62 716.04 c 4
EndSplineSet
Validated: 1
EndChar

StartChar: braceleft
Encoding: 318 123 62
Width: 356
VWidth: 0
Flags: W
VStem: 91.5303 35.6396<-34.3326 286.238 642.708 964.743> 121.5 68.04<424.908 465.332 466.155 506.592>
LayerCount: 2
Fore
SplineSet
260.82 1277.37 m 6x80
 270.54 1277.37 277.83 1269.27 277.83 1259.55 c 4
 277.83 1256.31 277.02 1251.45 274.59 1249.02 c 4
 182.25 1125.9 127.17 972 127.17 805.95 c 4x80
 127.17 700.65 148.23 601.02 187.92 510.3 c 4
 188.73 508.68 189.54 505.439 189.54 503.011 c 4
 189.54 499.77 187.92 494.1 185.489 491.67 c 6
 162.811 465.75 l 5
 185.489 439.02 l 6
 187.92 436.59 189.54 430.92 189.54 427.68 c 4x40
 189.54 425.25 188.73 422.011 187.92 420.39 c 4
 148.23 329.67 127.17 230.85 127.17 125.55 c 4
 127.17 -8.91016 162 -135.27 225.18 -243.811 c 4
 226.8 -246.239 228.42 -250.29 228.42 -252.72 c 4
 228.42 -262.439 220.32 -270.54 210.6 -270.54 c 4
 204.93 -270.54 196.83 -266.489 194.4 -261.63 c 4
 128.79 -147.42 91.5303 -15.3896 91.5303 125.55 c 4x80
 91.5303 231.66 112.59 332.1 151.47 424.439 c 5
 125.55 454.41 l 6
 123.12 456.84 121.5 462.511 121.5 465.75 c 4x40
 121.5 468.989 123.93 474.66 126.36 477.09 c 6
 151.47 507.061 l 5
 112.59 599.4 91.5303 699.84 91.5303 805.95 c 4
 91.5303 980.1 149.04 1140.48 246.239 1270.08 c 4
 249.48 1274.13 255.15 1277.37 260.011 1277.37 c 4
 260.82 1277.37 l 6x80
EndSplineSet
Validated: 1
EndChar

StartChar: braceright
Encoding: 319 125 63
Width: 356
VWidth: 0
Flags: W
VStem: 166.05 68.04<439.475 465.332 466.155 506.592> 229.23 35.6396<-34.3326 283.939 647.349 964.743>
LayerCount: 2
Fore
SplineSet
96.3896 1277.37 m 6x40
 101.25 1277.37 107.73 1274.13 110.16 1270.08 c 4
 207.36 1140.48 264.87 980.1 264.87 805.95 c 4x40
 264.87 699.84 243.811 599.4 204.93 507.061 c 5
 230.04 477.09 l 6
 232.47 474.66 234.09 468.989 234.09 465.75 c 4x80
 234.09 462.511 232.47 456.03 230.04 453.6 c 6
 204.93 424.439 l 5
 243.811 332.1 264.87 231.66 264.87 125.55 c 4
 264.87 -15.3896 226.8 -147.42 161.189 -261.63 c 4
 157.95 -266.489 151.47 -270.54 145.8 -270.54 c 4
 136.08 -270.54 127.98 -262.439 127.98 -252.72 c 4
 127.98 -250.29 128.79 -246.239 130.41 -243.811 c 4
 193.59 -135.27 229.23 -8.91016 229.23 125.55 c 4x40
 229.23 230.85 207.36 329.67 167.67 420.39 c 4
 166.86 422.011 166.05 425.25 166.05 427.68 c 4
 166.05 430.92 168.48 436.59 170.91 439.02 c 6
 193.59 465.75 l 5
 170.91 491.67 l 6
 168.48 494.1 166.05 499.77 166.05 503.011 c 4x80
 166.05 505.439 166.86 508.68 167.67 510.3 c 4
 207.36 601.02 229.23 700.65 229.23 805.95 c 4
 229.23 972 174.15 1125.9 81.8105 1249.02 c 4
 79.3799 1251.45 77.7607 1256.31 77.7607 1259.55 c 4
 77.7607 1269.27 85.8604 1277.37 95.5801 1277.37 c 4
 96.3896 1277.37 l 6x40
EndSplineSet
Validated: 1
EndChar

StartChar: asciitilde
Encoding: 320 126 64
Width: 664
VWidth: 0
Flags: W
HStem: 484.38 202.5
VStem: 94.7695 34.8301<515.279 616.945> 315.9 34.0195<555.388 616.17> 536.22 34.0195<554.795 655.981>
LayerCount: 2
Fore
SplineSet
191.97 686.88 m 4
 261.63 703.89 331.29 660.96 349.11 592.11 c 4
 349.11 591.3 349.92 591.3 349.92 590.489 c 4
 349.92 589.68 l 4
 362.07 537.84 413.1 507.061 464.939 519.21 c 4
 516.78 531.36 548.37 582.39 536.22 634.23 c 4
 536.22 635.04 l 4
 533.79 644.761 539.46 653.67 549.18 656.1 c 4
 558.9 658.53 567.811 652.86 570.239 643.14 c 4
 587.25 572.67 544.32 501.39 473.85 484.38 c 4
 404.189 467.37 333.72 511.11 315.9 579.96 c 4
 315.9 580.77 315.09 580.77 315.09 581.58 c 4
 302.939 633.42 251.91 664.2 200.07 652.05 c 4
 148.23 639.9 117.45 588.87 129.6 537.03 c 4
 129.6 536.22 l 4
 132.03 526.5 126.36 517.59 116.64 515.16 c 4
 106.92 512.73 97.2002 518.4 94.7695 528.12 c 4
 94.7695 528.93 l 4
 77.7607 599.4 121.5 669.87 191.97 686.88 c 4
EndSplineSet
Validated: 33
EndChar

StartChar: bar
Encoding: 321 124 65
Width: 229
VWidth: 0
Flags: W
HStem: 1074.31 20G<110.16 120.69>
VStem: 98.0107 35.6396<-221.934 1094.3>
LayerCount: 2
Fore
SplineSet
115.02 1094.31 m 0
 115.83 1094.31 l 0
 125.55 1094.31 133.65 1086.21 133.65 1076.49 c 0
 133.65 -204.12 l 2
 133.65 -213.84 125.55 -221.939 115.83 -221.939 c 0
 106.11 -221.939 98.0107 -213.84 98.0107 -204.12 c 0
 98.0107 1076.49 l 2
 98.0107 1086.21 105.3 1094.31 115.02 1094.31 c 0
EndSplineSet
Validated: 1
EndChar

StartChar: plus
Encoding: 322 43 66
Width: 738
VWidth: 0
Flags: W
HStem: 379.89 35.6406<91.5362 352.35 387.989 648.805>
VStem: 352.35 35.6396<118.267 379.89 415.53 676.344>
LayerCount: 2
Fore
SplineSet
370.17 676.35 m 4
 379.89 676.35 387.989 668.25 387.989 658.53 c 4
 387.989 415.53 l 5
 630.989 415.53 l 6
 640.71 415.53 648.811 407.43 648.811 397.71 c 4
 648.811 387.989 640.71 379.89 630.989 379.89 c 4
 387.989 379.89 l 5
 387.989 136.89 l 6
 387.989 136.08 l 4
 387.989 126.36 379.89 118.261 370.17 118.261 c 4
 360.45 118.261 352.35 126.36 352.35 136.08 c 4
 352.35 136.89 l 6
 352.35 379.89 l 5
 109.35 379.89 l 6
 99.6299 379.89 91.5303 387.989 91.5303 397.71 c 4
 91.5303 407.43 99.6299 415.53 109.35 415.53 c 4
 352.35 415.53 l 5
 352.35 658.53 l 6
 352.35 668.25 360.45 676.35 370.17 676.35 c 4
EndSplineSet
Validated: 1
EndChar

StartChar: hyphen
Encoding: 323 45 67
Width: 758
VWidth: 0
Flags: W
HStem: 379.89 35.6406<98.0166 663.384>
VStem: 98.0107 565.379<379.896 415.524>
LayerCount: 2
Fore
SplineSet
115.83 415.53 m 4
 644.761 415.53 l 6
 645.57 415.53 l 4
 655.29 415.53 663.39 407.43 663.39 397.71 c 4
 663.39 387.989 655.29 379.89 645.57 379.89 c 4
 644.761 379.89 l 6
 115.83 379.89 l 6
 106.11 379.89 98.0107 387.989 98.0107 397.71 c 4
 98.0107 407.43 106.11 415.53 115.83 415.53 c 4
EndSplineSet
Validated: 1
EndChar

StartChar: at
Encoding: 324 64 68
Width: 899
VWidth: 0
Flags: W
HStem: 0 35.6396<348.831 554.357> 202.5 35.6396<676.304 756.6> 276.21 35.6396<368.461 536.138> 734.67 35.6406<368.461 536.138> 1058.67 34.8301<348.831 550.237>
VStem: 91.5303 35.6396<260.039 834.207> 204.93 35.6406<439.741 606.78> 624.511 35.6396<254.845 346.68 379.251 666.503 699.84 770.305> 771.93 34.8311<254.845 834.207>
LayerCount: 2
Fore
SplineSet
449.55 1093.5 m 0
 647.189 1093.5 806.761 933.93 806.761 736.29 c 2
 806.761 294.03 l 2
 806.761 293.22 806.761 292.41 806.761 291.6 c 0
 805.14 242.189 765.45 202.5 716.04 202.5 c 0
 666.63 202.5 625.32 242.189 624.511 291.6 c 0
 624.511 292.41 624.511 293.22 624.511 294.03 c 2
 624.511 346.68 l 1
 579.96 302.939 519.21 276.21 451.98 276.21 c 0
 315.9 276.21 204.93 387.18 204.93 523.261 c 0
 204.93 659.34 315.9 770.311 451.98 770.311 c 0
 519.21 770.311 579.96 743.58 624.511 699.84 c 1
 624.511 752.489 l 2
 624.511 762.21 632.61 770.311 642.33 770.311 c 0
 652.05 770.311 660.15 762.21 660.15 752.489 c 2
 660.15 652.86 l 2
 660.15 652.05 660.15 651.239 660.15 650.43 c 0
 660.15 649.62 660.15 648 660.15 647.189 c 2
 660.15 400.14 l 2
 660.15 399.33 660.15 396.9 660.15 396.09 c 0
 660.15 395.28 660.15 393.66 660.15 392.85 c 2
 660.15 294.03 l 2
 660.15 263.25 685.261 238.14 716.04 238.14 c 0
 746.82 238.14 771.93 263.25 771.93 294.03 c 2
 771.93 736.29 l 2
 771.93 914.489 627.75 1058.67 449.55 1058.67 c 0
 271.35 1058.67 127.17 914.489 127.17 736.29 c 2
 127.17 358.02 l 2
 127.17 179.82 271.35 35.6396 449.55 35.6396 c 0
 538.65 35.6396 618.84 71.2803 677.16 129.6 c 0
 679.59 132.03 685.261 134.46 689.311 134.46 c 0
 699.03 134.46 707.13 126.36 707.13 116.64 c 0
 707.13 112.59 704.7 106.92 702.27 104.489 c 0
 637.47 39.6895 548.37 0 449.55 0 c 0
 251.91 0 91.5303 160.38 91.5303 358.02 c 2
 91.5303 736.29 l 2
 91.5303 933.93 251.91 1093.5 449.55 1093.5 c 0
451.98 734.67 m 0
 335.34 734.67 240.57 639.9 240.57 523.261 c 0
 240.57 406.62 335.34 311.85 451.98 311.85 c 0
 523.261 311.85 586.439 346.68 624.511 400.95 c 1
 624.511 644.761 l 1
 586.439 699.03 523.261 734.67 451.98 734.67 c 0
EndSplineSet
Validated: 1
EndChar

StartChar: ampersand
Encoding: 325 38 69
Width: 1000
VWidth: 0
Flags: W
HStem: 0 35.6396<344.813 549.699> 680.4 35.6396<337.409 548.426> 1058.67 34.8301<356.256 535.932>
VStem: 88.29 34.8301<257.301 461.086> 163.62 35.6406<719.032 903.812> 692.55 35.6396<720.427 902.179>
LayerCount: 2
Fore
SplineSet
445.5 1093.5 m 5
 601.02 1093.5 728.189 967.14 728.189 811.62 c 4
 728.189 739.53 700.65 673.11 656.1 622.89 c 4
 652.86 619.65 647.189 617.22 643.14 617.22 c 4
 639.9 617.22 635.04 618.84 632.61 620.46 c 4
 579.96 657.72 515.16 680.4 445.5 680.4 c 4
 410.67 680.4 377.46 675.54 345.87 665.011 c 4
 344.25 664.2 341.011 663.39 339.39 663.39 c 4
 329.67 663.39 321.57 671.489 321.57 681.21 c 4
 321.57 688.5 328.05 696.6 335.34 698.22 c 4
 370.17 709.561 406.62 716.04 445.5 716.04 c 4
 516.78 716.04 584.011 694.17 639.9 658.53 c 5
 673.11 700.65 692.55 754.11 692.55 811.62 c 4
 692.55 948.511 582.39 1058.67 445.5 1058.67 c 4
 418.77 1058.67 393.66 1054.62 369.36 1046.52 c 4
 345.061 1038.42 323.189 1027.08 302.939 1012.5 c 4
 239.761 967.95 199.261 895.05 199.261 811.62 c 4
 199.261 777.6 205.739 745.2 217.89 716.04 c 4
 227.61 694.98 251.91 666.63 272.16 643.95 c 4
 292.41 621.27 310.23 605.07 310.23 605.07 c 6
 729.811 204.12 l 5
 751.68 240.57 782.46 294.84 810 345.061 c 4
 848.88 415.53 883.71 479.52 883.71 479.52 c 6
 886.14 485.189 893.43 490.05 899.91 490.05 c 4
 909.63 490.05 917.73 481.95 917.73 472.23 c 4
 917.73 469.8 916.92 465.75 915.3 463.32 c 6
 915.3 463.32 881.28 399.33 841.59 328.05 c 4
 811.62 273.78 780.03 217.08 756.54 179.011 c 5
 912.061 30.7803 l 6
 915.3 27.54 917.73 21.8701 917.73 17.8203 c 4
 917.73 8.09961 909.63 0 899.91 0 c 4
 895.86 0 890.189 1.62012 886.95 4.86035 c 6
 736.29 149.04 l 5
 671.489 59.1299 565.38 0 445.5 0 c 4
 247.86 0 88.29 160.38 88.29 358.02 c 4
 88.29 473.04 142.561 575.1 226.8 640.71 c 5
 210.6 659.34 196.02 680.4 186.3 700.65 c 4
 185.489 701.46 l 4
 170.91 735.48 163.62 772.739 163.62 811.62 c 4
 163.62 905.58 209.79 989.82 281.07 1040.85 c 4
 281.07 1040.85 281.07 1041.66 281.88 1041.66 c 4
 283.5 1042.47 l 4
 306.18 1058.67 331.29 1070.82 358.83 1079.73 c 4
 386.37 1088.64 414.72 1093.5 445.5 1093.5 c 5
251.1 614.79 m 5
 174.15 555.66 123.12 462.511 123.12 358.02 c 4
 123.12 179.82 267.3 35.6396 445.5 35.6396 c 4
 553.23 35.6396 649.62 88.29 707.939 170.1 c 4
 708.75 170.91 709.561 173.34 710.37 174.15 c 6
 285.93 579.15 l 5
 285.93 579.15 269.73 594.54 251.1 614.79 c 5
EndSplineSet
Validated: 1
EndChar

StartChar: slash
Encoding: 326 47 70
Width: 872
VWidth: 0
Flags: W
VStem: 77.7607 34.0195<-254.313 -244.62> 759.78 34.0195<1206.9 1217.42>
LayerCount: 2
Fore
SplineSet
776.79 1217.43 m 6
 786.511 1217.43 793.8 1209.33 793.8 1199.61 c 4
 793.8 1197.18 792.989 1194.75 792.18 1192.32 c 6
 111.78 -244.62 l 6
 109.35 -250.29 102.061 -254.34 95.5801 -254.34 c 4
 85.8604 -254.34 77.7607 -246.239 77.7607 -236.52 c 4
 77.7607 -234.09 78.5703 -230.85 79.3799 -229.23 c 6
 759.78 1206.9 l 6
 762.21 1212.57 769.5 1217.43 775.98 1217.43 c 4
 776.79 1217.43 l 6
EndSplineSet
Validated: 1
EndChar

StartChar: backslash
Encoding: 327 92 71
Width: 872
VWidth: 0
Flags: W
VStem: 77.7607 34.0195<1207.71 1217.4> 759.78 34.0195<-254.334 -243.811>
LayerCount: 2
Fore
SplineSet
776.79 -254.34 m 6
 786.511 -254.34 793.8 -246.239 793.8 -236.52 c 4
 793.8 -234.09 792.989 -230.85 792.18 -228.42 c 6
 111.78 1207.71 l 6
 109.35 1213.38 102.061 1217.43 95.5801 1217.43 c 4
 85.8604 1217.43 77.7607 1209.33 77.7607 1199.61 c 4
 77.7607 1197.18 78.5703 1193.94 79.3799 1192.32 c 6
 759.78 -243.811 l 6
 762.21 -249.48 769.5 -254.34 775.98 -254.34 c 4
 776.79 -254.34 l 6
EndSplineSet
Validated: 9
EndChar

StartChar: percent
Encoding: 328 37 72
Width: 878
VWidth: 0
Flags: W
HStem: 0 33.21<536.691 644.089> 226.8 33.2109<537.67 643.12> 831.87 33.21<234.562 341.96> 1058.67 33.21<235.54 340.991>
VStem: 157.95 33.21<908.84 1014.29> 384.75 33.21<907.87 1015.27> 460.08 33.21<76.9695 182.42> 686.88 33.21<76.0001 183.398>
LayerCount: 2
Fore
SplineSet
778.41 1092.69 m 5
 779.22 1092.69 l 4
 788.939 1092.69 797.04 1084.59 797.04 1074.87 c 4
 797.04 1071.63 796.23 1067.58 794.61 1065.15 c 6
 114.21 7.29004 l 6
 110.97 2.42969 104.489 -0.810547 98.8203 -0.810547 c 4
 89.0996 -0.810547 81 6.48047 81 16.2002 c 4
 81 19.4395 82.6201 23.4893 84.2393 25.9199 c 6
 764.64 1084.59 l 6
 767.07 1088.64 773.55 1092.69 778.41 1092.69 c 5
288.36 1091.88 m 4
 359.64 1091.88 417.96 1032.75 417.96 961.47 c 4
 417.96 890.189 359.64 831.87 288.36 831.87 c 4
 217.08 831.87 157.95 890.189 157.95 961.47 c 4
 157.95 1032.75 217.08 1091.88 288.36 1091.88 c 4
288.36 1058.67 m 4
 234.9 1058.67 191.16 1014.93 191.16 961.47 c 4
 191.16 908.011 234.9 865.08 288.36 865.08 c 4
 341.82 865.08 384.75 908.011 384.75 961.47 c 4
 384.75 1014.93 341.82 1058.67 288.36 1058.67 c 4
590.489 260.011 m 4
 661.77 260.011 720.09 200.88 720.09 129.6 c 4
 720.09 58.3203 661.77 0 590.489 0 c 4
 519.21 0 460.08 58.3203 460.08 129.6 c 4
 460.08 200.88 519.21 260.011 590.489 260.011 c 4
590.489 226.8 m 4
 537.03 226.8 493.29 183.061 493.29 129.6 c 4
 493.29 76.1396 537.03 33.21 590.489 33.21 c 4
 643.95 33.21 686.88 76.1396 686.88 129.6 c 4
 686.88 183.061 643.95 226.8 590.489 226.8 c 4
EndSplineSet
Validated: 1
EndChar

StartChar: less
Encoding: 329 60 73
Width: 667
VWidth: 0
Flags: W
HStem: 75.3301 640.71<558.09 571.05>
VStem: 89.9102 489.24
LayerCount: 2
Fore
SplineSet
560.52 716.04 m 1
 561.33 716.04 l 0
 571.05 716.04 579.15 707.939 579.15 698.22 c 0
 579.15 692.55 575.91 686.88 571.05 683.64 c 2
 139.32 396.09 l 1
 571.05 107.73 l 2
 575.91 104.489 579.15 98.8203 579.15 93.1504 c 0
 579.15 83.4297 571.05 75.3301 561.33 75.3301 c 0
 558.09 75.3301 553.23 76.9502 550.8 78.5703 c 2
 97.2002 380.7 l 2
 93.1504 383.939 89.9102 391.23 89.9102 396.09 c 0
 89.9102 400.95 93.1504 407.43 97.2002 410.67 c 2
 550.8 712.8 l 2
 553.23 714.42 557.28 716.04 560.52 716.04 c 1
EndSplineSet
Validated: 1
EndChar

StartChar: greater
Encoding: 330 62 74
Width: 667
VWidth: 0
Flags: W
HStem: 75.3301 640.71<98.0107 110.97>
VStem: 89.9102 489.24
LayerCount: 2
Fore
SplineSet
107.73 716.04 m 4
 110.97 716.04 115.02 714.42 117.45 712.8 c 6
 571.05 410.67 l 6
 575.1 407.43 579.15 400.95 579.15 396.09 c 4
 579.15 391.23 575.1 383.939 571.05 380.7 c 6
 117.45 78.5703 l 6
 115.02 76.9502 110.97 75.3301 107.73 75.3301 c 4
 98.0107 75.3301 89.9102 83.4297 89.9102 93.1504 c 4
 89.9102 98.8203 93.1504 104.489 98.0107 107.73 c 6
 529.739 396.09 l 5
 98.0107 683.64 l 6
 93.1504 686.88 89.9102 692.55 89.9102 698.22 c 4
 89.9102 707.939 98.0107 716.04 107.73 716.04 c 4
EndSplineSet
Validated: 1
EndChar

StartChar: question
Encoding: 331 63 75
Width: 732
VWidth: 0
Flags: W
HStem: 0 35.6396<379.761 418.088> 75.3301 35.6396<379.761 418.088>
VStem: 343.439 35.6406<36.0277 75.2154> 380.7 34.0195<229.262 240.57> 418.77 35.6406<36.0277 75.2154>
LayerCount: 2
Fore
SplineSet
366.93 1087.83 m 5
 370.17 1087.83 373.41 1087.83 376.65 1087.83 c 4
 496.53 1083.78 605.88 1001.97 639.09 879.66 c 4
 656.1 817.29 651.239 754.92 628.561 699.03 c 4
 627.75 698.22 l 6
 414.72 240.57 l 6
 412.29 234.09 405 229.23 398.52 229.23 c 4
 388.8 229.23 380.7 237.33 380.7 247.05 c 4
 380.7 249.48 382.32 252.72 383.13 255.15 c 6
 595.35 712.8 l 5
 614.79 761.4 619.65 816.48 605.07 870.75 c 4
 569.43 1002.78 434.16 1078.92 302.13 1043.28 c 4
 170.1 1007.64 93.1504 872.37 128.79 740.34 c 4
 164.43 608.311 299.7 531.36 431.73 567 c 4
 433.35 567 434.97 567.811 436.59 567.811 c 4
 446.311 567.811 454.41 559.71 454.41 549.989 c 4
 454.41 542.7 448.739 534.6 441.45 532.98 c 4
 291.6 491.67 136.08 581.58 94.7695 731.43 c 4
 53.46 881.28 142.561 1036.8 292.41 1078.11 c 4
 316.71 1084.59 342.63 1087.83 366.93 1087.83 c 5
398.52 110.97 m 4
 399.33 110.97 l 4
 429.3 110.97 454.41 85.0498 454.41 55.0801 c 4
 454.41 25.1104 429.3 0 399.33 0 c 4
 398.52 0 l 4
 368.55 0 343.439 25.1104 343.439 55.0801 c 4
 343.439 85.0498 368.55 110.97 398.52 110.97 c 4
398.52 75.3301 m 4
 387.18 75.3301 379.08 66.4199 379.08 55.0801 c 4
 379.08 43.7393 387.18 35.6396 398.52 35.6396 c 4
 399.33 35.6396 l 4
 410.67 35.6396 418.77 43.7393 418.77 55.0801 c 4
 418.77 66.4199 410.67 75.3301 399.33 75.3301 c 4
 398.52 75.3301 l 4
EndSplineSet
Validated: 33
EndChar

StartChar: exclam
Encoding: 332 33 76
Width: 281
VWidth: 0
Flags: W
HStem: 0 33.21<122.093 162.216> 75.3301 33.21<122.298 161.506>
VStem: 88.29 33.21<33.6261 74.9138> 123.93 35.6406<221.136 937.975> 162.811 33.209<33.6261 74.9138>
LayerCount: 2
Fore
SplineSet
141.75 937.98 m 4
 151.47 937.98 159.57 929.88 159.57 920.16 c 4
 159.57 919.35 l 6
 159.57 238.95 l 6
 159.57 229.23 151.47 221.13 141.75 221.13 c 4
 132.03 221.13 123.93 229.23 123.93 238.95 c 6
 123.93 919.35 l 6
 123.93 920.16 l 4
 123.93 929.88 132.03 937.98 141.75 937.98 c 4
141.75 108.54 m 4
 142.561 108.54 142.561 108.54 143.37 108.54 c 4
 172.53 107.73 196.02 83.4297 196.02 54.2695 c 4
 196.02 25.1104 173.34 0.810547 144.18 0 c 4
 142.561 0 l 4
 141.75 0 l 4
 140.13 0 l 4
 110.97 0.810547 88.29 25.1104 88.29 54.2695 c 4
 88.29 83.4297 112.59 107.73 141.75 108.54 c 4
141.75 75.3301 m 4
 130.41 75.3301 121.5 65.6104 121.5 54.2695 c 4
 121.5 42.9297 130.41 33.21 141.75 33.21 c 4
 142.561 33.21 l 4
 153.9 33.21 162.811 42.9297 162.811 54.2695 c 4
 162.811 65.6104 153.9 75.3301 142.561 75.3301 c 4
 141.75 75.3301 l 4
EndSplineSet
Validated: 1
EndChar

StartChar: guillemotleft
Encoding: 333 171 77
Width: 818
VWidth: 0
Flags: W
HStem: 76.1396 639.9<481.95 494.91>
VStem: 96.3896 633.421
LayerCount: 2
Fore
SplineSet
485.189 716.04 m 5
 494.91 716.04 503.011 707.939 503.011 698.22 c 4
 503.011 693.36 500.58 687.689 496.53 684.45 c 6
 136.08 396.09 l 5
 496.53 106.92 l 6
 499.77 103.68 503.011 98.8203 503.011 93.96 c 4
 503.011 84.2393 494.91 76.1396 485.189 76.1396 c 4
 481.95 76.1396 476.28 77.7607 473.85 79.3799 c 6
 96.3896 381.511 l 6
 92.3398 384.75 89.9102 391.23 89.9102 396.09 c 4
 89.9102 400.95 92.3398 406.62 96.3896 409.86 c 6
 473.85 711.989 l 6
 476.28 714.42 481.95 716.04 485.189 716.04 c 5
711.989 716.04 m 5
 721.71 716.04 729.811 707.939 729.811 698.22 c 4
 729.811 693.36 727.38 687.689 723.33 684.45 c 6
 362.88 396.09 l 5
 723.33 106.92 l 6
 727.38 103.68 729.811 98.0107 729.811 93.1504 c 4
 729.811 83.4297 721.71 75.3301 711.989 75.3301 c 4
 708.75 75.3301 703.08 76.9502 700.65 79.3799 c 6
 323.189 381.511 l 6
 319.14 384.75 316.71 391.23 316.71 396.09 c 4
 316.71 400.95 319.14 406.62 323.189 409.86 c 6
 700.65 711.989 l 6
 703.08 714.42 708.75 716.04 711.989 716.04 c 5
EndSplineSet
Validated: 1
EndChar

StartChar: guillemotright
Encoding: 334 187 78
Width: 818
VWidth: 0
Flags: W
HStem: 75.3301 640.71<98.0107 110.97>
VStem: 89.9102 633.42
LayerCount: 2
Fore
SplineSet
106.92 716.04 m 4
 107.73 716.04 l 4
 110.97 716.04 115.83 714.42 118.261 711.989 c 6
 496.53 409.86 l 6
 500.58 406.62 503.011 400.95 503.011 396.09 c 4
 503.011 391.23 500.58 384.75 496.53 381.511 c 6
 118.261 79.3799 l 6
 115.83 76.9502 110.97 75.3301 107.73 75.3301 c 4
 98.0107 75.3301 89.9102 83.4297 89.9102 93.1504 c 4
 89.9102 98.0107 92.3398 103.68 96.3896 106.92 c 6
 456.84 396.09 l 5
 96.3896 684.45 l 6
 92.3398 687.689 89.9102 693.36 89.9102 698.22 c 4
 89.9102 707.939 97.2002 716.04 106.92 716.04 c 4
333.72 716.04 m 4
 334.53 716.04 l 4
 337.77 716.04 342.63 714.42 345.061 711.989 c 6
 723.33 409.86 l 6
 727.38 406.62 729.811 400.95 729.811 396.09 c 4
 729.811 391.23 727.38 384.75 723.33 381.511 c 6
 345.061 79.3799 l 6
 342.63 76.9502 337.77 75.3301 334.53 75.3301 c 4
 324.811 75.3301 316.71 83.4297 316.71 93.1504 c 4
 316.71 98.0107 319.14 103.68 323.189 106.92 c 6
 683.64 396.09 l 5
 323.189 684.45 l 6
 319.14 687.689 316.71 693.36 316.71 698.22 c 4
 316.71 707.939 324 716.04 333.72 716.04 c 4
EndSplineSet
Validated: 1
EndChar

StartChar: colon
Encoding: 335 58 79
Width: 302
VWidth: 0
Flags: W
HStem: 302.939 35.6406<132.255 171.134> 378.27 35.6406<132.282 171.106> 605.07 35.6396<132.255 171.134> 680.4 35.6396<132.282 171.106>
VStem: 96.3896 35.6406<338.805 377.684 640.936 679.815> 171.72 35.6406<338.831 377.656 640.962 679.786>
LayerCount: 2
Fore
SplineSet
151.47 716.04 m 4
 182.25 716.04 207.36 690.93 207.36 660.15 c 4
 207.36 629.37 182.25 605.07 151.47 605.07 c 4
 120.689 605.07 96.3896 629.37 96.3896 660.15 c 4
 96.3896 690.93 120.689 716.04 151.47 716.04 c 4
151.47 680.4 m 4
 140.13 680.4 132.03 671.489 132.03 660.15 c 4
 132.03 648.811 140.13 640.71 151.47 640.71 c 4
 162.811 640.71 171.72 648.811 171.72 660.15 c 4
 171.72 671.489 162.811 680.4 151.47 680.4 c 4
151.47 413.91 m 4
 182.25 413.91 207.36 388.8 207.36 358.02 c 4
 207.36 327.239 182.25 302.939 151.47 302.939 c 4
 120.689 302.939 96.3896 327.239 96.3896 358.02 c 4
 96.3896 388.8 120.689 413.91 151.47 413.91 c 4
151.47 378.27 m 4
 140.13 378.27 132.03 369.36 132.03 358.02 c 4
 132.03 346.68 140.13 338.58 151.47 338.58 c 4
 162.811 338.58 171.72 346.68 171.72 358.02 c 4
 171.72 369.36 162.811 378.27 151.47 378.27 c 4
EndSplineSet
Validated: 1
EndChar

StartChar: semicolon
Encoding: 336 59 80
Width: 304
VWidth: 0
Flags: W
HStem: 127.98 34.8301<135.553 174.311> 354.78 35.6396<135.495 174.374> 430.11 35.6396<135.521 174.346>
VStem: 99.6299 35.6396<-78.4316 -69.6602 88.1384 127.345 390.646 429.525> 174.96 35.6396<96.3896 97.2002 98.1626 126.813 390.672 429.496>
LayerCount: 2
Fore
SplineSet
154.71 465.75 m 4
 185.489 465.75 210.6 440.64 210.6 409.86 c 4
 210.6 379.08 185.489 354.78 154.71 354.78 c 4
 123.93 354.78 99.6299 379.08 99.6299 409.86 c 4
 99.6299 440.64 123.93 465.75 154.71 465.75 c 4
154.71 430.11 m 4
 143.37 430.11 135.27 421.2 135.27 409.86 c 4
 135.27 398.52 143.37 390.42 154.71 390.42 c 4
 166.05 390.42 174.96 398.52 174.96 409.86 c 4
 174.96 421.2 166.05 430.11 154.71 430.11 c 4
154.71 162.811 m 4
 185.489 162.811 210.6 138.511 210.6 107.73 c 4
 210.6 98.8203 208.98 90.7197 204.93 83.4297 c 4
 204.93 82.6201 204.12 82.6201 204.12 81.8105 c 4
 203.311 81 l 6
 203.311 80.1895 l 5
 127.98 -69.6602 l 6
 125.55 -75.3301 118.261 -79.3799 112.59 -79.3799 c 4
 102.87 -79.3799 94.7695 -71.2803 94.7695 -61.5605 c 4
 94.7695 -59.1299 95.5801 -55.8896 96.3896 -53.46 c 6
 149.85 52.6504 l 5
 121.5 55.0801 99.6299 79.3799 99.6299 107.73 c 4
 99.6299 138.511 123.93 162.811 154.71 162.811 c 4
154.71 127.98 m 6
 143.37 127.98 135.27 119.07 135.27 107.73 c 4
 135.27 96.3896 143.37 87.4805 154.71 87.4805 c 4
 155.52 87.4805 l 4
 158.761 87.4805 162.811 85.8604 165.239 84.2393 c 5
 171.72 96.3896 l 6
 171.72 97.2002 l 4
 172.53 98.0107 l 4
 174.15 101.25 174.96 104.489 174.96 107.73 c 4
 174.96 119.07 166.05 127.98 154.71 127.98 c 6
EndSplineSet
Validated: 1
EndChar

StartChar: comma
Encoding: 337 44 81
Width: 299
VWidth: 0
Flags: W
HStem: 74.5195 35.6406<133.876 172.754>
VStem: 98.0107 35.6396<-131.082 -122.311 35.4882 74.2943> 170.1 38.8809<43.7393 74.3382>
LayerCount: 2
Fore
SplineSet
153.09 110.16 m 6
 183.87 110.16 208.98 85.8604 208.98 55.0801 c 4
 208.98 46.1699 206.55 37.2607 202.5 29.9697 c 4
 202.5 29.1602 202.5 29.9697 202.5 29.1602 c 4
 201.689 28.3496 l 6
 201.689 27.54 l 5
 126.36 -122.311 l 6
 123.93 -127.98 116.64 -132.03 110.97 -132.03 c 4
 101.25 -132.03 93.1504 -123.93 93.1504 -114.21 c 4
 93.1504 -111.78 93.96 -109.35 94.7695 -106.92 c 6
 148.23 0 l 5
 119.88 2.42969 98.0107 26.7305 98.0107 55.0801 c 4
 98.0107 85.8604 122.311 110.16 153.09 110.16 c 6
153.09 74.5195 m 4
 141.75 74.5195 133.65 66.4199 133.65 55.0801 c 4
 133.65 43.7393 141.75 34.8301 153.09 34.8301 c 4
 156.33 34.8301 161.189 33.21 163.62 31.5898 c 5
 170.1 43.7393 l 6
 170.1 44.5498 l 4
 170.91 45.3604 l 4
 172.53 48.5996 173.34 51.8398 173.34 55.0801 c 4
 173.34 66.4199 164.43 74.5195 153.09 74.5195 c 4
EndSplineSet
Validated: 1
EndChar

StartChar: period
Encoding: 338 46 82
Width: 296
VWidth: 0
Flags: W
HStem: 0 35.6396<129.016 167.895> 75.3301 35.6396<129.042 167.866>
VStem: 93.1504 35.6396<35.8654 74.7447> 168.48 35.6396<35.8915 74.716>
LayerCount: 2
Fore
SplineSet
148.23 110.97 m 4
 179.011 110.97 204.12 85.8604 204.12 55.0801 c 4
 204.12 24.2998 179.011 0 148.23 0 c 4
 117.45 0 93.1504 24.2998 93.1504 55.0801 c 4
 93.1504 85.8604 117.45 110.97 148.23 110.97 c 4
148.23 75.3301 m 4
 136.89 75.3301 128.79 66.4199 128.79 55.0801 c 4
 128.79 43.7393 136.89 35.6396 148.23 35.6396 c 4
 159.57 35.6396 168.48 43.7393 168.48 55.0801 c 4
 168.48 66.4199 159.57 75.3301 148.23 75.3301 c 4
EndSplineSet
Validated: 1
EndChar

StartChar: numbersign
Encoding: 339 35 83
Width: 664
VWidth: 0
Flags: W
HStem: 0 21G<101.25 110.16 328.05 336.96> 378.27 35.6406<88.2954 165.239 208.98 392.04 435.78 577.524> 680.4 35.6396<88.2954 230.04 273.78 456.84 500.58 577.524> 1074.31 20G<328.86 337.77 555.66 564.57>
VStem: 88.29 34.8301<0.00590762 80.94> 315.09 34.8301<0.00590762 80.94 1013.34 1094.29> 541.89 35.6406<1013.34 1094.3>
LayerCount: 2
Fore
SplineSet
332.91 1094.31 m 4
 342.63 1094.31 350.73 1086.21 350.73 1076.49 c 4
 350.73 1075.68 349.92 1073.25 349.92 1072.44 c 6
 273.78 716.04 l 5
 464.13 716.04 l 5
 541.89 1080.54 l 6
 543.511 1088.64 551.61 1094.31 559.71 1094.31 c 4
 569.43 1094.31 577.53 1086.21 577.53 1076.49 c 4
 577.53 1075.68 576.72 1073.25 576.72 1072.44 c 6
 500.58 716.04 l 5
 559.71 716.04 l 6
 569.43 716.04 577.53 707.939 577.53 698.22 c 4
 577.53 688.5 569.43 680.4 559.71 680.4 c 4
 493.29 680.4 l 5
 435.78 413.91 l 5
 559.71 413.91 l 6
 569.43 413.91 577.53 405.811 577.53 396.09 c 4
 577.53 386.37 569.43 378.27 559.71 378.27 c 4
 428.489 378.27 l 5
 349.92 14.5801 l 6
 348.3 6.48047 341.011 0 332.91 0 c 4
 323.189 0 315.09 8.09961 315.09 17.8203 c 4
 315.09 18.6299 315.09 21.0605 315.09 21.8701 c 6
 392.04 378.27 l 5
 201.689 378.27 l 5
 123.12 14.5801 l 6
 121.5 6.48047 114.21 0 106.11 0 c 4
 96.3896 0 88.29 8.09961 88.29 17.8203 c 4
 88.29 18.6299 88.29 21.0605 88.29 21.8701 c 6
 165.239 378.27 l 5
 106.11 378.27 l 6
 105.3 378.27 l 4
 95.5801 378.27 88.29 386.37 88.29 396.09 c 4
 88.29 405.811 95.5801 413.91 105.3 413.91 c 4
 106.11 413.91 l 6
 172.53 413.91 l 5
 230.04 680.4 l 5
 106.11 680.4 l 6
 105.3 680.4 l 4
 95.5801 680.4 88.29 688.5 88.29 698.22 c 4
 88.29 707.939 95.5801 716.04 105.3 716.04 c 4
 106.11 716.04 l 6
 237.33 716.04 l 5
 315.09 1080.54 l 6
 316.71 1088.64 324.811 1094.31 332.91 1094.31 c 4
266.489 680.4 m 5
 208.98 413.91 l 5
 399.33 413.91 l 5
 456.84 680.4 l 5
 266.489 680.4 l 5
EndSplineSet
Validated: 1
EndChar

StartChar: parenleft
Encoding: 340 40 84
Width: 386
VWidth: 0
Flags: W
VStem: 89.9102 34.8291<256.025 702.056> 274.59 33.21<-259.147 -219.403 1177.63 1217.38>
LayerCount: 2
Fore
SplineSet
289.98 1217.43 m 4
 299.7 1217.43 307.8 1209.33 307.8 1199.61 c 4
 307.8 1197.18 306.989 1193.94 305.37 1191.51 c 4
 282.689 1149.39 260.82 1104.84 242.189 1060.29 c 4
 204.12 971.189 175.77 877.23 155.52 780.03 c 4
 135.27 682.83 124.739 581.58 124.739 478.71 c 4
 124.739 375.84 135.27 275.4 155.52 178.2 c 4
 175.77 81 204.12 -13.7695 242.189 -102.87 c 4
 260.82 -147.42 282.689 -191.16 305.37 -233.28 c 4
 306.989 -235.71 307.8 -238.95 307.8 -241.38 c 4
 307.8 -251.1 299.7 -259.2 289.98 -259.2 c 4
 284.311 -259.2 277.02 -255.15 274.59 -250.29 c 4
 251.1 -206.55 229.23 -162 209.79 -116.64 c 4
 170.91 -25.1104 140.939 71.2803 120.689 170.91 c 4
 100.439 270.54 89.9102 373.41 89.9102 478.71 c 4
 89.9102 584.011 100.439 687.689 120.689 787.32 c 4
 140.939 886.95 170.91 983.34 209.79 1074.87 c 4
 229.23 1120.23 251.1 1164.78 274.59 1208.52 c 4
 277.02 1213.38 284.311 1217.43 289.98 1217.43 c 4
EndSplineSet
Validated: 1
EndChar

StartChar: parenright
Encoding: 341 41 85
Width: 384
VWidth: 0
Flags: W
VStem: 80.1895 33.2109<-259.147 -219.403 1177.63 1217.42> 262.439 35.6406<246.647 711.463>
LayerCount: 2
Fore
SplineSet
97.2002 1217.43 m 5
 98.0107 1217.43 l 4
 103.68 1217.43 110.97 1213.38 113.4 1208.52 c 4
 136.89 1164.78 158.761 1120.23 178.2 1074.87 c 4
 217.08 983.34 247.05 886.95 267.3 787.32 c 4
 287.55 687.689 298.08 584.011 298.08 478.71 c 4
 298.08 373.41 287.55 270.54 267.3 170.91 c 4
 247.05 71.2803 217.08 -25.1104 178.2 -116.64 c 4
 158.761 -162 136.89 -206.55 113.4 -250.29 c 4
 110.97 -255.15 103.68 -259.2 98.0107 -259.2 c 4
 88.29 -259.2 80.1895 -251.1 80.1895 -241.38 c 4
 80.1895 -238.95 81 -235.71 82.6201 -233.28 c 4
 105.3 -191.16 126.36 -147.42 144.989 -102.87 c 4
 183.061 -13.7695 212.22 81 232.47 178.2 c 4
 252.72 275.4 262.439 375.84 262.439 478.71 c 4
 262.439 581.58 252.72 682.83 232.47 780.03 c 4
 212.22 877.23 183.061 971.189 144.989 1060.29 c 4
 126.36 1104.84 105.3 1149.39 82.6201 1191.51 c 4
 81 1193.94 80.1895 1197.18 80.1895 1199.61 c 4
 80.1895 1209.33 87.4805 1217.43 97.2002 1217.43 c 5
EndSplineSet
Validated: 1
EndChar

StartChar: bracketleft
Encoding: 342 91 86
Width: 325
VWidth: 0
Flags: W
HStem: -102.87 35.6396<175.392 247.044> 1181.79 35.6396<175.392 247.044>
VStem: 98.0107 35.6396<-25.488 1140.05>
LayerCount: 2
Fore
SplineSet
229.23 1217.43 m 5
 238.95 1217.43 247.05 1209.33 247.05 1199.61 c 4
 247.05 1189.89 238.95 1181.79 229.23 1181.79 c 4
 176.58 1181.79 133.65 1138.86 133.65 1086.21 c 6
 133.65 28.3496 l 6
 133.65 -24.2998 176.58 -67.2305 229.23 -67.2305 c 4
 238.95 -67.2305 247.05 -75.3301 247.05 -85.0498 c 4
 247.05 -94.7695 238.95 -102.87 229.23 -102.87 c 4
 157.14 -102.87 98.0107 -43.7393 98.0107 28.3496 c 6
 98.0107 1086.21 l 6
 98.0107 1158.3 157.14 1217.43 229.23 1217.43 c 5
EndSplineSet
Validated: 1
EndChar

StartChar: bracketright
Encoding: 343 93 87
Width: 325
VWidth: 0
Flags: W
HStem: -102.87 35.6396<79.3858 151.707> 1181.79 35.6396<79.3858 151.707>
VStem: 193.59 34.8301<-25.0295 1139.59>
LayerCount: 2
Fore
SplineSet
98.0107 1217.43 m 6
 170.1 1217.43 228.42 1158.3 228.42 1086.21 c 6
 228.42 28.3496 l 6
 228.42 -43.7393 170.1 -102.87 98.0107 -102.87 c 4
 97.2002 -102.87 l 4
 87.4805 -102.87 79.3799 -94.7695 79.3799 -85.0498 c 4
 79.3799 -75.3301 87.4805 -67.2305 97.2002 -67.2305 c 4
 98.0107 -67.2305 l 4
 150.66 -67.2305 193.59 -24.2998 193.59 28.3496 c 6
 193.59 1086.21 l 6
 193.59 1138.86 150.66 1181.79 98.0107 1181.79 c 4
 97.2002 1181.79 l 4
 87.4805 1181.79 79.3799 1189.89 79.3799 1199.61 c 4
 79.3799 1209.33 87.4805 1217.43 97.2002 1217.43 c 4
 98.0107 1217.43 l 6
EndSplineSet
Validated: 1
EndChar

StartChar: quotedbl
Encoding: 344 34 88
Width: 429
VWidth: 0
Flags: W
HStem: 1182.6 35.6396<128.908 161 264.178 296.271>
VStem: 94.7695 34.8301<1142.1 1167.06> 133.65 34.8301<970.396 1044.27>
LayerCount: 2
Fore
SplineSet
149.85 1218.24 m 5
 153.9 1218.24 157.14 1217.43 161.189 1216.62 c 4
 191.16 1209.33 209.79 1179.36 202.5 1149.39 c 4
 196.02 1121.85 168.48 1104.03 140.939 1108.08 c 5
 168.48 991.439 l 6
 168.48 990.63 168.48 989.011 168.48 988.2 c 4
 168.48 978.48 160.38 970.38 150.66 970.38 c 4
 142.561 970.38 135.27 976.05 133.65 983.34 c 6
 94.7695 1148.58 l 6
 94.7695 1149.39 94.7695 1149.39 94.7695 1150.2 c 4
 93.1504 1158.3 92.3398 1166.4 93.96 1175.31 c 4
 100.439 1201.23 123.93 1219.05 149.85 1218.24 c 5
285.12 1217.43 m 6
 289.17 1217.43 292.41 1217.43 296.46 1216.62 c 4
 326.43 1209.33 344.25 1179.36 336.96 1149.39 c 4
 330.48 1121.85 302.939 1103.22 275.4 1107.27 c 5
 302.939 991.439 l 6
 302.939 990.63 303.75 988.2 303.75 987.39 c 4
 303.75 977.67 295.65 969.57 285.93 969.57 c 4
 277.83 969.57 270.54 976.05 268.92 983.34 c 6
 230.04 1147.77 l 6
 230.04 1147.77 229.23 1148.58 229.23 1149.39 c 4
 227.61 1157.49 227.61 1166.4 229.23 1175.31 c 4
 235.71 1201.23 259.2 1218.24 285.12 1217.43 c 6
149.04 1182.6 m 6
 139.32 1182.6 131.22 1176.93 128.79 1167.21 c 4
 127.98 1163.97 127.98 1160.73 128.79 1157.49 c 4
 128.79 1156.68 l 4
 129.6 1156.68 l 4
 129.6 1155.06 l 6
 132.84 1142.1 l 5
 134.46 1142.91 137.7 1143.72 139.32 1143.72 c 4
 140.939 1143.72 143.37 1142.91 144.18 1142.91 c 4
 154.71 1140.48 165.239 1147.77 167.67 1158.3 c 4
 170.1 1168.83 163.62 1179.36 153.09 1181.79 c 4
 151.47 1181.79 150.66 1182.6 149.04 1182.6 c 6
283.5 1182.6 m 6
 273.78 1182.6 266.489 1176.93 264.061 1167.21 c 4
 263.25 1163.97 263.25 1159.92 264.061 1156.68 c 4
 264.061 1155.87 l 4
 264.87 1155.06 l 6
 267.3 1142.1 l 5
 268.92 1142.91 272.97 1143.72 274.59 1143.72 c 4
 275.4 1143.72 277.83 1142.91 278.64 1142.91 c 4
 289.17 1140.48 300.511 1146.96 302.939 1157.49 c 4
 305.37 1168.02 298.08 1179.36 287.55 1181.79 c 4
 285.93 1181.79 285.12 1182.6 283.5 1182.6 c 6
EndSplineSet
Validated: 41
EndChar

StartChar: ae
Encoding: 345 230 89
Width: 1100
VWidth: 0
Flags: W
HStem: -0.810547 33.2109<239.832 400.951 692.392 853.996> 225.989 33.2109<692.15 853.561> 452.79 33.21<239.832 401.35> 679.59 33.21<239.086 399.803 691.248 853.561>
VStem: 76.1396 33.21<162.882 323.011> 529.739 33.2109<0.00531776 119.88 160.886 323.189 389.61 547.044> 983.34 33.21<161.19 178.605 389.682 549.811>
CounterMasks: 1 0e
LayerCount: 2
Fore
SplineSet
319.95 712.8 m 4
 422.82 712.8 511.11 648 546.75 557.28 c 5
 582.39 648 670.68 712.8 773.55 712.8 c 4
 908.011 712.8 1016.55 604.261 1016.55 469.8 c 4
 1016.55 335.34 908.011 225.989 773.55 225.989 c 4
 720.09 225.989 670.68 243.811 630.18 272.97 c 4
 629.37 273.78 627.75 273.78 626.939 274.59 c 4
 626.13 275.4 l 6
 562.95 323.189 l 5
 562.95 243 l 6
 562.95 126.36 656.91 32.4004 773.55 32.4004 c 4
 865.08 32.4004 942.03 90.7197 971.189 172.53 c 4
 972.811 179.011 980.1 184.68 987.39 184.68 c 4
 996.3 184.68 1004.4 176.58 1004.4 167.67 c 4
 1004.4 166.05 1003.59 162.811 1002.78 161.189 c 4
 969.57 66.4199 879.66 -0.810547 773.55 -0.810547 c 4
 683.64 -0.810547 605.07 47.79 562.95 119.88 c 5
 562.95 16.2002 l 6
 562.95 7.29004 555.66 0 546.75 0 c 4
 537.84 0 529.739 7.29004 529.739 16.2002 c 6
 529.739 119.88 l 5
 487.62 47.79 409.86 -0.810547 319.95 -0.810547 c 4
 185.489 -0.810547 76.1396 108.54 76.1396 243 c 4
 76.1396 377.46 185.489 486 319.95 486 c 4
 373.41 486 422.82 468.18 463.32 439.02 c 4
 464.13 439.02 464.939 438.21 465.75 437.4 c 4
 466.561 436.59 l 6
 529.739 389.61 l 5
 529.739 468.18 l 6
 529.739 468.989 l 4
 529.739 469.8 l 4
 529.739 470.61 l 4
 528.93 586.439 435.78 679.59 319.95 679.59 c 4
 265.68 679.59 217.08 659.34 179.82 626.13 c 4
 177.39 623.7 172.53 621.27 168.48 621.27 c 4
 159.57 621.27 151.47 629.37 151.47 638.28 c 4
 151.47 642.33 153.9 648 157.14 650.43 c 4
 200.07 689.311 257.58 712.8 319.95 712.8 c 4
773.55 679.59 m 4
 656.91 679.59 562.95 586.439 562.95 469.8 c 4
 562.95 468.989 l 4
 562.95 468.18 l 4
 562.95 364.5 l 5
 645.57 302.13 l 6
 646.38 302.13 l 6
 647.189 301.32 l 6
 682.02 274.59 725.761 259.2 773.55 259.2 c 4
 890.189 259.2 983.34 353.16 983.34 469.8 c 4
 983.34 586.439 890.189 679.59 773.55 679.59 c 4
319.95 452.79 m 6
 203.311 452.79 109.35 359.64 109.35 243 c 4
 109.35 126.36 203.311 32.4004 319.95 32.4004 c 4
 436.59 32.4004 529.739 126.36 529.739 243 c 6
 529.739 243.811 l 5
 529.739 347.489 l 5
 447.12 409.86 l 6
 446.311 410.67 l 4
 411.48 437.4 367.739 452.79 319.95 452.79 c 6
EndSplineSet
Validated: 1
EndChar

StartChar: dollar
Encoding: 346 36 90
Width: 882
VWidth: 0
Flags: W
HStem: 0 35.6396<374.22 490.05 525.689 540.298> 680.4 35.6396<374.22 490.05 525.689 540.298> 1058.67 34.8301<374.22 490.05>
VStem: 82.6201 35.6406<256.074 376.644> 158.761 35.6396<719.794 901.274> 338.58 35.6396<-151.464 6.48047 51.8398 663.39 709.561 1035.99 1086.21 1244.96> 490.05 35.6396<-151.464 3.23926 46.9805 669.061 712.8 1043.28 1089.45 1227.15> 687.689 35.6406<793.806 901.352> 763.02 35.6406<255.071 460.919>
LayerCount: 2
Fore
SplineSet
356.4 1244.97 m 4
 366.12 1244.97 374.22 1236.87 374.22 1227.15 c 4
 374.22 1086.21 l 5
 395.28 1091.07 417.96 1093.5 440.64 1093.5 c 4
 457.65 1093.5 473.85 1091.88 490.05 1089.45 c 5
 490.05 1227.15 l 6
 490.05 1236.87 497.34 1244.97 507.061 1244.97 c 4
 507.87 1244.97 l 4
 517.59 1244.97 525.689 1236.87 525.689 1227.15 c 4
 525.689 1080.54 l 5
 639.9 1044.9 723.33 937.98 723.33 811.62 c 4
 723.33 801.9 715.23 793.8 705.511 793.8 c 4
 695.79 793.8 687.689 801.9 687.689 811.62 c 4
 687.689 918.54 620.46 1008.45 525.689 1043.28 c 5
 525.689 705.511 l 5
 682.83 667.439 798.66 526.5 798.66 358.02 c 4
 798.66 189.54 682.83 47.79 525.689 9.71973 c 5
 525.689 -133.65 l 6
 525.689 -143.37 517.59 -151.47 507.87 -151.47 c 4
 498.15 -151.47 490.05 -143.37 490.05 -133.65 c 6
 490.05 3.23926 l 5
 473.85 0.810547 456.84 0 440.64 0 c 4
 417.96 0 396.09 2.42969 374.22 6.48047 c 5
 374.22 -133.65 l 6
 374.22 -143.37 366.12 -151.47 356.4 -151.47 c 4
 346.68 -151.47 338.58 -143.37 338.58 -133.65 c 6
 338.58 14.5801 l 5
 191.16 58.3203 82.6201 196.02 82.6201 358.02 c 4
 82.6201 358.83 l 4
 82.6201 368.55 90.7197 376.65 100.439 376.65 c 4
 110.16 376.65 118.261 368.55 118.261 358.83 c 4
 118.261 358.02 l 4
 118.261 215.46 210.6 94.7695 338.58 51.8398 c 5
 338.58 663.39 l 5
 315.09 655.29 292.41 644.761 271.35 631.8 c 5
 285.93 618.03 302.13 605.88 319.95 596.16 c 4
 324.811 593.73 328.86 586.439 328.86 580.77 c 4
 328.86 571.05 320.761 562.95 311.04 562.95 c 4
 308.61 562.95 304.561 563.761 302.13 565.38 c 4
 276.21 579.96 253.53 598.59 233.28 620.46 c 4
 231.66 622.08 229.23 624.511 228.42 626.13 c 4
 185.489 675.54 158.761 741.15 158.761 811.62 c 4
 158.761 931.5 233.28 1033.56 338.58 1074.87 c 5
 338.58 1227.15 l 6
 338.58 1236.87 346.68 1244.97 356.4 1244.97 c 4
440.64 1058.67 m 4
 417.15 1058.67 395.28 1054.62 374.22 1048.95 c 5
 374.22 709.561 l 5
 396.09 713.61 417.96 716.04 440.64 716.04 c 4
 456.84 716.04 473.85 715.23 490.05 712.8 c 5
 490.05 1053.81 l 5
 473.85 1057.05 457.65 1058.67 440.64 1058.67 c 4
338.58 1035.99 m 5
 253.53 997.11 194.4 911.25 194.4 811.62 c 4
 194.4 754.11 213.84 700.65 247.05 658.53 c 5
 275.4 676.35 306.18 690.93 338.58 700.65 c 5
 338.58 1035.99 l 5
440.64 680.4 m 4
 417.96 680.4 396.09 677.97 374.22 673.11 c 5
 374.22 42.1201 l 5
 396.09 37.2607 417.96 35.6396 440.64 35.6396 c 4
 457.65 35.6396 473.85 36.4502 490.05 38.8799 c 5
 490.05 676.35 l 5
 473.85 678.78 457.65 680.4 440.64 680.4 c 4
525.689 669.061 m 5
 525.689 46.9805 l 5
 662.58 84.2393 763.02 208.98 763.02 358.02 c 4
 763.02 507.061 662.58 631.8 525.689 669.061 c 5
EndSplineSet
Validated: 1
EndChar

StartChar: agrave
Encoding: 347 224 91
Width: 834
VWidth: 0
Flags: W
HStem: 0 35.6396<335.061 539.499> 680.4 35.6396<335.061 539.499> 1074.31 20G<289.17 295.65>
VStem: 77.7607 35.6396<257.301 458.738> 701.46 34.8301<-0.804639 117.45 152.058 563.982 598.59 716.034>
LayerCount: 2
Fore
SplineSet
294.03 1094.31 m 4
 297.27 1094.31 301.32 1092.69 303.75 1091.07 c 6
 530.55 940.41 l 6
 534.6 937.17 538.65 929.88 538.65 925.02 c 4
 538.65 915.3 530.55 907.2 520.83 907.2 c 4
 517.59 907.2 513.54 908.82 511.11 910.439 c 6
 284.311 1061.91 l 6
 279.45 1065.15 276.21 1070.82 276.21 1076.49 c 4
 276.21 1086.21 284.311 1094.31 294.03 1094.31 c 4
435.78 716.04 m 0
 541.08 716.04 635.85 670.68 701.46 598.59 c 1
 701.46 698.22 l 2
 701.46 707.939 708.75 716.04 718.47 716.04 c 0
 728.189 716.04 736.29 707.939 736.29 698.22 c 0
 736.29 548.37 l 2
 736.29 547.561 737.1 547.561 737.1 546.75 c 0
 737.1 545.939 736.29 545.939 736.29 545.13 c 2
 736.29 170.91 l 2
 736.29 170.1 737.1 170.1 737.1 169.29 c 0
 737.1 168.48 736.29 167.67 736.29 166.86 c 2
 736.29 17.8203 l 2
 736.29 17.0107 l 0
 736.29 7.29004 728.189 -0.810547 718.47 -0.810547 c 0
 708.75 -0.810547 701.46 7.29004 701.46 17.0107 c 0
 701.46 17.8203 l 2
 701.46 117.45 l 1
 635.85 45.3604 541.08 0 435.78 0 c 0
 238.14 0 77.7607 160.38 77.7607 358.02 c 0
 77.7607 555.66 238.14 716.04 435.78 716.04 c 0
435.78 680.4 m 0
 257.58 680.4 113.4 536.22 113.4 358.02 c 0
 113.4 179.82 257.58 35.6396 435.78 35.6396 c 0
 545.939 35.6396 643.14 90.7197 701.46 174.96 c 1
 701.46 541.08 l 1
 643.14 625.32 545.939 680.4 435.78 680.4 c 0
EndSplineSet
Validated: 1
EndChar

StartChar: aacute
Encoding: 348 225 92
Width: 834
VWidth: 0
Flags: W
HStem: 0 35.6396<335.061 539.499> 680.4 35.6396<335.061 539.499> 1074.31 20G<518.4 525.69>
VStem: 77.7607 35.6396<257.301 458.738> 701.46 34.8301<-0.804639 117.45 152.058 563.982 598.59 716.034>
LayerCount: 2
Fore
SplineSet
520.02 1094.31 m 5
 520.83 1094.31 l 4
 530.55 1094.31 538.65 1086.21 538.65 1076.49 c 4
 538.65 1070.82 535.41 1065.15 530.55 1061.91 c 6
 303.75 910.439 l 6
 301.32 908.82 297.27 907.2 294.03 907.2 c 4
 284.311 907.2 276.21 915.3 276.21 925.02 c 4
 276.21 930.689 280.261 937.17 284.311 940.41 c 6
 511.11 1091.07 l 6
 513.54 1092.69 516.78 1094.31 520.02 1094.31 c 5
435.78 716.04 m 0
 541.08 716.04 635.85 670.68 701.46 598.59 c 1
 701.46 698.22 l 2
 701.46 707.939 708.75 716.04 718.47 716.04 c 0
 728.189 716.04 736.29 707.939 736.29 698.22 c 0
 736.29 548.37 l 2
 736.29 547.561 737.1 547.561 737.1 546.75 c 0
 737.1 545.939 736.29 545.939 736.29 545.13 c 2
 736.29 170.91 l 2
 736.29 170.1 737.1 170.1 737.1 169.29 c 0
 737.1 168.48 736.29 167.67 736.29 166.86 c 2
 736.29 17.8203 l 2
 736.29 17.0107 l 0
 736.29 7.29004 728.189 -0.810547 718.47 -0.810547 c 0
 708.75 -0.810547 701.46 7.29004 701.46 17.0107 c 0
 701.46 17.8203 l 2
 701.46 117.45 l 1
 635.85 45.3604 541.08 0 435.78 0 c 0
 238.14 0 77.7607 160.38 77.7607 358.02 c 0
 77.7607 555.66 238.14 716.04 435.78 716.04 c 0
435.78 680.4 m 0
 257.58 680.4 113.4 536.22 113.4 358.02 c 0
 113.4 179.82 257.58 35.6396 435.78 35.6396 c 0
 545.939 35.6396 643.14 90.7197 701.46 174.96 c 1
 701.46 541.08 l 1
 643.14 625.32 545.939 680.4 435.78 680.4 c 0
EndSplineSet
Validated: 1
EndChar

StartChar: acircumflex
Encoding: 349 226 93
Width: 834
VWidth: 0
Flags: W
HStem: 0 35.6396<335.061 539.499> 680.4 35.6396<335.061 539.499> 1074.31 20G<424.845 429.705>
VStem: 77.7607 35.6396<257.301 458.738> 701.46 34.8301<-0.804639 117.45 152.058 563.982 598.59 716.034>
LayerCount: 2
Fore
SplineSet
426.87 1094.31 m 4
 427.68 1094.31 l 4
 431.73 1094.31 436.59 1092.69 439.83 1089.45 c 6
 591.3 937.98 l 5
 566.189 912.87 l 5
 427.68 1051.38 l 5
 289.17 912.87 l 5
 264.061 937.98 l 5
 414.72 1089.45 l 6
 417.15 1091.88 422.82 1094.31 426.87 1094.31 c 4
435.78 716.04 m 0
 541.08 716.04 635.85 670.68 701.46 598.59 c 1
 701.46 698.22 l 2
 701.46 707.939 708.75 716.04 718.47 716.04 c 0
 728.189 716.04 736.29 707.939 736.29 698.22 c 0
 736.29 548.37 l 2
 736.29 547.561 737.1 547.561 737.1 546.75 c 0
 737.1 545.939 736.29 545.939 736.29 545.13 c 2
 736.29 170.91 l 2
 736.29 170.1 737.1 170.1 737.1 169.29 c 0
 737.1 168.48 736.29 167.67 736.29 166.86 c 2
 736.29 17.8203 l 2
 736.29 17.0107 l 0
 736.29 7.29004 728.189 -0.810547 718.47 -0.810547 c 0
 708.75 -0.810547 701.46 7.29004 701.46 17.0107 c 0
 701.46 17.8203 l 2
 701.46 117.45 l 1
 635.85 45.3604 541.08 0 435.78 0 c 0
 238.14 0 77.7607 160.38 77.7607 358.02 c 0
 77.7607 555.66 238.14 716.04 435.78 716.04 c 0
435.78 680.4 m 0
 257.58 680.4 113.4 536.22 113.4 358.02 c 0
 113.4 179.82 257.58 35.6396 435.78 35.6396 c 0
 545.939 35.6396 643.14 90.7197 701.46 174.96 c 1
 701.46 541.08 l 1
 643.14 625.32 545.939 680.4 435.78 680.4 c 0
EndSplineSet
Validated: 1
EndChar

StartChar: atilde
Encoding: 350 227 94
Width: 834
VWidth: 0
Flags: W
HStem: 0 35.6396<335.061 539.499> 680.4 35.6396<335.061 539.499>
VStem: 77.7607 35.6396<257.301 458.738> 407.43 33.21<1063.1 1109.52> 622.89 34.0205<1062.6 1171.91> 701.46 34.8301<-0.804639 117.45 152.058 563.982 598.59 716.034>
LayerCount: 2
Fore
SplineSet
276.21 1178.55 m 4
 344.25 1199.61 417.15 1161.54 439.83 1094.31 c 4
 439.83 1093.5 440.64 1093.5 440.64 1092.69 c 4
 456.03 1042.47 510.3 1014.12 560.52 1029.51 c 4
 610.739 1044.9 638.28 1099.17 622.89 1149.39 c 4
 619.65 1159.11 625.32 1168.83 635.04 1172.07 c 4
 644.761 1175.31 653.67 1169.64 656.91 1159.92 c 4
 677.97 1091.07 639.9 1016.55 571.05 995.489 c 4
 503.011 974.43 429.3 1011.69 407.43 1079.73 c 4
 407.43 1080.54 406.62 1081.35 406.62 1082.16 c 4
 391.23 1132.38 336.96 1159.92 286.739 1144.53 c 4
 236.52 1129.14 208.17 1074.87 223.561 1024.65 c 4
 224.37 1024.65 l 4
 227.61 1014.93 221.939 1006.02 212.22 1002.78 c 4
 202.5 999.54 193.59 1004.4 190.35 1014.12 c 4
 169.29 1082.97 207.36 1157.49 276.21 1178.55 c 4
435.78 716.04 m 0
 541.08 716.04 635.85 670.68 701.46 598.59 c 1
 701.46 698.22 l 2
 701.46 707.939 708.75 716.04 718.47 716.04 c 0
 728.189 716.04 736.29 707.939 736.29 698.22 c 0
 736.29 548.37 l 2
 736.29 547.561 737.1 547.561 737.1 546.75 c 0
 737.1 545.939 736.29 545.939 736.29 545.13 c 2
 736.29 170.91 l 2
 736.29 170.1 737.1 170.1 737.1 169.29 c 0
 737.1 168.48 736.29 167.67 736.29 166.86 c 2
 736.29 17.8203 l 2
 736.29 17.0107 l 0
 736.29 7.29004 728.189 -0.810547 718.47 -0.810547 c 0
 708.75 -0.810547 701.46 7.29004 701.46 17.0107 c 0
 701.46 17.8203 l 2
 701.46 117.45 l 1
 635.85 45.3604 541.08 0 435.78 0 c 0
 238.14 0 77.7607 160.38 77.7607 358.02 c 0
 77.7607 555.66 238.14 716.04 435.78 716.04 c 0
435.78 680.4 m 0
 257.58 680.4 113.4 536.22 113.4 358.02 c 0
 113.4 179.82 257.58 35.6396 435.78 35.6396 c 0
 545.939 35.6396 643.14 90.7197 701.46 174.96 c 1
 701.46 541.08 l 1
 643.14 625.32 545.939 680.4 435.78 680.4 c 0
EndSplineSet
Validated: 33
EndChar

StartChar: adieresis
Encoding: 351 228 95
Width: 835
VWidth: 0
Flags: W
HStem: 0 35.6396<336.682 541.119> 680.4 35.6396<336.682 541.119> 983.34 35.6406<285.734 324.559 519.014 557.838> 1058.67 35.6406<285.706 324.585 518.986 557.864>
VStem: 79.3799 35.6396<257.301 458.738> 249.48 35.6396<1019.59 1058.42> 324.811 35.6396<1019.57 1058.44> 482.761 35.6396<1019.59 1058.42> 558.09 35.6406<1019.57 1058.44> 703.08 34.8301<-0.804639 117.45 152.058 563.982 598.59 716.034>
LayerCount: 2
Fore
SplineSet
305.37 1094.31 m 4
 336.15 1094.31 360.45 1070.01 360.45 1039.23 c 4
 360.45 1008.45 336.15 983.34 305.37 983.34 c 4
 274.59 983.34 249.48 1008.45 249.48 1039.23 c 4
 249.48 1070.01 274.59 1094.31 305.37 1094.31 c 4
538.65 1094.31 m 4
 569.43 1094.31 593.73 1070.01 593.73 1039.23 c 4
 593.73 1008.45 569.43 983.34 538.65 983.34 c 4
 507.87 983.34 482.761 1008.45 482.761 1039.23 c 4
 482.761 1070.01 507.87 1094.31 538.65 1094.31 c 4
305.37 1058.67 m 4
 294.03 1058.67 285.12 1050.57 285.12 1039.23 c 4
 285.12 1027.89 294.03 1018.98 305.37 1018.98 c 4
 316.71 1018.98 324.811 1027.89 324.811 1039.23 c 4
 324.811 1050.57 316.71 1058.67 305.37 1058.67 c 4
538.65 1058.67 m 4
 527.311 1058.67 518.4 1050.57 518.4 1039.23 c 4
 518.4 1027.89 527.311 1018.98 538.65 1018.98 c 4
 549.989 1018.98 558.09 1027.89 558.09 1039.23 c 4
 558.09 1050.57 549.989 1058.67 538.65 1058.67 c 4
437.4 716.04 m 0
 542.7 716.04 637.47 670.68 703.08 598.59 c 1
 703.08 698.22 l 2
 703.08 707.939 711.18 716.04 720.9 716.04 c 0
 730.62 716.04 737.91 707.939 737.91 698.22 c 0
 737.91 548.37 l 2
 737.91 547.561 738.72 547.561 738.72 546.75 c 0
 738.72 545.939 737.91 545.939 737.91 545.13 c 2
 737.91 170.91 l 2
 737.91 170.1 738.72 170.1 738.72 169.29 c 0
 738.72 168.48 737.91 167.67 737.91 166.86 c 2
 737.91 17.8203 l 2
 737.91 17.0107 l 0
 737.91 7.29004 730.62 -0.810547 720.9 -0.810547 c 0
 711.18 -0.810547 703.08 7.29004 703.08 17.0107 c 0
 703.08 17.8203 l 2
 703.08 117.45 l 1
 637.47 45.3604 542.7 0 437.4 0 c 0
 239.761 0 79.3799 160.38 79.3799 358.02 c 0
 79.3799 555.66 239.761 716.04 437.4 716.04 c 0
437.4 680.4 m 0
 259.2 680.4 115.02 536.22 115.02 358.02 c 0
 115.02 179.82 259.2 35.6396 437.4 35.6396 c 0
 547.561 35.6396 644.761 90.7197 703.08 174.96 c 1
 703.08 541.08 l 1
 644.761 625.32 547.561 680.4 437.4 680.4 c 0
EndSplineSet
Validated: 1
EndChar

StartChar: aring
Encoding: 352 229 96
Width: 837
VWidth: 0
Flags: W
HStem: 0 35.6396<336.682 541.119> 680.4 35.6396<336.682 541.119>
VStem: 79.3799 35.6396<257.301 458.738> 703.08 34.8301<-0.804639 117.45 152.058 563.982 598.59 716.034>
LayerCount: 2
Fore
SplineSet
437.4 716.04 m 4
 542.7 716.04 637.47 670.68 703.08 598.59 c 5
 703.08 698.22 l 6
 703.08 707.939 711.18 716.04 720.9 716.04 c 4
 730.62 716.04 737.91 707.939 737.91 698.22 c 4
 737.91 548.37 l 6
 737.91 547.561 738.72 547.561 738.72 546.75 c 4
 738.72 545.939 737.91 545.939 737.91 545.13 c 6
 737.91 170.91 l 6
 737.91 170.1 738.72 170.1 738.72 169.29 c 4
 738.72 168.48 737.91 167.67 737.91 166.86 c 6
 737.91 17.8203 l 6
 737.91 17.0107 l 4
 737.91 7.29004 730.62 -0.810547 720.9 -0.810547 c 4
 711.18 -0.810547 703.08 7.29004 703.08 17.0107 c 4
 703.08 17.8203 l 6
 703.08 117.45 l 5
 637.47 45.3604 542.7 0 437.4 0 c 4
 239.761 0 79.3799 160.38 79.3799 358.02 c 4
 79.3799 555.66 239.761 716.04 437.4 716.04 c 4
437.4 680.4 m 4
 259.2 680.4 115.02 536.22 115.02 358.02 c 4
 115.02 179.82 259.2 35.6396 437.4 35.6396 c 4
 547.561 35.6396 644.761 90.7197 703.08 174.96 c 5
 703.08 541.08 l 5
 644.761 625.32 547.561 680.4 437.4 680.4 c 4
EndSplineSet
Validated: 1
EndChar

StartChar: egrave
Encoding: 353 232 97
Width: 872
VWidth: 0
Flags: W
HStem: 0 35.6396<335.061 541.146> 378.27 35.6406<191.166 753.3> 680.4 35.6396<335.061 535.419> 1074.31 20G<316.71 323.19>
VStem: 77.7607 35.6396<257.301 458.738>
LayerCount: 2
Fore
SplineSet
321.57 1094.31 m 4
 324.811 1094.31 328.86 1092.69 331.29 1091.07 c 6
 558.09 940.41 l 6
 562.14 937.17 566.189 929.88 566.189 925.02 c 4
 566.189 915.3 558.09 907.2 548.37 907.2 c 4
 545.13 907.2 541.08 908.82 538.65 910.439 c 6
 311.85 1061.91 l 6
 306.989 1065.15 303.75 1070.82 303.75 1076.49 c 4
 303.75 1086.21 311.85 1094.31 321.57 1094.31 c 4
435.78 716.04 m 0
 619.65 716.04 771.93 576.72 791.37 397.71 c 0
 791.37 396.9 792.18 396.9 792.18 396.09 c 0
 792.18 386.37 784.08 378.27 774.36 378.27 c 0
 208.98 378.27 l 2
 199.261 378.27 191.16 386.37 191.16 396.09 c 0
 191.16 405.811 199.261 413.91 208.98 413.91 c 0
 753.3 413.91 l 1
 726.57 565.38 595.35 680.4 435.78 680.4 c 0
 257.58 680.4 113.4 536.22 113.4 358.02 c 0
 113.4 179.82 257.58 35.6396 435.78 35.6396 c 0
 547.561 35.6396 646.38 92.3398 703.89 179.011 c 0
 707.13 183.061 713.61 187.11 719.28 187.11 c 0
 729 187.11 736.29 179.011 736.29 169.29 c 0
 736.29 166.05 735.48 161.189 733.86 158.761 c 0
 669.87 63.1797 559.71 0 435.78 0 c 0
 238.14 0 77.7607 160.38 77.7607 358.02 c 0
 77.7607 555.66 238.14 716.04 435.78 716.04 c 0
EndSplineSet
Validated: 1
EndChar

StartChar: eacute
Encoding: 354 233 98
Width: 873
VWidth: 0
Flags: W
HStem: 0 35.6396<335.061 541.146> 378.27 35.6406<191.166 753.3> 680.4 35.6396<335.061 535.419> 1074.31 20G<545.94 553.23>
VStem: 77.7607 35.6396<257.301 458.738>
LayerCount: 2
Fore
SplineSet
547.561 1094.31 m 5
 548.37 1094.31 l 4
 558.09 1094.31 566.189 1086.21 566.189 1076.49 c 4
 566.189 1070.82 562.95 1065.15 558.09 1061.91 c 6
 331.29 910.439 l 6
 328.86 908.82 324.811 907.2 321.57 907.2 c 4
 311.85 907.2 303.75 915.3 303.75 925.02 c 4
 303.75 930.689 307.8 937.17 311.85 940.41 c 6
 538.65 1091.07 l 6
 541.08 1092.69 544.32 1094.31 547.561 1094.31 c 5
435.78 716.04 m 0
 619.65 716.04 771.93 576.72 791.37 397.71 c 0
 791.37 396.9 792.18 396.9 792.18 396.09 c 0
 792.18 386.37 784.08 378.27 774.36 378.27 c 0
 208.98 378.27 l 2
 199.261 378.27 191.16 386.37 191.16 396.09 c 0
 191.16 405.811 199.261 413.91 208.98 413.91 c 0
 753.3 413.91 l 1
 726.57 565.38 595.35 680.4 435.78 680.4 c 0
 257.58 680.4 113.4 536.22 113.4 358.02 c 0
 113.4 179.82 257.58 35.6396 435.78 35.6396 c 0
 547.561 35.6396 646.38 92.3398 703.89 179.011 c 0
 707.13 183.061 713.61 187.11 719.28 187.11 c 0
 729 187.11 736.29 179.011 736.29 169.29 c 0
 736.29 166.05 735.48 161.189 733.86 158.761 c 0
 669.87 63.1797 559.71 0 435.78 0 c 0
 238.14 0 77.7607 160.38 77.7607 358.02 c 0
 77.7607 555.66 238.14 716.04 435.78 716.04 c 0
EndSplineSet
Validated: 1
EndChar

StartChar: ecircumflex
Encoding: 355 234 99
Width: 872
VWidth: 0
Flags: W
HStem: 0 35.6396<335.061 541.146> 378.27 35.6406<191.166 753.3> 680.4 35.6396<335.061 535.419> 1074.31 20G<452.385 457.245>
VStem: 77.7607 35.6396<257.301 458.738>
LayerCount: 2
Fore
SplineSet
454.41 1094.31 m 4
 455.22 1094.31 l 4
 459.27 1094.31 464.13 1092.69 467.37 1089.45 c 6
 618.84 937.98 l 5
 593.73 912.87 l 5
 455.22 1051.38 l 5
 316.71 912.87 l 5
 291.6 937.98 l 5
 442.261 1089.45 l 6
 444.689 1091.88 450.36 1094.31 454.41 1094.31 c 4
435.78 716.04 m 0
 619.65 716.04 771.93 576.72 791.37 397.71 c 0
 791.37 396.9 792.18 396.9 792.18 396.09 c 0
 792.18 386.37 784.08 378.27 774.36 378.27 c 0
 208.98 378.27 l 2
 199.261 378.27 191.16 386.37 191.16 396.09 c 0
 191.16 405.811 199.261 413.91 208.98 413.91 c 0
 753.3 413.91 l 1
 726.57 565.38 595.35 680.4 435.78 680.4 c 0
 257.58 680.4 113.4 536.22 113.4 358.02 c 0
 113.4 179.82 257.58 35.6396 435.78 35.6396 c 0
 547.561 35.6396 646.38 92.3398 703.89 179.011 c 0
 707.13 183.061 713.61 187.11 719.28 187.11 c 0
 729 187.11 736.29 179.011 736.29 169.29 c 0
 736.29 166.05 735.48 161.189 733.86 158.761 c 0
 669.87 63.1797 559.71 0 435.78 0 c 0
 238.14 0 77.7607 160.38 77.7607 358.02 c 0
 77.7607 555.66 238.14 716.04 435.78 716.04 c 0
EndSplineSet
Validated: 1
EndChar

StartChar: edieresis
Encoding: 356 235 100
Width: 874
VWidth: 0
Flags: W
HStem: 0 35.6396<336.682 542.766> 378.27 35.6406<192.786 754.92> 680.4 35.6396<336.682 537.039> 983.34 35.6406<313.274 352.098 546.554 585.378> 1058.67 35.6406<313.246 352.124 546.525 585.404>
VStem: 79.3799 35.6396<257.301 458.738> 277.02 35.6406<1019.59 1058.42> 352.35 35.6396<1019.57 1058.44> 510.3 35.6396<1019.59 1058.42> 585.63 35.6396<1019.57 1058.44>
LayerCount: 2
Fore
SplineSet
332.91 1094.31 m 4
 363.689 1094.31 387.989 1070.01 387.989 1039.23 c 4
 387.989 1008.45 363.689 983.34 332.91 983.34 c 4
 302.13 983.34 277.02 1008.45 277.02 1039.23 c 4
 277.02 1070.01 302.13 1094.31 332.91 1094.31 c 4
566.189 1094.31 m 4
 596.97 1094.31 621.27 1070.01 621.27 1039.23 c 4
 621.27 1008.45 596.97 983.34 566.189 983.34 c 4
 535.41 983.34 510.3 1008.45 510.3 1039.23 c 4
 510.3 1070.01 535.41 1094.31 566.189 1094.31 c 4
332.91 1058.67 m 4
 321.57 1058.67 312.66 1050.57 312.66 1039.23 c 4
 312.66 1027.89 321.57 1018.98 332.91 1018.98 c 4
 344.25 1018.98 352.35 1027.89 352.35 1039.23 c 4
 352.35 1050.57 344.25 1058.67 332.91 1058.67 c 4
566.189 1058.67 m 4
 554.85 1058.67 545.939 1050.57 545.939 1039.23 c 4
 545.939 1027.89 554.85 1018.98 566.189 1018.98 c 4
 577.53 1018.98 585.63 1027.89 585.63 1039.23 c 4
 585.63 1050.57 577.53 1058.67 566.189 1058.67 c 4
437.4 716.04 m 0
 621.27 716.04 773.55 576.72 792.989 397.71 c 0
 792.989 396.9 793.8 396.9 793.8 396.09 c 0
 793.8 386.37 785.7 378.27 775.98 378.27 c 0
 210.6 378.27 l 2
 200.88 378.27 192.78 386.37 192.78 396.09 c 0
 192.78 405.811 200.88 413.91 210.6 413.91 c 0
 754.92 413.91 l 1
 728.189 565.38 596.97 680.4 437.4 680.4 c 0
 259.2 680.4 115.02 536.22 115.02 358.02 c 0
 115.02 179.82 259.2 35.6396 437.4 35.6396 c 0
 549.18 35.6396 648 92.3398 705.511 179.011 c 0
 708.75 183.061 715.23 187.11 720.9 187.11 c 0
 730.62 187.11 738.72 179.011 738.72 169.29 c 0
 738.72 166.05 737.1 161.189 735.48 158.761 c 0
 671.489 63.1797 561.33 0 437.4 0 c 0
 239.761 0 79.3799 160.38 79.3799 358.02 c 0
 79.3799 555.66 239.761 716.04 437.4 716.04 c 0
EndSplineSet
Validated: 1
EndChar

StartChar: igrave
Encoding: 357 236 101
Width: 384
VWidth: 0
Flags: W
HStem: 0 21G<186.3 196.02> 696.04 20G<185.49 196.02> 1074.31 20G<72.9004 79.3804>
VStem: 173.34 35.6406<0.00590762 698.22>
LayerCount: 2
Fore
SplineSet
77.7607 1094.31 m 4
 81 1094.31 85.0498 1092.69 87.4805 1091.07 c 6
 314.28 940.41 l 6
 318.33 937.17 322.38 929.88 322.38 925.02 c 4
 322.38 915.3 314.28 907.2 304.561 907.2 c 4
 301.32 907.2 297.27 908.82 294.84 910.439 c 6
 68.04 1061.91 l 6
 63.1797 1065.15 59.9395 1070.82 59.9395 1076.49 c 4
 59.9395 1086.21 68.04 1094.31 77.7607 1094.31 c 4
190.35 716.04 m 0
 191.16 716.04 l 0
 200.88 716.04 208.98 707.939 208.98 698.22 c 0
 208.98 17.8203 l 2
 208.98 8.09961 200.88 0 191.16 0 c 0
 181.439 0 173.34 8.09961 173.34 17.8203 c 0
 173.34 698.22 l 2
 173.34 707.939 180.63 716.04 190.35 716.04 c 0
EndSplineSet
Validated: 1
EndChar

StartChar: iacute
Encoding: 358 237 102
Width: 380
VWidth: 0
Flags: W
HStem: 0 21G<183.06 192.78> 696.04 20G<182.25 192.78> 1074.31 20G<298.89 306.18>
VStem: 170.1 35.6396<0.00590762 698.22>
LayerCount: 2
Fore
SplineSet
300.511 1094.31 m 5
 301.32 1094.31 l 4
 311.04 1094.31 319.14 1086.21 319.14 1076.49 c 4
 319.14 1070.82 315.9 1065.15 311.04 1061.91 c 6
 84.2393 910.439 l 6
 81.8105 908.82 77.7607 907.2 74.5195 907.2 c 4
 64.7998 907.2 56.7002 915.3 56.7002 925.02 c 4
 56.7002 930.689 60.75 937.17 64.7998 940.41 c 6
 291.6 1091.07 l 6
 294.03 1092.69 297.27 1094.31 300.511 1094.31 c 5
187.11 716.04 m 0
 187.92 716.04 l 0
 197.64 716.04 205.739 707.939 205.739 698.22 c 0
 205.739 17.8203 l 2
 205.739 8.09961 197.64 0 187.92 0 c 0
 178.2 0 170.1 8.09961 170.1 17.8203 c 0
 170.1 698.22 l 2
 170.1 707.939 177.39 716.04 187.11 716.04 c 0
EndSplineSet
Validated: 1
EndChar

StartChar: icircumflex
Encoding: 359 238 103
Width: 443
VWidth: 0
Flags: W
HStem: 0 21G<215.46 225.18> 696.04 20G<215.46 225.18> 1074.31 20G<218.295 222.345>
VStem: 202.5 35.6396<0.00590762 716.034>
LayerCount: 2
Fore
SplineSet
220.32 1094.31 m 4
 224.37 1094.31 229.23 1092.69 232.47 1089.45 c 6
 383.939 937.98 l 5
 358.83 912.87 l 5
 220.32 1051.38 l 5
 81.8105 912.87 l 5
 56.7002 937.98 l 5
 207.36 1089.45 l 6
 209.79 1091.88 216.27 1094.31 220.32 1094.31 c 4
220.32 716.04 m 0
 230.04 716.04 238.14 707.939 238.14 698.22 c 0
 238.14 17.8203 l 2
 238.14 8.09961 230.04 0 220.32 0 c 0
 210.6 0 202.5 8.09961 202.5 17.8203 c 0
 202.5 698.22 l 2
 202.5 707.939 210.6 716.04 220.32 716.04 c 0
EndSplineSet
Validated: 1
EndChar

StartChar: uni00B5
Encoding: 360 181 104
Width: 837
VWidth: 0
Flags: W
HStem: 0 35.6396<355.606 562.045> 696.04 20G<116.64 118.26 716.85 726.57>
VStem: 99.6299 35.6396<-151.464 202.5 256.683 707.939> 703.89 35.6406<0.00590762 98.8203 131.539 716.034>
LayerCount: 2
Fore
SplineSet
117.45 716.04 m 6
 119.07 716.04 122.311 716.04 123.93 715.23 c 4
 126.36 714.42 129.6 711.18 131.22 709.561 c 4
 131.22 709.561 132.03 708.75 132.03 707.939 c 4
 132.84 707.13 133.65 705.511 133.65 704.7 c 4
 134.46 703.08 135.27 701.46 135.27 699.84 c 4
 135.27 699.03 135.27 699.03 135.27 698.22 c 4
 135.27 350.73 l 5
 139.32 175.77 281.88 35.6396 457.65 35.6396 c 4
 556.47 35.6396 644.761 80.1895 703.89 150.66 c 5
 703.89 698.22 l 6
 703.89 707.939 711.989 716.04 721.71 716.04 c 4
 731.43 716.04 739.53 707.939 739.53 698.22 c 4
 739.53 146.61 l 6
 739.53 145.8 739.53 144.989 739.53 144.18 c 4
 739.53 143.37 739.53 143.37 739.53 142.561 c 6
 739.53 17.8203 l 6
 739.53 8.09961 731.43 0 721.71 0 c 4
 711.989 0 703.89 8.09961 703.89 17.8203 c 4
 703.89 98.8203 l 5
 639.9 38.0703 553.23 0 457.65 0 c 4
 315.9 0 193.59 82.6201 135.27 202.5 c 5
 135.27 -133.65 l 6
 135.27 -143.37 127.17 -151.47 117.45 -151.47 c 4
 107.73 -151.47 99.6299 -143.37 99.6299 -133.65 c 4
 99.6299 349.92 l 6
 99.6299 350.73 l 6
 99.6299 698.22 l 6
 99.6299 699.03 l 4
 99.6299 699.84 99.6299 700.65 99.6299 701.46 c 4
 99.6299 702.27 100.439 702.27 100.439 703.08 c 4
 100.439 703.89 100.439 705.511 101.25 706.32 c 4
 101.25 707.13 102.061 707.13 102.061 707.939 c 4
 102.87 708.75 103.68 709.561 104.489 710.37 c 4
 105.3 711.989 l 4
 105.3 711.989 106.11 712.8 106.92 712.8 c 4
 106.92 712.8 107.73 713.61 108.54 713.61 c 4
 109.35 714.42 110.97 715.23 111.78 715.23 c 4
 113.4 716.04 115.83 716.04 117.45 716.04 c 6
EndSplineSet
Validated: 1
EndChar

StartChar: ccedilla
Encoding: 361 231 105
Width: 813
VWidth: 0
Flags: W
HStem: -302.939 35.6396<382.846 491.954> 0 34.8301<339.572 419.58 455.22 539.039> 679.59 35.6406<336.682 542.766>
VStem: 79.3799 35.6396<254.125 457.929> 306.18 35.6406<-225.558 -153.906> 419.58 35.6396<-45.7947 0> 532.98 35.6396<-226.274 -116.548>
LayerCount: 2
Fore
SplineSet
437.4 715.23 m 4
 561.33 715.23 671.489 652.05 735.48 556.47 c 4
 737.1 554.04 737.91 549.989 737.91 546.75 c 4
 737.91 537.03 729.811 528.93 720.09 528.93 c 4
 715.23 528.93 708.75 532.98 705.511 537.03 c 4
 648 623.7 549.18 679.59 437.4 679.59 c 4
 259.2 679.59 115.02 535.41 115.02 357.21 c 4
 115.02 179.82 257.58 36.4502 434.97 34.8301 c 4
 435.78 34.8301 436.59 35.6396 437.4 35.6396 c 4
 438.21 35.6396 439.02 34.8301 439.83 34.8301 c 4
 550.8 35.6396 648 92.3398 705.511 178.2 c 4
 708.75 182.25 715.23 186.3 720.09 186.3 c 4
 729.811 186.3 737.91 178.2 737.91 168.48 c 4
 737.91 165.239 737.1 161.189 735.48 158.761 c 4
 674.73 67.2305 571.86 5.66992 455.22 0 c 5
 455.22 -42.1201 l 5
 519.21 -51.0303 568.62 -105.3 568.62 -171.72 c 4
 568.62 -243.811 509.489 -302.939 437.4 -302.939 c 4
 365.311 -302.939 306.18 -243.811 306.18 -171.72 c 4
 306.18 -162 314.28 -153.9 324 -153.9 c 4
 333.72 -153.9 341.82 -162 341.82 -171.72 c 4
 341.82 -224.37 384.75 -267.3 437.4 -267.3 c 4
 490.05 -267.3 532.98 -224.37 532.98 -171.72 c 4
 532.98 -119.07 490.05 -76.1396 437.4 -76.1396 c 4
 427.68 -76.1396 419.58 -68.04 419.58 -58.3203 c 6
 419.58 0 l 5
 230.04 8.91016 79.3799 166.05 79.3799 357.21 c 4
 79.3799 554.85 239.761 715.23 437.4 715.23 c 4
EndSplineSet
Validated: 1
EndChar

StartChar: Agrave
Encoding: 362 192 106
Width: 923
VWidth: 0
Flags: W
HStem: 0 21G<79.3794 87.8848 836.325 844.83> 370.98 35.6396<242.189 682.02> 1073.5 20G<458.055 465.75>
VStem: 66.4199 34.8301<0.0164628 12.1504> 822.96 34.8301<0.0164628 12.1504>
LayerCount: 2
Fore
SplineSet
342.63 1323.54 m 4
 345.87 1323.54 349.92 1322.73 352.35 1321.11 c 6
 579.15 1169.64 l 6
 583.2 1166.4 587.25 1159.92 587.25 1155.06 c 4
 587.25 1145.34 579.15 1137.24 569.43 1137.24 c 4
 566.189 1137.24 562.14 1138.05 559.71 1139.67 c 6
 332.91 1291.14 l 6
 328.05 1294.38 324.811 1300.05 324.811 1305.72 c 4
 324.811 1315.44 332.91 1323.54 342.63 1323.54 c 4
462.511 1093.5 m 0
 468.989 1093.5 476.28 1088.64 478.71 1082.16 c 2
 724.14 396.09 l 2
 724.95 395.28 724.95 393.66 724.95 392.85 c 2
 856.98 23.4893 l 2
 857.79 21.8701 857.79 19.4395 857.79 17.8203 c 0
 857.79 8.09961 849.689 0 839.97 0 c 0
 832.68 0 825.39 5.66992 822.96 12.1504 c 2
 694.98 370.98 l 1
 229.23 370.98 l 1
 101.25 12.1504 l 2
 98.8203 5.66992 91.5303 0 84.2393 0 c 0
 74.5195 0 66.4199 8.09961 66.4199 17.8203 c 0
 66.4199 19.4395 66.4199 21.8701 67.2305 23.4893 c 2
 197.64 389.61 l 2
 197.64 392.85 200.07 396.9 201.689 399.33 c 2
 445.5 1082.16 l 2
 447.93 1088.64 454.41 1093.5 461.7 1093.5 c 0
 462.511 1093.5 l 0
462.511 1023.03 m 1
 242.189 406.62 l 1
 682.02 406.62 l 1
 462.511 1023.03 l 1
EndSplineSet
Validated: 1
EndChar

StartChar: Aacute
Encoding: 363 193 107
Width: 923
VWidth: 0
Flags: W
HStem: 0 21G<79.3794 87.8848 836.325 844.83> 370.98 35.6396<242.189 682.02> 1073.5 20G<458.055 465.75>
VStem: 66.4199 34.8301<0.0164628 12.1504> 822.96 34.8301<0.0164628 12.1504>
LayerCount: 2
Fore
SplineSet
584.82 1326.78 m 5
 585.63 1327.59 l 4
 595.35 1327.59 603.45 1319.49 603.45 1309.77 c 4
 603.45 1304.1 600.21 1297.62 595.35 1294.38 c 6
 368.55 1142.91 l 6
 366.12 1141.29 361.261 1140.48 358.02 1140.48 c 4
 348.3 1140.48 340.2 1148.58 340.2 1158.3 c 4
 340.2 1163.97 344.25 1169.64 348.3 1172.88 c 6
 575.1 1324.35 l 6
 577.53 1325.97 581.58 1326.78 584.82 1326.78 c 5
462.511 1093.5 m 0
 468.989 1093.5 476.28 1088.64 478.71 1082.16 c 2
 724.14 396.09 l 2
 724.95 395.28 724.95 393.66 724.95 392.85 c 2
 856.98 23.4893 l 2
 857.79 21.8701 857.79 19.4395 857.79 17.8203 c 0
 857.79 8.09961 849.689 0 839.97 0 c 0
 832.68 0 825.39 5.66992 822.96 12.1504 c 2
 694.98 370.98 l 1
 229.23 370.98 l 1
 101.25 12.1504 l 2
 98.8203 5.66992 91.5303 0 84.2393 0 c 0
 74.5195 0 66.4199 8.09961 66.4199 17.8203 c 0
 66.4199 19.4395 66.4199 21.8701 67.2305 23.4893 c 2
 197.64 389.61 l 2
 197.64 392.85 200.07 396.9 201.689 399.33 c 2
 445.5 1082.16 l 2
 447.93 1088.64 454.41 1093.5 461.7 1093.5 c 0
 462.511 1093.5 l 0
462.511 1023.03 m 1
 242.189 406.62 l 1
 682.02 406.62 l 1
 462.511 1023.03 l 1
EndSplineSet
Validated: 1
EndChar

StartChar: Acircumflex
Encoding: 364 194 108
Width: 923
VWidth: 0
Flags: W
HStem: 0 21G<79.3794 87.8848 836.325 844.83> 370.98 35.6396<242.189 682.02> 1073.5 20G<458.055 465.75>
VStem: 66.4199 34.8301<0.0164628 12.1504> 822.96 34.8301<0.0164628 12.1504>
LayerCount: 2
Fore
SplineSet
468.989 1327.59 m 4
 473.04 1327.59 478.71 1325.16 481.95 1321.92 c 6
 632.61 1170.45 l 5
 607.5 1145.34 l 5
 468.989 1284.66 l 5
 330.48 1145.34 l 5
 305.37 1170.45 l 5
 456.84 1321.92 l 6
 459.27 1324.35 464.939 1327.59 468.989 1327.59 c 4
462.511 1093.5 m 0
 468.989 1093.5 476.28 1088.64 478.71 1082.16 c 2
 724.14 396.09 l 2
 724.95 395.28 724.95 393.66 724.95 392.85 c 2
 856.98 23.4893 l 2
 857.79 21.8701 857.79 19.4395 857.79 17.8203 c 0
 857.79 8.09961 849.689 0 839.97 0 c 0
 832.68 0 825.39 5.66992 822.96 12.1504 c 2
 694.98 370.98 l 1
 229.23 370.98 l 1
 101.25 12.1504 l 2
 98.8203 5.66992 91.5303 0 84.2393 0 c 0
 74.5195 0 66.4199 8.09961 66.4199 17.8203 c 0
 66.4199 19.4395 66.4199 21.8701 67.2305 23.4893 c 2
 197.64 389.61 l 2
 197.64 392.85 200.07 396.9 201.689 399.33 c 2
 445.5 1082.16 l 2
 447.93 1088.64 454.41 1093.5 461.7 1093.5 c 0
 462.511 1093.5 l 0
462.511 1023.03 m 1
 242.189 406.62 l 1
 682.02 406.62 l 1
 462.511 1023.03 l 1
EndSplineSet
Validated: 1
EndChar

StartChar: Atilde
Encoding: 365 195 109
Width: 923
VWidth: 0
Flags: W
HStem: 0 21G<79.3794 87.8848 836.325 844.83> 370.98 35.6396<242.189 682.02> 1073.5 20G<458.055 465.75>
VStem: 66.4199 34.8301<0.0164628 12.1504> 822.96 34.8301<0.0164628 12.1504>
LayerCount: 2
Fore
SplineSet
462.511 1093.5 m 4
 468.989 1093.5 476.28 1088.64 478.71 1082.16 c 6
 724.14 396.09 l 6
 724.95 395.28 724.95 393.66 724.95 392.85 c 6
 856.98 23.4893 l 6
 857.79 21.8701 857.79 19.4395 857.79 17.8203 c 4
 857.79 8.09961 849.689 0 839.97 0 c 4
 832.68 0 825.39 5.66992 822.96 12.1504 c 6
 694.98 370.98 l 5
 229.23 370.98 l 5
 101.25 12.1504 l 6
 98.8203 5.66992 91.5303 0 84.2393 0 c 4
 74.5195 0 66.4199 8.09961 66.4199 17.8203 c 4
 66.4199 19.4395 66.4199 21.8701 67.2305 23.4893 c 6
 197.64 389.61 l 6
 197.64 392.85 200.07 396.9 201.689 399.33 c 6
 445.5 1082.16 l 6
 447.93 1088.64 454.41 1093.5 461.7 1093.5 c 4
 462.511 1093.5 l 4
462.511 1023.03 m 5
 242.189 406.62 l 5
 682.02 406.62 l 5
 462.511 1023.03 l 5
EndSplineSet
Validated: 1
EndChar

StartChar: Adieresis
Encoding: 366 196 110
Width: 923
VWidth: 0
Flags: W
HStem: 0 21G<79.3794 87.8848 836.325 844.83> 370.98 35.6396<242.189 682.02> 1073.5 20G<458.055 465.75> 1212.57 35.6396<325.424 364.647 558.704 597.926> 1287.9 35.6396<325.396 364.675 558.675 597.955>
VStem: 66.4199 34.8301<0.0164628 12.1504> 289.17 35.6406<1248.82 1287.65> 365.311 34.8291<1248.86 1287.62> 522.45 35.6396<1248.82 1287.65> 598.59 34.8301<1248.86 1287.62> 822.96 34.8301<0.0164628 12.1504>
LayerCount: 2
Fore
SplineSet
345.061 1323.54 m 4
 375.84 1323.54 400.14 1299.24 400.14 1268.46 c 4
 400.14 1237.68 375.84 1212.57 345.061 1212.57 c 4
 314.28 1212.57 289.17 1237.68 289.17 1268.46 c 4
 289.17 1299.24 314.28 1323.54 345.061 1323.54 c 4
578.34 1323.54 m 4
 609.12 1323.54 633.42 1299.24 633.42 1268.46 c 4
 633.42 1237.68 609.12 1212.57 578.34 1212.57 c 4
 547.561 1212.57 522.45 1237.68 522.45 1268.46 c 4
 522.45 1299.24 547.561 1323.54 578.34 1323.54 c 4
345.061 1287.9 m 4
 333.72 1287.9 324.811 1279.8 324.811 1268.46 c 4
 324.811 1257.12 333.72 1248.21 345.061 1248.21 c 4
 356.4 1248.21 365.311 1257.12 365.311 1268.46 c 4
 365.311 1279.8 356.4 1287.9 345.061 1287.9 c 4
578.34 1287.9 m 4
 567 1287.9 558.09 1279.8 558.09 1268.46 c 4
 558.09 1257.12 567 1248.21 578.34 1248.21 c 4
 589.68 1248.21 598.59 1257.12 598.59 1268.46 c 4
 598.59 1279.8 589.68 1287.9 578.34 1287.9 c 4
462.511 1093.5 m 0
 468.989 1093.5 476.28 1088.64 478.71 1082.16 c 2
 724.14 396.09 l 2
 724.95 395.28 724.95 393.66 724.95 392.85 c 2
 856.98 23.4893 l 2
 857.79 21.8701 857.79 19.4395 857.79 17.8203 c 0
 857.79 8.09961 849.689 0 839.97 0 c 0
 832.68 0 825.39 5.66992 822.96 12.1504 c 2
 694.98 370.98 l 1
 229.23 370.98 l 1
 101.25 12.1504 l 2
 98.8203 5.66992 91.5303 0 84.2393 0 c 0
 74.5195 0 66.4199 8.09961 66.4199 17.8203 c 0
 66.4199 19.4395 66.4199 21.8701 67.2305 23.4893 c 2
 197.64 389.61 l 2
 197.64 392.85 200.07 396.9 201.689 399.33 c 2
 445.5 1082.16 l 2
 447.93 1088.64 454.41 1093.5 461.7 1093.5 c 0
 462.511 1093.5 l 0
462.511 1023.03 m 1
 242.189 406.62 l 1
 682.02 406.62 l 1
 462.511 1023.03 l 1
EndSplineSet
Validated: 1
EndChar

StartChar: Aring
Encoding: 367 197 111
Width: 923
VWidth: 0
Flags: W
HStem: 0 21G<79.3794 87.8848 836.325 844.83> 370.98 35.6396<242.189 682.02> 1073.5 20G<458.055 465.75>
VStem: 66.4199 34.8301<0.0164628 12.1504> 822.96 34.8301<0.0164628 12.1504>
LayerCount: 2
Fore
SplineSet
462.511 1093.5 m 4
 468.989 1093.5 476.28 1088.64 478.71 1082.16 c 6
 724.14 396.09 l 6
 724.95 395.28 724.95 393.66 724.95 392.85 c 6
 856.98 23.4893 l 6
 857.79 21.8701 857.79 19.4395 857.79 17.8203 c 4
 857.79 8.09961 849.689 0 839.97 0 c 4
 832.68 0 825.39 5.66992 822.96 12.1504 c 6
 694.98 370.98 l 5
 229.23 370.98 l 5
 101.25 12.1504 l 6
 98.8203 5.66992 91.5303 0 84.2393 0 c 4
 74.5195 0 66.4199 8.09961 66.4199 17.8203 c 4
 66.4199 19.4395 66.4199 21.8701 67.2305 23.4893 c 6
 197.64 389.61 l 6
 197.64 392.85 200.07 396.9 201.689 399.33 c 6
 445.5 1082.16 l 6
 447.93 1088.64 454.41 1093.5 461.7 1093.5 c 4
 462.511 1093.5 l 4
462.511 1023.03 m 5
 242.189 406.62 l 5
 682.02 406.62 l 5
 462.511 1023.03 l 5
EndSplineSet
Validated: 1
EndChar

StartChar: Egrave
Encoding: 368 200 112
Width: 809
VWidth: 0
Flags: W
HStem: 0 35.6396<132.03 737.094> 378.27 34.8301<132.03 661.764> 1058.67 34.8301<132.03 737.094>
VStem: 96.3896 35.6406<35.6396 378.27 413.1 1058.67>
LayerCount: 2
Fore
SplineSet
297.27 1323.54 m 4
 300.511 1323.54 304.561 1322.73 306.989 1321.11 c 6
 533.79 1169.64 l 6
 537.84 1166.4 541.89 1159.92 541.89 1155.06 c 4
 541.89 1145.34 533.79 1137.24 524.07 1137.24 c 4
 520.83 1137.24 516.78 1138.05 514.35 1139.67 c 6
 287.55 1291.14 l 6
 282.689 1294.38 279.45 1300.05 279.45 1305.72 c 4
 279.45 1315.44 287.55 1323.54 297.27 1323.54 c 4
114.21 1093.5 m 1
 719.28 1093.5 l 2
 729 1093.5 737.1 1086.21 737.1 1076.49 c 0
 737.1 1066.77 729 1058.67 719.28 1058.67 c 0
 132.03 1058.67 l 1
 132.03 413.1 l 1
 643.14 413.91 l 2
 643.95 413.91 l 0
 653.67 413.91 661.77 405.811 661.77 396.09 c 0
 661.77 386.37 653.67 378.27 643.95 378.27 c 0
 643.14 378.27 l 2
 132.03 378.27 l 1
 132.03 35.6396 l 1
 719.28 35.6396 l 2
 729 35.6396 737.1 27.54 737.1 17.8203 c 0
 737.1 8.09961 729 0 719.28 0 c 0
 114.21 0 l 2
 104.489 0 96.3896 8.09961 96.3896 17.8203 c 2
 96.3896 392.85 l 2
 96.3896 393.66 96.3896 395.28 96.3896 396.09 c 0
 96.3896 396.9 96.3896 397.71 96.3896 398.52 c 2
 96.3896 1076.49 l 2
 96.3896 1086.21 104.489 1093.5 114.21 1093.5 c 1
EndSplineSet
Validated: 1
EndChar

StartChar: Eacute
Encoding: 369 201 113
Width: 809
VWidth: 0
Flags: W
HStem: 0 35.6396<132.03 737.094> 378.27 34.8301<132.03 661.764> 1058.67 34.8301<132.03 737.094>
VStem: 96.3896 35.6406<35.6396 378.27 413.1 1058.67>
LayerCount: 2
Fore
SplineSet
539.46 1326.78 m 5
 540.27 1327.59 l 4
 549.989 1327.59 558.09 1319.49 558.09 1309.77 c 4
 558.09 1304.1 554.85 1297.62 549.989 1294.38 c 6
 323.189 1142.91 l 6
 320.761 1141.29 315.9 1140.48 312.66 1140.48 c 4
 302.939 1140.48 294.84 1148.58 294.84 1158.3 c 4
 294.84 1163.97 298.89 1169.64 302.939 1172.88 c 6
 529.739 1324.35 l 6
 532.17 1325.97 536.22 1326.78 539.46 1326.78 c 5
114.21 1093.5 m 1
 719.28 1093.5 l 2
 729 1093.5 737.1 1086.21 737.1 1076.49 c 0
 737.1 1066.77 729 1058.67 719.28 1058.67 c 0
 132.03 1058.67 l 1
 132.03 413.1 l 1
 643.14 413.91 l 2
 643.95 413.91 l 0
 653.67 413.91 661.77 405.811 661.77 396.09 c 0
 661.77 386.37 653.67 378.27 643.95 378.27 c 0
 643.14 378.27 l 2
 132.03 378.27 l 1
 132.03 35.6396 l 1
 719.28 35.6396 l 2
 729 35.6396 737.1 27.54 737.1 17.8203 c 0
 737.1 8.09961 729 0 719.28 0 c 0
 114.21 0 l 2
 104.489 0 96.3896 8.09961 96.3896 17.8203 c 2
 96.3896 392.85 l 2
 96.3896 393.66 96.3896 395.28 96.3896 396.09 c 0
 96.3896 396.9 96.3896 397.71 96.3896 398.52 c 2
 96.3896 1076.49 l 2
 96.3896 1086.21 104.489 1093.5 114.21 1093.5 c 1
EndSplineSet
Validated: 1
EndChar

StartChar: Ecircumflex
Encoding: 370 202 114
Width: 809
VWidth: 0
Flags: W
HStem: 0 35.6396<132.03 737.094> 378.27 34.8301<132.03 661.764> 1058.67 34.8301<132.03 737.094>
VStem: 96.3896 35.6406<35.6396 378.27 413.1 1058.67>
LayerCount: 2
Fore
SplineSet
423.63 1327.59 m 4
 427.68 1327.59 432.54 1325.16 435.78 1321.92 c 6
 587.25 1170.45 l 5
 562.14 1145.34 l 5
 423.63 1284.66 l 5
 285.12 1145.34 l 5
 260.011 1170.45 l 5
 410.67 1321.92 l 6
 413.1 1324.35 419.58 1327.59 423.63 1327.59 c 4
114.21 1093.5 m 1
 719.28 1093.5 l 2
 729 1093.5 737.1 1086.21 737.1 1076.49 c 0
 737.1 1066.77 729 1058.67 719.28 1058.67 c 0
 132.03 1058.67 l 1
 132.03 413.1 l 1
 643.14 413.91 l 2
 643.95 413.91 l 0
 653.67 413.91 661.77 405.811 661.77 396.09 c 0
 661.77 386.37 653.67 378.27 643.95 378.27 c 0
 643.14 378.27 l 2
 132.03 378.27 l 1
 132.03 35.6396 l 1
 719.28 35.6396 l 2
 729 35.6396 737.1 27.54 737.1 17.8203 c 0
 737.1 8.09961 729 0 719.28 0 c 0
 114.21 0 l 2
 104.489 0 96.3896 8.09961 96.3896 17.8203 c 2
 96.3896 392.85 l 2
 96.3896 393.66 96.3896 395.28 96.3896 396.09 c 0
 96.3896 396.9 96.3896 397.71 96.3896 398.52 c 2
 96.3896 1076.49 l 2
 96.3896 1086.21 104.489 1093.5 114.21 1093.5 c 1
EndSplineSet
Validated: 1
EndChar

StartChar: Edieresis
Encoding: 371 203 115
Width: 809
VWidth: 0
Flags: W
HStem: 0 35.6396<132.03 737.094> 378.27 34.8301<132.03 661.764> 1058.67 34.8301<132.03 737.094> 1212.57 35.6396<280.064 318.888 513.344 552.169> 1287.9 35.6396<280.036 318.914 513.316 552.195>
VStem: 96.3896 35.6406<35.6396 378.27 413.1 1058.67> 243.811 35.6396<1248.82 1287.65> 319.14 35.6406<1248.8 1287.67> 477.09 35.6406<1248.82 1287.65> 552.42 35.6406<1248.8 1287.67>
LayerCount: 2
Fore
SplineSet
299.7 1323.54 m 4
 330.48 1323.54 354.78 1299.24 354.78 1268.46 c 4
 354.78 1237.68 330.48 1212.57 299.7 1212.57 c 4
 268.92 1212.57 243.811 1237.68 243.811 1268.46 c 4
 243.811 1299.24 268.92 1323.54 299.7 1323.54 c 4
532.98 1323.54 m 4
 563.761 1323.54 588.061 1299.24 588.061 1268.46 c 4
 588.061 1237.68 563.761 1212.57 532.98 1212.57 c 4
 502.2 1212.57 477.09 1237.68 477.09 1268.46 c 4
 477.09 1299.24 502.2 1323.54 532.98 1323.54 c 4
299.7 1287.9 m 4
 288.36 1287.9 279.45 1279.8 279.45 1268.46 c 4
 279.45 1257.12 288.36 1248.21 299.7 1248.21 c 4
 311.04 1248.21 319.14 1257.12 319.14 1268.46 c 4
 319.14 1279.8 311.04 1287.9 299.7 1287.9 c 4
532.98 1287.9 m 4
 521.64 1287.9 512.73 1279.8 512.73 1268.46 c 4
 512.73 1257.12 521.64 1248.21 532.98 1248.21 c 4
 544.32 1248.21 552.42 1257.12 552.42 1268.46 c 4
 552.42 1279.8 544.32 1287.9 532.98 1287.9 c 4
114.21 1093.5 m 1
 719.28 1093.5 l 2
 729 1093.5 737.1 1086.21 737.1 1076.49 c 0
 737.1 1066.77 729 1058.67 719.28 1058.67 c 0
 132.03 1058.67 l 1
 132.03 413.1 l 1
 643.14 413.91 l 2
 643.95 413.91 l 0
 653.67 413.91 661.77 405.811 661.77 396.09 c 0
 661.77 386.37 653.67 378.27 643.95 378.27 c 0
 643.14 378.27 l 2
 132.03 378.27 l 1
 132.03 35.6396 l 1
 719.28 35.6396 l 2
 729 35.6396 737.1 27.54 737.1 17.8203 c 0
 737.1 8.09961 729 0 719.28 0 c 0
 114.21 0 l 2
 104.489 0 96.3896 8.09961 96.3896 17.8203 c 2
 96.3896 392.85 l 2
 96.3896 393.66 96.3896 395.28 96.3896 396.09 c 0
 96.3896 396.9 96.3896 397.71 96.3896 398.52 c 2
 96.3896 1076.49 l 2
 96.3896 1086.21 104.489 1093.5 114.21 1093.5 c 1
EndSplineSet
Validated: 1
EndChar

StartChar: Igrave
Encoding: 372 204 116
Width: 373
VWidth: 0
Flags: W
HStem: 0 21G<187.11 196.83> 1074.31 20G<187.11 196.83>
VStem: 174.15 35.6396<0.00590762 1094.3>
LayerCount: 2
Fore
SplineSet
72.9004 1323.54 m 4
 76.1396 1323.54 80.1895 1322.73 82.6201 1321.11 c 6
 309.42 1169.64 l 6
 313.47 1166.4 317.52 1159.92 317.52 1155.06 c 4
 317.52 1145.34 309.42 1137.24 299.7 1137.24 c 4
 296.46 1137.24 292.41 1138.05 289.98 1139.67 c 6
 63.1797 1291.14 l 6
 58.3203 1294.38 55.0801 1300.05 55.0801 1305.72 c 4
 55.0801 1315.44 63.1797 1323.54 72.9004 1323.54 c 4
191.97 1094.31 m 1
 201.689 1094.31 209.79 1086.21 209.79 1076.49 c 0
 209.79 17.8203 l 2
 209.79 8.09961 201.689 0 191.97 0 c 0
 182.25 0 174.15 8.09961 174.15 17.8203 c 0
 174.15 1076.49 l 2
 174.15 1086.21 182.25 1094.31 191.97 1094.31 c 1
EndSplineSet
Validated: 1
EndChar

StartChar: Iacute
Encoding: 373 205 117
Width: 373
VWidth: 0
Flags: W
HStem: 0 21G<171.72 181.44> 1074.31 20G<170.91 181.44>
VStem: 158.761 35.6396<0.00590762 1094.3>
LayerCount: 2
Fore
SplineSet
298.89 1326.78 m 5
 299.7 1327.59 l 4
 309.42 1327.59 317.52 1319.49 317.52 1309.77 c 4
 317.52 1304.1 314.28 1297.62 309.42 1294.38 c 6
 82.6201 1142.91 l 6
 80.1895 1141.29 76.1396 1140.48 72.9004 1140.48 c 4
 63.1797 1140.48 55.0801 1148.58 55.0801 1158.3 c 4
 55.0801 1163.97 58.3203 1169.64 62.3701 1172.88 c 6
 289.17 1324.35 l 6
 291.6 1325.97 295.65 1326.78 298.89 1326.78 c 5
175.77 1094.31 m 1
 176.58 1094.31 l 0
 186.3 1094.31 194.4 1086.21 194.4 1076.49 c 0
 194.4 17.8203 l 2
 194.4 8.09961 186.3 0 176.58 0 c 0
 166.86 0 158.761 8.09961 158.761 17.8203 c 0
 158.761 1076.49 l 2
 158.761 1086.21 166.05 1094.31 175.77 1094.31 c 1
EndSplineSet
Validated: 1
EndChar

StartChar: Icircumflex
Encoding: 374 206 118
Width: 438
VWidth: 0
Flags: W
HStem: 0 21G<206.55 216.27> 1074.31 20G<206.55 216.27>
VStem: 193.59 35.6406<0.00590762 1094.3>
LayerCount: 2
Fore
SplineSet
217.89 1327.59 m 4
 218.7 1327.59 l 4
 222.75 1327.59 227.61 1325.16 230.85 1321.92 c 6
 382.32 1170.45 l 5
 357.21 1145.34 l 5
 218.7 1284.66 l 5
 80.1895 1145.34 l 5
 55.0801 1170.45 l 5
 205.739 1321.92 l 6
 208.17 1324.35 213.84 1327.59 217.89 1327.59 c 4
211.41 1094.31 m 1
 221.13 1094.31 229.23 1086.21 229.23 1076.49 c 0
 229.23 17.8203 l 2
 229.23 8.09961 221.13 0 211.41 0 c 0
 201.689 0 193.59 8.09961 193.59 17.8203 c 0
 193.59 1076.49 l 2
 193.59 1086.21 201.689 1094.31 211.41 1094.31 c 1
EndSplineSet
Validated: 1
EndChar

StartChar: Idieresis
Encoding: 375 207 119
Width: 455
VWidth: 0
Flags: W
HStem: 0 21G<222.75 232.47> 1074.31 20G<221.94 232.47> 1212.57 35.6396<90.5738 129.796 323.853 363.076> 1287.9 35.6396<90.5452 129.825 323.825 363.104>
VStem: 55.0801 34.8301<1248.86 1287.62> 130.41 35.6396<1248.82 1287.65> 209.79 35.6396<0.00590762 1076.49> 288.36 34.8291<1248.86 1287.62> 363.689 35.6406<1248.82 1287.65>
LayerCount: 2
Fore
SplineSet
110.16 1323.54 m 4
 140.939 1323.54 166.05 1299.24 166.05 1268.46 c 4
 166.05 1237.68 140.939 1212.57 110.16 1212.57 c 4
 79.3799 1212.57 55.0801 1237.68 55.0801 1268.46 c 4
 55.0801 1299.24 79.3799 1323.54 110.16 1323.54 c 4
343.439 1323.54 m 4
 374.22 1323.54 399.33 1299.24 399.33 1268.46 c 4
 399.33 1237.68 374.22 1212.57 343.439 1212.57 c 4
 312.66 1212.57 288.36 1237.68 288.36 1268.46 c 4
 288.36 1299.24 312.66 1323.54 343.439 1323.54 c 4
110.16 1287.9 m 4
 98.8203 1287.9 89.9102 1279.8 89.9102 1268.46 c 4
 89.9102 1257.12 98.8203 1248.21 110.16 1248.21 c 4
 121.5 1248.21 130.41 1257.12 130.41 1268.46 c 4
 130.41 1279.8 121.5 1287.9 110.16 1287.9 c 4
343.439 1287.9 m 4
 332.1 1287.9 323.189 1279.8 323.189 1268.46 c 4
 323.189 1257.12 332.1 1248.21 343.439 1248.21 c 4
 354.78 1248.21 363.689 1257.12 363.689 1268.46 c 4
 363.689 1279.8 354.78 1287.9 343.439 1287.9 c 4
226.8 1094.31 m 1
 227.61 1094.31 l 0
 237.33 1094.31 245.43 1086.21 245.43 1076.49 c 0
 245.43 17.8203 l 2
 245.43 8.09961 237.33 0 227.61 0 c 0
 217.89 0 209.79 8.09961 209.79 17.8203 c 0
 209.79 1076.49 l 2
 209.79 1086.21 217.08 1094.31 226.8 1094.31 c 1
EndSplineSet
Validated: 1
EndChar

StartChar: Ograve
Encoding: 376 210 120
Width: 894
VWidth: 0
Flags: W
HStem: 0 35.6396<343.161 544.599> 1058.67 34.8301<343.161 544.599>
VStem: 85.8604 35.6396<260.039 834.207> 766.261 35.6396<260.039 834.207>
LayerCount: 2
Fore
SplineSet
324.811 1323.54 m 4
 328.05 1323.54 332.1 1322.73 334.53 1321.11 c 6
 561.33 1169.64 l 6
 565.38 1166.4 569.43 1159.92 569.43 1155.06 c 4
 569.43 1145.34 561.33 1137.24 551.61 1137.24 c 4
 548.37 1137.24 544.32 1138.05 541.89 1139.67 c 6
 315.09 1291.14 l 6
 310.23 1294.38 306.989 1300.05 306.989 1305.72 c 4
 306.989 1315.44 315.09 1323.54 324.811 1323.54 c 4
443.88 1093.5 m 0
 641.52 1093.5 801.9 933.93 801.9 736.29 c 2
 801.9 358.02 l 2
 801.9 160.38 641.52 0 443.88 0 c 0
 246.239 0 85.8604 160.38 85.8604 358.02 c 2
 85.8604 736.29 l 2
 85.8604 933.93 246.239 1093.5 443.88 1093.5 c 0
443.88 1058.67 m 0
 265.68 1058.67 121.5 914.489 121.5 736.29 c 2
 121.5 358.02 l 2
 121.5 179.82 265.68 35.6396 443.88 35.6396 c 0
 622.08 35.6396 766.261 179.82 766.261 358.02 c 2
 766.261 736.29 l 2
 766.261 914.489 622.08 1058.67 443.88 1058.67 c 0
EndSplineSet
Validated: 1
EndChar

StartChar: Oacute
Encoding: 377 211 121
Width: 894
VWidth: 0
Flags: W
HStem: 0 35.6396<343.161 544.599> 1058.67 34.8301<343.161 544.599>
VStem: 85.8604 35.6396<260.039 834.207> 766.261 35.6396<260.039 834.207>
LayerCount: 2
Fore
SplineSet
567 1326.78 m 5
 567.811 1327.59 l 4
 577.53 1327.59 585.63 1319.49 585.63 1309.77 c 4
 585.63 1304.1 582.39 1297.62 577.53 1294.38 c 6
 350.73 1142.91 l 6
 348.3 1141.29 343.439 1140.48 340.2 1140.48 c 4
 330.48 1140.48 322.38 1148.58 322.38 1158.3 c 4
 322.38 1163.97 326.43 1169.64 330.48 1172.88 c 6
 557.28 1324.35 l 6
 559.71 1325.97 563.761 1326.78 567 1326.78 c 5
443.88 1093.5 m 0
 641.52 1093.5 801.9 933.93 801.9 736.29 c 2
 801.9 358.02 l 2
 801.9 160.38 641.52 0 443.88 0 c 0
 246.239 0 85.8604 160.38 85.8604 358.02 c 2
 85.8604 736.29 l 2
 85.8604 933.93 246.239 1093.5 443.88 1093.5 c 0
443.88 1058.67 m 0
 265.68 1058.67 121.5 914.489 121.5 736.29 c 2
 121.5 358.02 l 2
 121.5 179.82 265.68 35.6396 443.88 35.6396 c 0
 622.08 35.6396 766.261 179.82 766.261 358.02 c 2
 766.261 736.29 l 2
 766.261 914.489 622.08 1058.67 443.88 1058.67 c 0
EndSplineSet
Validated: 1
EndChar

StartChar: Ocircumflex
Encoding: 378 212 122
Width: 894
VWidth: 0
Flags: W
HStem: 0 35.6396<343.161 544.599> 1058.67 34.8301<343.161 544.599>
VStem: 85.8604 35.6396<260.039 834.207> 766.261 35.6396<260.039 834.207>
LayerCount: 2
Fore
SplineSet
451.17 1327.59 m 4
 455.22 1327.59 460.08 1325.16 463.32 1321.92 c 6
 614.79 1170.45 l 5
 589.68 1145.34 l 5
 451.17 1284.66 l 5
 312.66 1145.34 l 5
 287.55 1170.45 l 5
 438.21 1321.92 l 6
 440.64 1324.35 447.12 1327.59 451.17 1327.59 c 4
443.88 1093.5 m 0
 641.52 1093.5 801.9 933.93 801.9 736.29 c 2
 801.9 358.02 l 2
 801.9 160.38 641.52 0 443.88 0 c 0
 246.239 0 85.8604 160.38 85.8604 358.02 c 2
 85.8604 736.29 l 2
 85.8604 933.93 246.239 1093.5 443.88 1093.5 c 0
443.88 1058.67 m 0
 265.68 1058.67 121.5 914.489 121.5 736.29 c 2
 121.5 358.02 l 2
 121.5 179.82 265.68 35.6396 443.88 35.6396 c 0
 622.08 35.6396 766.261 179.82 766.261 358.02 c 2
 766.261 736.29 l 2
 766.261 914.489 622.08 1058.67 443.88 1058.67 c 0
EndSplineSet
Validated: 1
EndChar

StartChar: Otilde
Encoding: 379 213 123
Width: 894
VWidth: 0
Flags: W
HStem: 0 35.6396<343.161 544.599> 1058.67 34.8301<343.161 544.599>
VStem: 85.8604 35.6396<260.039 834.207> 448.739 33.2109<1241.23 1288.53> 664.2 34.0195<1241.79 1350.92> 766.261 35.6396<260.039 834.207>
LayerCount: 2
Fore
SplineSet
317.52 1357.56 m 4
 385.561 1378.62 458.46 1340.55 481.14 1273.32 c 4
 481.14 1272.51 481.95 1272.51 481.95 1271.7 c 4
 497.34 1221.48 550.8 1193.13 601.02 1208.52 c 4
 651.239 1223.91 679.59 1278.18 664.2 1328.4 c 4
 660.96 1338.12 666.63 1347.84 676.35 1351.08 c 4
 686.07 1354.32 694.98 1348.65 698.22 1338.93 c 4
 719.28 1270.08 681.21 1195.56 612.36 1174.5 c 4
 544.32 1153.44 470.61 1191.51 448.739 1259.55 c 4
 448.739 1260.36 447.93 1260.36 447.93 1261.17 c 4
 432.54 1311.39 378.27 1338.93 328.05 1323.54 c 4
 277.83 1308.15 249.48 1254.69 264.87 1204.47 c 4
 265.68 1203.66 l 4
 268.92 1193.94 263.25 1185.03 253.53 1181.79 c 4
 243.811 1178.55 234.9 1183.41 231.66 1193.13 c 4
 230.85 1193.94 l 4
 209.79 1262.79 248.67 1336.5 317.52 1357.56 c 4
443.88 1093.5 m 0
 641.52 1093.5 801.9 933.93 801.9 736.29 c 2
 801.9 358.02 l 2
 801.9 160.38 641.52 0 443.88 0 c 0
 246.239 0 85.8604 160.38 85.8604 358.02 c 2
 85.8604 736.29 l 2
 85.8604 933.93 246.239 1093.5 443.88 1093.5 c 0
443.88 1058.67 m 0
 265.68 1058.67 121.5 914.489 121.5 736.29 c 2
 121.5 358.02 l 2
 121.5 179.82 265.68 35.6396 443.88 35.6396 c 0
 622.08 35.6396 766.261 179.82 766.261 358.02 c 2
 766.261 736.29 l 2
 766.261 914.489 622.08 1058.67 443.88 1058.67 c 0
EndSplineSet
Validated: 33
EndChar

StartChar: Odieresis
Encoding: 380 214 124
Width: 894
VWidth: 0
Flags: W
HStem: 0 35.6396<343.161 544.599> 1058.67 34.8301<343.161 544.599> 1212.57 35.6396<307.603 346.428 540.884 579.708> 1287.9 35.6396<307.575 346.454 540.855 579.734>
VStem: 85.8604 35.6396<260.039 834.207> 271.35 35.6396<1248.82 1287.65> 346.68 35.6406<1248.8 1287.67> 504.63 35.6396<1248.82 1287.65> 579.96 35.6396<1248.8 1287.67> 766.261 35.6396<260.039 834.207>
LayerCount: 2
Fore
SplineSet
327.239 1323.54 m 4
 358.02 1323.54 382.32 1299.24 382.32 1268.46 c 4
 382.32 1237.68 358.02 1212.57 327.239 1212.57 c 4
 296.46 1212.57 271.35 1237.68 271.35 1268.46 c 4
 271.35 1299.24 296.46 1323.54 327.239 1323.54 c 4
560.52 1323.54 m 4
 591.3 1323.54 615.6 1299.24 615.6 1268.46 c 4
 615.6 1237.68 591.3 1212.57 560.52 1212.57 c 4
 529.739 1212.57 504.63 1237.68 504.63 1268.46 c 4
 504.63 1299.24 529.739 1323.54 560.52 1323.54 c 4
327.239 1287.9 m 4
 315.9 1287.9 306.989 1279.8 306.989 1268.46 c 4
 306.989 1257.12 315.9 1248.21 327.239 1248.21 c 4
 338.58 1248.21 346.68 1257.12 346.68 1268.46 c 4
 346.68 1279.8 338.58 1287.9 327.239 1287.9 c 4
560.52 1287.9 m 4
 549.18 1287.9 540.27 1279.8 540.27 1268.46 c 4
 540.27 1257.12 549.18 1248.21 560.52 1248.21 c 4
 571.86 1248.21 579.96 1257.12 579.96 1268.46 c 4
 579.96 1279.8 571.86 1287.9 560.52 1287.9 c 4
443.88 1093.5 m 0
 641.52 1093.5 801.9 933.93 801.9 736.29 c 2
 801.9 358.02 l 2
 801.9 160.38 641.52 0 443.88 0 c 0
 246.239 0 85.8604 160.38 85.8604 358.02 c 2
 85.8604 736.29 l 2
 85.8604 933.93 246.239 1093.5 443.88 1093.5 c 0
443.88 1058.67 m 0
 265.68 1058.67 121.5 914.489 121.5 736.29 c 2
 121.5 358.02 l 2
 121.5 179.82 265.68 35.6396 443.88 35.6396 c 0
 622.08 35.6396 766.261 179.82 766.261 358.02 c 2
 766.261 736.29 l 2
 766.261 914.489 622.08 1058.67 443.88 1058.67 c 0
EndSplineSet
Validated: 1
EndChar

StartChar: ograve
Encoding: 381 242 125
Width: 882
VWidth: 0
Flags: W
HStem: 0 35.6396<336.593 533.761> 680.4 35.6396<337.799 534.968> 1074.31 20G<317.52 324>
VStem: 77.7607 35.6396<253.261 458.738> 758.16 35.6396<257.301 462.778>
LayerCount: 2
Fore
SplineSet
322.38 1094.31 m 4
 325.62 1094.31 329.67 1092.69 332.1 1091.07 c 6
 558.9 940.41 l 6
 562.95 937.17 567 929.88 567 925.02 c 4
 567 915.3 558.9 907.2 549.18 907.2 c 4
 545.939 907.2 541.89 908.82 539.46 910.439 c 6
 312.66 1061.91 l 6
 307.8 1065.15 304.561 1070.82 304.561 1076.49 c 4
 304.561 1086.21 312.66 1094.31 322.38 1094.31 c 4
435.78 716.04 m 1
 436.59 716.04 436.59 716.04 437.4 716.04 c 0
 634.23 715.23 793.8 554.85 793.8 358.02 c 0
 793.8 160.38 633.42 0 435.78 0 c 0
 434.97 0 434.97 0 434.16 0 c 0
 237.33 0.810547 77.7607 161.189 77.7607 358.02 c 0
 77.7607 555.66 238.14 716.04 435.78 716.04 c 1
435.78 680.4 m 0
 257.58 680.4 113.4 536.22 113.4 358.02 c 0
 113.4 179.82 257.58 35.6396 435.78 35.6396 c 0
 613.98 35.6396 758.16 179.82 758.16 358.02 c 0
 758.16 536.22 613.98 680.4 435.78 680.4 c 0
EndSplineSet
Validated: 1
EndChar

StartChar: oacute
Encoding: 382 243 126
Width: 882
VWidth: 0
Flags: W
HStem: 0 35.6396<336.593 533.761> 680.4 35.6396<337.799 534.968> 1074.31 20G<547.56 554.04>
VStem: 77.7607 35.6396<253.261 458.738> 758.16 35.6396<257.301 462.778>
LayerCount: 2
Fore
SplineSet
549.18 1094.31 m 5
 558.9 1094.31 567 1086.21 567 1076.49 c 4
 567 1070.82 563.761 1065.15 558.9 1061.91 c 6
 332.1 910.439 l 6
 329.67 908.82 325.62 907.2 322.38 907.2 c 4
 312.66 907.2 304.561 915.3 304.561 925.02 c 4
 304.561 930.689 308.61 937.17 312.66 940.41 c 6
 539.46 1091.07 l 6
 541.89 1092.69 545.939 1094.31 549.18 1094.31 c 5
435.78 716.04 m 1
 436.59 716.04 436.59 716.04 437.4 716.04 c 0
 634.23 715.23 793.8 554.85 793.8 358.02 c 0
 793.8 160.38 633.42 0 435.78 0 c 0
 434.97 0 434.97 0 434.16 0 c 0
 237.33 0.810547 77.7607 161.189 77.7607 358.02 c 0
 77.7607 555.66 238.14 716.04 435.78 716.04 c 1
435.78 680.4 m 0
 257.58 680.4 113.4 536.22 113.4 358.02 c 0
 113.4 179.82 257.58 35.6396 435.78 35.6396 c 0
 613.98 35.6396 758.16 179.82 758.16 358.02 c 0
 758.16 536.22 613.98 680.4 435.78 680.4 c 0
EndSplineSet
Validated: 1
EndChar

StartChar: ocircumflex
Encoding: 383 244 127
Width: 882
VWidth: 0
Flags: W
HStem: 0 35.6396<336.593 533.761> 680.4 35.6396<337.799 534.968> 1074.31 20G<454.005 458.055>
VStem: 77.7607 35.6396<253.261 458.738> 758.16 35.6396<257.301 462.778>
LayerCount: 2
Fore
SplineSet
456.03 1094.31 m 4
 460.08 1094.31 465.75 1092.69 468.989 1089.45 c 6
 619.65 937.98 l 5
 594.54 912.87 l 5
 456.03 1051.38 l 5
 317.52 912.87 l 5
 292.41 937.98 l 5
 443.88 1089.45 l 6
 446.311 1091.88 451.98 1094.31 456.03 1094.31 c 4
435.78 716.04 m 1
 436.59 716.04 436.59 716.04 437.4 716.04 c 0
 634.23 715.23 793.8 554.85 793.8 358.02 c 0
 793.8 160.38 633.42 0 435.78 0 c 0
 434.97 0 434.97 0 434.16 0 c 0
 237.33 0.810547 77.7607 161.189 77.7607 358.02 c 0
 77.7607 555.66 238.14 716.04 435.78 716.04 c 1
435.78 680.4 m 0
 257.58 680.4 113.4 536.22 113.4 358.02 c 0
 113.4 179.82 257.58 35.6396 435.78 35.6396 c 0
 613.98 35.6396 758.16 179.82 758.16 358.02 c 0
 758.16 536.22 613.98 680.4 435.78 680.4 c 0
EndSplineSet
Validated: 1
EndChar

StartChar: otilde
Encoding: 384 245 128
Width: 882
VWidth: 0
Flags: W
HStem: 0 35.6396<336.593 533.761> 680.4 35.6396<337.799 534.968>
VStem: 77.7607 35.6396<253.261 458.738> 218.7 34.0195<1002.94 1111.44> 435.78 33.209<1063.1 1109.52> 758.16 35.6396<257.301 462.778>
LayerCount: 2
Fore
SplineSet
304.561 1178.55 m 0
 372.6 1199.61 445.5 1161.54 468.18 1094.31 c 0
 468.18 1093.5 468.989 1093.5 468.989 1092.69 c 0
 484.38 1042.47 538.65 1014.12 588.87 1029.51 c 0
 639.09 1044.9 667.439 1099.17 652.05 1149.39 c 0
 651.239 1149.39 l 0
 648 1159.11 653.67 1168.83 663.39 1172.07 c 0
 673.11 1175.31 682.02 1169.64 685.261 1159.92 c 0
 706.32 1091.07 668.25 1016.55 599.4 995.489 c 0
 531.36 974.43 457.65 1011.69 435.78 1079.73 c 0
 435.78 1080.54 434.97 1081.35 434.97 1082.16 c 0
 419.58 1132.38 365.311 1159.92 315.09 1144.53 c 0
 264.87 1129.14 237.33 1074.87 252.72 1024.65 c 0
 255.96 1014.93 250.29 1006.02 240.57 1002.78 c 0
 230.85 999.54 221.939 1004.4 218.7 1014.12 c 0
 197.64 1082.97 235.71 1157.49 304.561 1178.55 c 0
435.78 716.04 m 1
 436.59 716.04 436.59 716.04 437.4 716.04 c 0
 634.23 715.23 793.8 554.85 793.8 358.02 c 0
 793.8 160.38 633.42 0 435.78 0 c 0
 434.97 0 434.97 0 434.16 0 c 0
 237.33 0.810547 77.7607 161.189 77.7607 358.02 c 0
 77.7607 555.66 238.14 716.04 435.78 716.04 c 1
435.78 680.4 m 0
 257.58 680.4 113.4 536.22 113.4 358.02 c 0
 113.4 179.82 257.58 35.6396 435.78 35.6396 c 0
 613.98 35.6396 758.16 179.82 758.16 358.02 c 0
 758.16 536.22 613.98 680.4 435.78 680.4 c 0
EndSplineSet
Validated: 33
EndChar

StartChar: odieresis
Encoding: 385 246 129
Width: 882
VWidth: 0
Flags: W
HStem: 0 35.6396<338.213 535.381> 680.4 35.6396<339.42 536.587> 983.34 35.6406<314.133 353.356 547.364 586.586> 1058.67 35.6406<314.105 353.384 547.335 586.615>
VStem: 79.3799 35.6396<253.261 458.738> 278.64 34.8301<1019.63 1058.39> 353.97 35.6406<1019.59 1058.42> 511.11 35.6396<1019.59 1058.42> 587.25 34.8301<1019.63 1058.39> 759.78 35.6396<257.301 462.778>
LayerCount: 2
Fore
SplineSet
333.72 1094.31 m 4
 364.5 1094.31 389.61 1070.01 389.61 1039.23 c 4
 389.61 1008.45 364.5 983.34 333.72 983.34 c 4
 302.939 983.34 278.64 1008.45 278.64 1039.23 c 4
 278.64 1070.01 302.939 1094.31 333.72 1094.31 c 4
567 1094.31 m 4
 597.78 1094.31 622.08 1070.01 622.08 1039.23 c 4
 622.08 1008.45 597.78 983.34 567 983.34 c 4
 536.22 983.34 511.11 1008.45 511.11 1039.23 c 4
 511.11 1070.01 536.22 1094.31 567 1094.31 c 4
333.72 1058.67 m 4
 322.38 1058.67 313.47 1050.57 313.47 1039.23 c 4
 313.47 1027.89 322.38 1018.98 333.72 1018.98 c 4
 345.061 1018.98 353.97 1027.89 353.97 1039.23 c 4
 353.97 1050.57 345.061 1058.67 333.72 1058.67 c 4
567 1058.67 m 4
 555.66 1058.67 546.75 1050.57 546.75 1039.23 c 4
 546.75 1027.89 555.66 1018.98 567 1018.98 c 4
 578.34 1018.98 587.25 1027.89 587.25 1039.23 c 4
 587.25 1050.57 578.34 1058.67 567 1058.67 c 4
437.4 716.04 m 1
 438.21 716.04 438.21 716.04 439.02 716.04 c 0
 635.85 715.23 795.42 554.85 795.42 358.02 c 0
 795.42 160.38 635.04 0 437.4 0 c 0
 436.59 0 436.59 0 435.78 0 c 0
 238.95 0.810547 79.3799 161.189 79.3799 358.02 c 0
 79.3799 555.66 239.761 716.04 437.4 716.04 c 1
437.4 680.4 m 0
 259.2 680.4 115.02 536.22 115.02 358.02 c 0
 115.02 179.82 259.2 35.6396 437.4 35.6396 c 0
 615.6 35.6396 759.78 179.82 759.78 358.02 c 0
 759.78 536.22 615.6 680.4 437.4 680.4 c 0
EndSplineSet
Validated: 1
EndChar

StartChar: Ugrave
Encoding: 386 217 130
Width: 901
VWidth: 0
Flags: W
HStem: 0 35.6396<348.831 550.237> 1074.31 20G<103.68 114.21 784.08 793.8>
VStem: 91.5303 35.6396<260.039 1094.3> 771.93 34.8311<260.039 1094.3>
LayerCount: 2
Fore
SplineSet
329.67 1323.54 m 4
 332.91 1323.54 336.96 1322.73 339.39 1321.11 c 6
 566.189 1169.64 l 6
 570.239 1166.4 574.29 1159.92 574.29 1155.06 c 4
 574.29 1145.34 566.189 1137.24 556.47 1137.24 c 4
 553.23 1137.24 549.18 1138.05 546.75 1139.67 c 6
 319.95 1291.14 l 6
 315.09 1294.38 311.85 1300.05 311.85 1305.72 c 4
 311.85 1315.44 319.95 1323.54 329.67 1323.54 c 4
108.54 1094.31 m 1
 109.35 1094.31 l 0
 119.07 1094.31 127.17 1086.21 127.17 1076.49 c 0
 127.17 358.02 l 2
 127.17 179.82 271.35 35.6396 449.55 35.6396 c 0
 627.75 35.6396 771.93 179.82 771.93 358.02 c 2
 771.93 1076.49 l 2
 771.93 1086.21 779.22 1094.31 788.939 1094.31 c 0
 798.66 1094.31 806.761 1086.21 806.761 1076.49 c 0
 806.761 358.02 l 2
 806.761 160.38 647.189 0 449.55 0 c 0
 251.91 0 91.5303 160.38 91.5303 358.02 c 2
 91.5303 1076.49 l 2
 91.5303 1086.21 98.8203 1094.31 108.54 1094.31 c 1
EndSplineSet
Validated: 1
EndChar

StartChar: Uacute
Encoding: 387 218 131
Width: 901
VWidth: 0
Flags: W
HStem: 0 35.6396<348.831 550.237> 1074.31 20G<103.68 114.21 784.08 793.8>
VStem: 91.5303 35.6396<260.039 1094.3> 771.93 34.8311<260.039 1094.3>
LayerCount: 2
Fore
SplineSet
571.86 1326.78 m 5
 572.67 1327.59 l 4
 582.39 1327.59 590.489 1319.49 590.489 1309.77 c 4
 590.489 1304.1 587.25 1297.62 582.39 1294.38 c 6
 355.59 1142.91 l 6
 353.16 1141.29 348.3 1140.48 345.061 1140.48 c 4
 335.34 1140.48 327.239 1148.58 327.239 1158.3 c 4
 327.239 1163.97 331.29 1169.64 335.34 1172.88 c 6
 562.14 1324.35 l 6
 564.57 1325.97 568.62 1326.78 571.86 1326.78 c 5
108.54 1094.31 m 1
 109.35 1094.31 l 0
 119.07 1094.31 127.17 1086.21 127.17 1076.49 c 0
 127.17 358.02 l 2
 127.17 179.82 271.35 35.6396 449.55 35.6396 c 0
 627.75 35.6396 771.93 179.82 771.93 358.02 c 2
 771.93 1076.49 l 2
 771.93 1086.21 779.22 1094.31 788.939 1094.31 c 0
 798.66 1094.31 806.761 1086.21 806.761 1076.49 c 0
 806.761 358.02 l 2
 806.761 160.38 647.189 0 449.55 0 c 0
 251.91 0 91.5303 160.38 91.5303 358.02 c 2
 91.5303 1076.49 l 2
 91.5303 1086.21 98.8203 1094.31 108.54 1094.31 c 1
EndSplineSet
Validated: 1
EndChar

StartChar: Ucircumflex
Encoding: 388 219 132
Width: 901
VWidth: 0
Flags: W
HStem: 0 35.6396<348.831 550.237> 1074.31 20G<103.68 114.21 784.08 793.8>
VStem: 91.5303 35.6396<260.039 1094.3> 771.93 34.8311<260.039 1094.3>
LayerCount: 2
Fore
SplineSet
456.03 1327.59 m 4
 460.08 1327.59 465.75 1325.16 468.989 1321.92 c 6
 619.65 1170.45 l 5
 594.54 1145.34 l 5
 456.03 1284.66 l 5
 317.52 1145.34 l 5
 292.41 1170.45 l 5
 443.88 1321.92 l 6
 446.311 1324.35 451.98 1327.59 456.03 1327.59 c 4
108.54 1094.31 m 1
 109.35 1094.31 l 0
 119.07 1094.31 127.17 1086.21 127.17 1076.49 c 0
 127.17 358.02 l 2
 127.17 179.82 271.35 35.6396 449.55 35.6396 c 0
 627.75 35.6396 771.93 179.82 771.93 358.02 c 2
 771.93 1076.49 l 2
 771.93 1086.21 779.22 1094.31 788.939 1094.31 c 0
 798.66 1094.31 806.761 1086.21 806.761 1076.49 c 0
 806.761 358.02 l 2
 806.761 160.38 647.189 0 449.55 0 c 0
 251.91 0 91.5303 160.38 91.5303 358.02 c 2
 91.5303 1076.49 l 2
 91.5303 1086.21 98.8203 1094.31 108.54 1094.31 c 1
EndSplineSet
Validated: 1
EndChar

StartChar: Udieresis
Encoding: 389 220 133
Width: 901
VWidth: 0
Flags: W
HStem: 0 35.6396<348.831 550.237> 1074.31 20G<103.68 114.21 784.08 793.8> 1212.57 35.6396<312.464 351.736 545.744 584.966> 1287.9 35.6396<312.435 351.764 545.715 584.995>
VStem: 91.5303 35.6396<260.039 1094.3> 276.21 35.6396<1248.82 1287.65> 352.35 35.6396<1248.82 1287.65> 509.489 35.6406<1248.82 1287.65> 585.63 34.8301<1248.86 1287.62> 771.93 34.8311<260.039 1094.3>
LayerCount: 2
Fore
SplineSet
332.1 1323.54 m 4
 362.88 1323.54 387.989 1299.24 387.989 1268.46 c 4
 387.989 1237.68 362.88 1212.57 332.1 1212.57 c 4
 301.32 1212.57 276.21 1237.68 276.21 1268.46 c 4
 276.21 1299.24 301.32 1323.54 332.1 1323.54 c 4
565.38 1323.54 m 4
 596.16 1323.54 620.46 1299.24 620.46 1268.46 c 4
 620.46 1237.68 596.16 1212.57 565.38 1212.57 c 4
 534.6 1212.57 509.489 1237.68 509.489 1268.46 c 4
 509.489 1299.24 534.6 1323.54 565.38 1323.54 c 4
332.1 1287.9 m 4
 320.761 1287.9 311.85 1279.8 311.85 1268.46 c 4
 311.85 1257.12 320.761 1248.21 332.1 1248.21 c 4
 343.439 1248.21 352.35 1257.12 352.35 1268.46 c 4
 352.35 1279.8 343.439 1287.9 332.1 1287.9 c 4
565.38 1287.9 m 4
 554.04 1287.9 545.13 1279.8 545.13 1268.46 c 4
 545.13 1257.12 554.04 1248.21 565.38 1248.21 c 4
 576.72 1248.21 585.63 1257.12 585.63 1268.46 c 4
 585.63 1279.8 576.72 1287.9 565.38 1287.9 c 4
108.54 1094.31 m 1
 109.35 1094.31 l 0
 119.07 1094.31 127.17 1086.21 127.17 1076.49 c 0
 127.17 358.02 l 2
 127.17 179.82 271.35 35.6396 449.55 35.6396 c 0
 627.75 35.6396 771.93 179.82 771.93 358.02 c 2
 771.93 1076.49 l 2
 771.93 1086.21 779.22 1094.31 788.939 1094.31 c 0
 798.66 1094.31 806.761 1086.21 806.761 1076.49 c 0
 806.761 358.02 l 2
 806.761 160.38 647.189 0 449.55 0 c 0
 251.91 0 91.5303 160.38 91.5303 358.02 c 2
 91.5303 1076.49 l 2
 91.5303 1086.21 98.8203 1094.31 108.54 1094.31 c 1
EndSplineSet
Validated: 1
EndChar

StartChar: ugrave
Encoding: 390 249 134
Width: 823
VWidth: 0
Flags: W
HStem: 0 35.6396<340.231 548.531> 696.04 20G<98.8198 108.54 703.89 713.61> 1074.31 20G<287.55 294.84>
VStem: 85.8604 35.6396<256.683 716.034> 690.93 35.6406<0.00590762 98.8203 131.539 716.034>
LayerCount: 2
Fore
SplineSet
293.22 1094.31 m 6
 296.46 1094.31 300.511 1092.69 302.939 1091.07 c 6
 529.739 940.41 l 6
 533.79 937.17 537.84 929.88 537.84 925.02 c 4
 537.84 915.3 529.739 907.2 520.02 907.2 c 4
 516.78 907.2 512.73 908.82 510.3 910.439 c 6
 283.5 1061.91 l 6
 278.64 1065.15 275.4 1070.82 275.4 1076.49 c 4
 275.4 1086.21 282.689 1094.31 292.41 1094.31 c 4
 293.22 1094.31 l 6
103.68 716.04 m 0
 113.4 716.04 121.5 707.939 121.5 698.22 c 0
 121.5 350.73 l 1
 125.55 175.77 268.11 35.6396 443.88 35.6396 c 0
 542.7 35.6396 631.8 80.1895 690.93 150.66 c 1
 690.93 698.22 l 2
 690.93 707.939 699.03 716.04 708.75 716.04 c 0
 718.47 716.04 726.57 707.939 726.57 698.22 c 0
 726.57 145.8 l 2
 726.57 144.989 726.57 144.989 726.57 144.18 c 0
 726.57 143.37 726.57 143.37 726.57 142.561 c 2
 726.57 17.8203 l 2
 726.57 8.09961 718.47 0 708.75 0 c 0
 699.03 0 690.93 8.09961 690.93 17.8203 c 0
 690.93 98.8203 l 1
 626.939 38.0703 539.46 0 443.88 0 c 0
 248.67 0 89.9102 156.33 85.8604 349.92 c 0
 85.8604 350.73 l 2
 85.8604 698.22 l 2
 85.8604 707.939 93.96 716.04 103.68 716.04 c 0
EndSplineSet
Validated: 1
EndChar

StartChar: uacute
Encoding: 391 250 135
Width: 823
VWidth: 0
Flags: W
HStem: 0 35.6396<340.231 548.531> 696.04 20G<98.8198 108.54 703.89 713.61> 1074.31 20G<517.59 524.879>
VStem: 85.8604 35.6396<256.683 716.034> 690.93 35.6406<0.00590762 98.8203 131.539 716.034>
LayerCount: 2
Fore
SplineSet
519.21 1094.31 m 5
 520.02 1094.31 l 4
 529.739 1094.31 537.84 1086.21 537.84 1076.49 c 4
 537.84 1070.82 534.6 1065.15 529.739 1061.91 c 6
 302.939 910.439 l 6
 300.511 908.82 295.65 907.2 292.41 907.2 c 4
 282.689 907.2 274.59 915.3 274.59 925.02 c 4
 274.59 930.689 278.64 937.17 282.689 940.41 c 6
 509.489 1091.07 l 6
 511.92 1092.69 515.97 1094.31 519.21 1094.31 c 5
103.68 716.04 m 0
 113.4 716.04 121.5 707.939 121.5 698.22 c 0
 121.5 350.73 l 1
 125.55 175.77 268.11 35.6396 443.88 35.6396 c 0
 542.7 35.6396 631.8 80.1895 690.93 150.66 c 1
 690.93 698.22 l 2
 690.93 707.939 699.03 716.04 708.75 716.04 c 0
 718.47 716.04 726.57 707.939 726.57 698.22 c 0
 726.57 145.8 l 2
 726.57 144.989 726.57 144.989 726.57 144.18 c 0
 726.57 143.37 726.57 143.37 726.57 142.561 c 2
 726.57 17.8203 l 2
 726.57 8.09961 718.47 0 708.75 0 c 0
 699.03 0 690.93 8.09961 690.93 17.8203 c 0
 690.93 98.8203 l 1
 626.939 38.0703 539.46 0 443.88 0 c 0
 248.67 0 89.9102 156.33 85.8604 349.92 c 0
 85.8604 350.73 l 2
 85.8604 698.22 l 2
 85.8604 707.939 93.96 716.04 103.68 716.04 c 0
EndSplineSet
Validated: 1
EndChar

StartChar: ucircumflex
Encoding: 392 251 136
Width: 823
VWidth: 0
Flags: W
HStem: 0 35.6396<340.231 548.531> 696.04 20G<98.8198 108.54 703.89 713.61> 1074.31 20G<424.036 428.895>
VStem: 85.8604 35.6396<256.683 716.034> 690.93 35.6406<0.00590762 98.8203 131.539 716.034>
LayerCount: 2
Fore
SplineSet
426.061 1094.31 m 4
 426.87 1094.31 l 4
 430.92 1094.31 435.78 1092.69 439.02 1089.45 c 6
 590.489 937.98 l 5
 565.38 912.87 l 5
 426.87 1051.38 l 5
 287.55 912.87 l 5
 262.439 937.98 l 5
 413.91 1089.45 l 6
 416.34 1091.88 422.011 1094.31 426.061 1094.31 c 4
103.68 716.04 m 0
 113.4 716.04 121.5 707.939 121.5 698.22 c 0
 121.5 350.73 l 1
 125.55 175.77 268.11 35.6396 443.88 35.6396 c 0
 542.7 35.6396 631.8 80.1895 690.93 150.66 c 1
 690.93 698.22 l 2
 690.93 707.939 699.03 716.04 708.75 716.04 c 0
 718.47 716.04 726.57 707.939 726.57 698.22 c 0
 726.57 145.8 l 2
 726.57 144.989 726.57 144.989 726.57 144.18 c 0
 726.57 143.37 726.57 143.37 726.57 142.561 c 2
 726.57 17.8203 l 2
 726.57 8.09961 718.47 0 708.75 0 c 0
 699.03 0 690.93 8.09961 690.93 17.8203 c 0
 690.93 98.8203 l 1
 626.939 38.0703 539.46 0 443.88 0 c 0
 248.67 0 89.9102 156.33 85.8604 349.92 c 0
 85.8604 350.73 l 2
 85.8604 698.22 l 2
 85.8604 707.939 93.96 716.04 103.68 716.04 c 0
EndSplineSet
Validated: 1
EndChar

StartChar: udieresis
Encoding: 393 252 137
Width: 823
VWidth: 0
Flags: W
HStem: 0 35.6396<340.231 548.531> 696.04 20G<98.8198 108.54 703.89 713.61> 983.34 35.6406<282.941 321.766 516.222 555.046> 1058.67 35.6406<282.915 321.794 516.195 555.075>
VStem: 85.8604 35.6396<256.683 716.034> 247.05 35.6396<1019.57 1058.44> 322.38 35.6396<1019.59 1058.42> 480.33 35.6396<1019.57 1058.44> 555.66 35.6396<1019.59 1058.42> 690.93 35.6406<0.00590762 98.8203 131.539 716.034>
LayerCount: 2
Fore
SplineSet
302.13 1094.31 m 4
 332.91 1094.31 358.02 1070.01 358.02 1039.23 c 4
 358.02 1008.45 332.91 983.34 302.13 983.34 c 4
 271.35 983.34 247.05 1008.45 247.05 1039.23 c 4
 247.05 1070.01 271.35 1094.31 302.13 1094.31 c 4
535.41 1094.31 m 4
 566.189 1094.31 591.3 1070.01 591.3 1039.23 c 4
 591.3 1008.45 566.189 983.34 535.41 983.34 c 4
 504.63 983.34 480.33 1008.45 480.33 1039.23 c 4
 480.33 1070.01 504.63 1094.31 535.41 1094.31 c 4
302.13 1058.67 m 4
 290.79 1058.67 282.689 1050.57 282.689 1039.23 c 4
 282.689 1027.89 290.79 1018.98 302.13 1018.98 c 4
 313.47 1018.98 322.38 1027.89 322.38 1039.23 c 4
 322.38 1050.57 313.47 1058.67 302.13 1058.67 c 4
535.41 1058.67 m 4
 524.07 1058.67 515.97 1050.57 515.97 1039.23 c 4
 515.97 1027.89 524.07 1018.98 535.41 1018.98 c 4
 546.75 1018.98 555.66 1027.89 555.66 1039.23 c 4
 555.66 1050.57 546.75 1058.67 535.41 1058.67 c 4
103.68 716.04 m 0
 113.4 716.04 121.5 707.939 121.5 698.22 c 0
 121.5 350.73 l 1
 125.55 175.77 268.11 35.6396 443.88 35.6396 c 0
 542.7 35.6396 631.8 80.1895 690.93 150.66 c 1
 690.93 698.22 l 2
 690.93 707.939 699.03 716.04 708.75 716.04 c 0
 718.47 716.04 726.57 707.939 726.57 698.22 c 0
 726.57 145.8 l 2
 726.57 144.989 726.57 144.989 726.57 144.18 c 0
 726.57 143.37 726.57 143.37 726.57 142.561 c 2
 726.57 17.8203 l 2
 726.57 8.09961 718.47 0 708.75 0 c 0
 699.03 0 690.93 8.09961 690.93 17.8203 c 0
 690.93 98.8203 l 1
 626.939 38.0703 539.46 0 443.88 0 c 0
 248.67 0 89.9102 156.33 85.8604 349.92 c 0
 85.8604 350.73 l 2
 85.8604 698.22 l 2
 85.8604 707.939 93.96 716.04 103.68 716.04 c 0
EndSplineSet
Validated: 1
EndChar

StartChar: asterisk
Encoding: 394 42 138
Width: 593
VWidth: 0
Flags: W
HStem: 993.061 35.6396<89.9161 253.53 339.39 503.814>
VStem: 278.64 35.6406<803.525 967.95 1053.81 1217.42>
LayerCount: 2
Fore
SplineSet
296.46 1217.43 m 4
 306.18 1217.43 314.28 1209.33 314.28 1199.61 c 4
 314.28 1053.81 l 5
 417.96 1156.68 l 6
 421.2 1159.92 426.87 1162.35 430.92 1162.35 c 4
 440.64 1162.35 448.739 1154.25 448.739 1144.53 c 4
 448.739 1140.48 446.311 1134.81 443.07 1131.57 c 6
 339.39 1028.7 l 5
 485.189 1028.7 l 6
 486 1028.7 l 4
 495.72 1028.7 503.82 1020.6 503.82 1010.88 c 4
 503.82 1001.16 495.72 993.061 486 993.061 c 4
 485.189 993.061 l 6
 339.39 993.061 l 5
 443.07 889.38 l 6
 446.311 886.14 447.93 881.28 447.93 877.23 c 4
 447.93 867.511 439.83 859.41 430.11 859.41 c 4
 426.061 859.41 421.2 861.03 417.96 864.27 c 6
 314.28 967.95 l 5
 314.28 822.15 l 6
 314.28 821.34 l 4
 314.28 811.62 306.18 803.52 296.46 803.52 c 4
 286.739 803.52 278.64 811.62 278.64 821.34 c 4
 278.64 822.15 l 6
 278.64 967.95 l 5
 175.77 864.27 l 6
 172.53 861.03 166.86 859.41 162.811 859.41 c 4
 153.09 859.41 144.989 867.511 144.989 877.23 c 4
 144.989 881.28 147.42 886.14 150.66 889.38 c 6
 253.53 993.061 l 5
 107.73 993.061 l 6
 98.0107 993.061 89.9102 1001.16 89.9102 1010.88 c 4
 89.9102 1020.6 98.0107 1028.7 107.73 1028.7 c 4
 253.53 1028.7 l 5
 150.66 1131.57 l 6
 147.42 1134.81 144.989 1140.48 144.989 1144.53 c 4
 144.989 1154.25 153.09 1162.35 162.811 1162.35 c 4
 166.86 1162.35 172.53 1159.92 175.77 1156.68 c 6
 278.64 1053.81 l 5
 278.64 1199.61 l 6
 278.64 1209.33 286.739 1217.43 296.46 1217.43 c 4
EndSplineSet
Validated: 1
EndChar

StartChar: degree
Encoding: 395 176 139
Width: 445
VWidth: 0
Flags: W
HStem: 831.87 35.6406<169.816 278.924> 1058.67 35.6406<169.816 278.924>
VStem: 93.1504 35.6396<908.536 1017.64> 319.95 35.6396<908.536 1017.64>
LayerCount: 2
Fore
SplineSet
224.37 1094.31 m 4
 296.46 1094.31 355.59 1035.18 355.59 963.09 c 4
 355.59 891 296.46 831.87 224.37 831.87 c 4
 152.28 831.87 93.1504 891 93.1504 963.09 c 4
 93.1504 1035.18 152.28 1094.31 224.37 1094.31 c 4
224.37 1058.67 m 4
 171.72 1058.67 128.79 1015.74 128.79 963.09 c 4
 128.79 910.439 171.72 867.511 224.37 867.511 c 4
 277.02 867.511 319.95 910.439 319.95 963.09 c 4
 319.95 1015.74 277.02 1058.67 224.37 1058.67 c 4
EndSplineSet
Validated: 1
EndChar

StartChar: idieresis
Encoding: 396 239 140
Width: 469
VWidth: 0
Flags: W
HStem: 0 21G<215.46 225.18> 696.04 20G<215.46 225.18> 983.34 35.6406<97.4518 136.276 330.732 369.556> 1058.67 35.6406<97.4257 136.304 330.706 369.585>
VStem: 61.5605 35.6396<1019.57 1058.44> 136.89 35.6406<1019.59 1058.42> 202.5 35.6396<0.00590762 716.034> 294.84 35.6406<1019.57 1058.44> 370.17 35.6406<1019.59 1058.42>
LayerCount: 2
Fore
SplineSet
116.64 1094.31 m 4
 147.42 1094.31 172.53 1070.01 172.53 1039.23 c 4
 172.53 1008.45 147.42 983.34 116.64 983.34 c 4
 85.8604 983.34 61.5605 1008.45 61.5605 1039.23 c 4
 61.5605 1070.01 85.8604 1094.31 116.64 1094.31 c 4
349.92 1094.31 m 4
 380.7 1094.31 405.811 1070.01 405.811 1039.23 c 4
 405.811 1008.45 380.7 983.34 349.92 983.34 c 4
 319.14 983.34 294.84 1008.45 294.84 1039.23 c 4
 294.84 1070.01 319.14 1094.31 349.92 1094.31 c 4
116.64 1058.67 m 4
 105.3 1058.67 97.2002 1050.57 97.2002 1039.23 c 4
 97.2002 1027.89 105.3 1018.98 116.64 1018.98 c 4
 127.98 1018.98 136.89 1027.89 136.89 1039.23 c 4
 136.89 1050.57 127.98 1058.67 116.64 1058.67 c 4
349.92 1058.67 m 4
 338.58 1058.67 330.48 1050.57 330.48 1039.23 c 4
 330.48 1027.89 338.58 1018.98 349.92 1018.98 c 4
 361.261 1018.98 370.17 1027.89 370.17 1039.23 c 4
 370.17 1050.57 361.261 1058.67 349.92 1058.67 c 4
220.32 716.04 m 0
 230.04 716.04 238.14 707.939 238.14 698.22 c 0
 238.14 17.8203 l 2
 238.14 8.09961 230.04 0 220.32 0 c 0
 210.6 0 202.5 8.09961 202.5 17.8203 c 0
 202.5 698.22 l 2
 202.5 707.939 210.6 716.04 220.32 716.04 c 0
EndSplineSet
Validated: 1
EndChar

StartChar: sterling
Encoding: 397 163 141
Width: 1028
VWidth: 0
Flags: W
HStem: 0 35.6396<268.11 948.505> 378.27 35.6406<81.0059 232.47 268.11 571.044> 1058.67 34.8301<489.771 692.308>
VStem: 232.47 35.6406<35.6396 378.27 413.91 834.207>
LayerCount: 2
Fore
SplineSet
590.489 1093.5 m 4
 639.9 1093.5 686.88 1083.78 729.811 1065.96 c 4
 772.739 1048.14 811.62 1021.41 844.02 989.011 c 4
 876.42 956.61 902.34 918.54 920.16 875.61 c 4
 920.97 873.989 921.78 869.939 921.78 868.32 c 4
 921.78 858.6 913.68 850.5 903.96 850.5 c 4
 897.48 850.5 890.189 855.36 887.761 861.03 c 4
 871.561 899.91 848.07 934.739 818.91 963.9 c 4
 789.75 993.061 754.92 1016.55 716.04 1032.75 c 4
 677.16 1048.95 635.04 1058.67 590.489 1058.67 c 4
 412.29 1058.67 268.11 914.489 268.11 736.29 c 6
 268.11 413.91 l 5
 553.23 413.91 l 6
 562.95 413.91 571.05 405.811 571.05 396.09 c 4
 571.05 386.37 562.95 378.27 553.23 378.27 c 4
 268.11 378.27 l 5
 268.11 35.6396 l 5
 930.689 35.6396 l 6
 931.5 35.6396 l 4
 941.22 35.6396 948.511 27.54 948.511 17.8203 c 4
 948.511 8.09961 941.22 0 931.5 0 c 4
 930.689 0 l 6
 250.29 0 l 6
 240.57 0 232.47 8.09961 232.47 17.8203 c 6
 232.47 378.27 l 5
 99.6299 378.27 l 6
 98.8203 378.27 l 4
 89.0996 378.27 81 386.37 81 396.09 c 4
 81 405.811 89.0996 413.91 98.8203 413.91 c 4
 99.6299 413.91 l 6
 232.47 413.91 l 5
 232.47 736.29 l 6
 232.47 933.93 392.85 1093.5 590.489 1093.5 c 4
EndSplineSet
Validated: 1
EndChar

StartChar: dieresis
Encoding: 398 168 142
Width: 528
VWidth: 0
Flags: W
HStem: 983.34 35.6406<130.662 169.486 363.941 402.766> 1058.67 35.6406<130.636 169.514 363.915 402.794>
VStem: 94.7695 35.6406<1019.57 1058.44> 170.1 35.6396<1019.59 1058.42> 328.05 35.6396<1019.57 1058.44> 403.38 35.6396<1019.59 1058.42>
LayerCount: 2
Fore
SplineSet
149.85 1094.31 m 4
 180.63 1094.31 205.739 1070.01 205.739 1039.23 c 4
 205.739 1008.45 180.63 983.34 149.85 983.34 c 4
 119.07 983.34 94.7695 1008.45 94.7695 1039.23 c 4
 94.7695 1070.01 119.07 1094.31 149.85 1094.31 c 4
383.13 1094.31 m 4
 413.91 1094.31 439.02 1070.01 439.02 1039.23 c 4
 439.02 1008.45 413.91 983.34 383.13 983.34 c 4
 352.35 983.34 328.05 1008.45 328.05 1039.23 c 4
 328.05 1070.01 352.35 1094.31 383.13 1094.31 c 4
149.85 1058.67 m 4
 138.511 1058.67 130.41 1050.57 130.41 1039.23 c 4
 130.41 1027.89 138.511 1018.98 149.85 1018.98 c 4
 161.189 1018.98 170.1 1027.89 170.1 1039.23 c 4
 170.1 1050.57 161.189 1058.67 149.85 1058.67 c 4
383.13 1058.67 m 4
 371.79 1058.67 363.689 1050.57 363.689 1039.23 c 4
 363.689 1027.89 371.79 1018.98 383.13 1018.98 c 4
 394.47 1018.98 403.38 1027.89 403.38 1039.23 c 4
 403.38 1050.57 394.47 1058.67 383.13 1058.67 c 4
EndSplineSet
Validated: 1
EndChar

StartChar: asciicircum
Encoding: 399 94 143
Width: 508
VWidth: 0
Flags: W
HStem: 912.87 181.44
VStem: 91.5303 327.239
LayerCount: 2
Fore
SplineSet
255.15 1094.31 m 4
 259.2 1094.31 264.061 1092.69 267.3 1089.45 c 6
 418.77 937.98 l 5
 393.66 912.87 l 5
 255.15 1051.38 l 5
 116.64 912.87 l 5
 91.5303 937.98 l 5
 242.189 1089.45 l 6
 244.62 1091.88 251.1 1094.31 255.15 1094.31 c 4
EndSplineSet
Validated: 1
EndChar

StartChar: grave
Encoding: 400 96 144
Width: 443
VWidth: 0
Flags: W
HStem: 907.2 187.11
VStem: 91.5303 262.439
LayerCount: 2
Fore
SplineSet
109.35 1094.31 m 4
 112.59 1094.31 116.64 1092.69 119.07 1091.07 c 6
 345.87 940.41 l 6
 349.92 937.17 353.97 929.88 353.97 925.02 c 4
 353.97 915.3 345.87 907.2 336.15 907.2 c 4
 332.91 907.2 328.86 908.82 326.43 910.439 c 6
 99.6299 1061.91 l 6
 94.7695 1065.15 91.5303 1070.82 91.5303 1076.49 c 4
 91.5303 1086.21 99.6299 1094.31 109.35 1094.31 c 4
EndSplineSet
Validated: 1
EndChar

StartChar: acute
Encoding: 401 180 145
Width: 443
VWidth: 0
Flags: W
HStem: 907.2 187.11
VStem: 91.5303 262.439
LayerCount: 2
Fore
SplineSet
335.34 1094.31 m 5
 336.15 1094.31 l 4
 345.87 1094.31 353.97 1086.21 353.97 1076.49 c 4
 353.97 1070.82 350.73 1065.15 345.87 1061.91 c 6
 119.07 910.439 l 6
 116.64 908.82 112.59 907.2 109.35 907.2 c 4
 99.6299 907.2 91.5303 915.3 91.5303 925.02 c 4
 91.5303 930.689 95.5801 937.17 99.6299 940.41 c 6
 326.43 1091.07 l 6
 328.86 1092.69 332.1 1094.31 335.34 1094.31 c 5
EndSplineSet
Validated: 1
EndChar

StartChar: multiply
Encoding: 403 215 147
Width: 634
VWidth: 0
Flags: W
HStem: 134.46 490.051<79.3799 93.1504 539.46 552.42>
VStem: 71.2803 490.05<142.561 156.33 602.64 616.41>
LayerCount: 2
Fore
SplineSet
89.0996 624.511 m 4
 93.1504 624.511 98.8203 622.08 102.061 618.84 c 6
 315.9 405 l 5
 530.55 618.84 l 6
 533.79 622.08 538.65 624.511 542.7 624.511 c 4
 552.42 624.511 560.52 616.41 560.52 606.689 c 4
 560.52 602.64 558.9 596.97 555.66 593.73 c 6
 341.011 379.89 l 5
 555.66 165.239 l 6
 558.9 162 561.33 156.33 561.33 152.28 c 4
 561.33 142.561 553.23 134.46 543.511 134.46 c 4
 539.46 134.46 533.79 136.89 530.55 140.13 c 6
 315.9 354.78 l 5
 102.061 140.13 l 6
 98.8203 136.89 93.1504 134.46 89.0996 134.46 c 4
 79.3799 134.46 71.2803 142.561 71.2803 152.28 c 4
 71.2803 156.33 73.71 162 76.9502 165.239 c 6
 290.79 379.89 l 5
 76.9502 593.73 l 6
 73.71 596.97 71.2803 602.64 71.2803 606.689 c 4
 71.2803 616.41 79.3799 624.511 89.0996 624.511 c 4
EndSplineSet
Validated: 1
EndChar

StartChar: Oslash
Encoding: 404 216 148
Width: 894
VWidth: 0
Flags: W
HStem: 0 35.6396<339.825 544.599> 1058.67 34.8301<343.161 546.456>
VStem: 85.8604 35.6396<255.141 834.207> 766.261 35.6396<260.039 840.334>
LayerCount: 2
Fore
SplineSet
443.88 1093.5 m 4
 553.23 1093.5 651.239 1044.9 716.85 967.95 c 4
 718.47 966.33 720.09 963.9 720.9 962.28 c 4
 771.12 900.72 801.9 822.15 801.9 736.29 c 6
 801.9 358.02 l 6
 801.9 160.38 641.52 0 443.88 0 c 4
 335.34 0 238.14 47.79 172.53 124.739 c 4
 170.1 126.36 166.86 130.41 166.05 132.84 c 4
 115.83 194.4 85.8604 272.97 85.8604 358.02 c 6
 85.8604 736.29 l 6
 85.8604 933.93 246.239 1093.5 443.88 1093.5 c 4
443.88 1058.67 m 4
 265.68 1058.67 121.5 914.489 121.5 736.29 c 6
 121.5 358.02 l 6
 121.5 288.36 144.18 223.561 181.439 170.91 c 5
 683.64 951.75 l 5
 624.511 1017.36 538.65 1058.67 443.88 1058.67 c 4
707.13 922.59 m 5
 204.93 141.75 l 5
 264.061 76.1396 349.11 35.6396 443.88 35.6396 c 4
 622.08 35.6396 766.261 179.82 766.261 358.02 c 6
 766.261 736.29 l 6
 766.261 805.95 744.39 869.939 707.13 922.59 c 5
EndSplineSet
Validated: 1
EndChar

StartChar: Yacute
Encoding: 405 221 149
Width: 1130
VWidth: 0
Flags: W
HStem: 1074.31 20G<287.955 296.865 1045.31 1053.81>
VStem: 275.4 34.8301<1082.97 1094.27> 1032.75 34.0195<1082.97 1094.28>
LayerCount: 2
Fore
SplineSet
292.41 1094.31 m 5
 293.22 1094.31 l 4
 300.511 1094.31 307.8 1089.45 310.23 1082.97 c 6
 671.489 71.2803 l 5
 1032.75 1082.97 l 6
 1035.18 1089.45 1041.66 1094.31 1048.95 1094.31 c 4
 1058.67 1094.31 1066.77 1086.21 1066.77 1076.49 c 4
 1066.77 1074.87 1066.77 1072.44 1065.96 1070.82 c 6
 688.5 14.5801 l 6
 688.5 12.96 687.689 10.5303 686.88 8.91016 c 4
 617.22 -174.15 412.29 -267.3 228.42 -199.261 c 4
 157.14 -172.53 98.8203 -125.55 58.3203 -67.2305 c 4
 56.7002 -64.7998 55.0801 -60.75 55.0801 -57.5107 c 4
 55.0801 -47.79 63.1797 -39.6895 72.9004 -39.6895 c 4
 77.7607 -39.6895 84.2393 -42.9297 87.4805 -46.9805 c 4
 123.93 -99.6299 175.77 -142.561 240.57 -166.05 c 4
 405.811 -227.61 588.061 -144.989 652.05 18.6299 c 5
 276.21 1070.82 l 6
 275.4 1072.44 275.4 1074.87 275.4 1076.49 c 4
 275.4 1085.4 283.5 1093.5 292.41 1094.31 c 5
EndSplineSet
Validated: 33
EndChar

StartChar: underscore
Encoding: 406 95 150
Width: 772
VWidth: 0
Flags: W
HStem: -75.3301 35.6406<102.876 668.244>
VStem: 102.87 565.38<-75.3242 -39.6895>
LayerCount: 2
Fore
SplineSet
120.689 -39.6895 m 4
 650.43 -39.6895 l 6
 660.15 -39.6895 668.25 -47.79 668.25 -57.5107 c 4
 668.25 -67.2305 660.15 -75.3301 650.43 -75.3301 c 4
 120.689 -75.3301 l 6
 110.97 -75.3301 102.87 -67.2305 102.87 -57.5107 c 4
 102.87 -47.79 110.97 -39.6895 120.689 -39.6895 c 4
EndSplineSet
Validated: 1
EndChar

StartChar: equal
Encoding: 407 61 151
Width: 677
VWidth: 0
Flags: W
HStem: 162.811 35.6396<94.7754 584.005> 465.75 35.6396<94.7754 584.005>
VStem: 94.7695 489.241<162.811 198.444 465.756 501.39>
LayerCount: 2
Fore
SplineSet
112.59 501.39 m 0
 566.189 501.39 l 2
 575.91 501.39 584.011 493.29 584.011 483.57 c 0
 584.011 473.85 575.91 465.75 566.189 465.75 c 0
 112.59 465.75 l 2
 102.87 465.75 94.7695 473.85 94.7695 483.57 c 0
 94.7695 493.29 102.87 501.39 112.59 501.39 c 0
112.59 198.45 m 0
 566.189 198.45 l 2
 575.91 198.45 584.011 190.35 584.011 180.63 c 0
 584.011 170.91 575.91 162.811 566.189 162.811 c 0
 112.59 162.811 l 2
 102.87 162.811 94.7695 170.91 94.7695 180.63 c 0
 94.7695 190.35 102.87 198.45 112.59 198.45 c 0
EndSplineSet
Validated: 1
EndChar

StartChar: quotesingle
Encoding: 408 39 152
Width: 300
VWidth: 0
Flags: W
HStem: 1058.67 35.6406<135.495 174.374>
VStem: 99.6299 35.6396<853.068 861.84 1019.64 1058.44> 171.72 38.8799<1027.89 1058.49>
LayerCount: 2
Fore
SplineSet
154.71 1094.31 m 6
 185.489 1094.31 210.6 1070.01 210.6 1039.23 c 4
 210.6 1030.32 208.98 1021.41 204.93 1014.12 c 4
 204.93 1013.31 204.12 1013.31 204.12 1012.5 c 4
 203.311 1011.69 l 6
 127.98 861.84 l 6
 125.55 856.17 118.261 852.12 112.59 852.12 c 4
 102.87 852.12 94.7695 860.22 94.7695 869.939 c 4
 94.7695 872.37 95.5801 874.8 96.3896 877.23 c 6
 149.85 984.15 l 5
 121.5 986.58 99.6299 1010.88 99.6299 1039.23 c 4
 99.6299 1070.01 123.93 1094.31 154.71 1094.31 c 6
154.71 1058.67 m 4
 143.37 1058.67 135.27 1050.57 135.27 1039.23 c 4
 135.27 1027.89 143.37 1018.98 154.71 1018.98 c 4
 155.52 1018.98 l 4
 158.761 1018.98 162.811 1017.36 165.239 1015.74 c 5
 171.72 1027.89 l 6
 171.72 1028.7 l 4
 172.53 1029.51 l 4
 174.15 1032.75 174.96 1035.99 174.96 1039.23 c 4
 174.96 1050.57 166.05 1058.67 154.71 1058.67 c 4
EndSplineSet
Validated: 1
EndChar

StartChar: yacute
Encoding: 409 253 153
Width: 1126
VWidth: 0
Flags: W
HStem: 696.04 20G<426.06 434.97 1033.56 1041.66>
VStem: 56.7002 34.0195<-69.6818 -24.3315> 1020.6 34.0205<705.511 716.008>
LayerCount: 2
Fore
SplineSet
430.92 716.04 m 4
 431.73 716.04 l 4
 438.21 716.04 445.5 711.18 447.93 705.511 c 6
 733.86 61.5605 l 5
 1020.6 705.511 l 6
 1023.03 711.18 1030.32 716.04 1036.8 716.04 c 4
 1046.52 716.04 1054.62 707.939 1054.62 698.22 c 4
 1054.62 695.79 1053.81 692.55 1053 690.93 c 6
 751.68 12.96 l 6
 751.68 11.3398 750.061 8.91016 749.25 8.09961 c 6
 715.23 -68.04 l 6
 715.23 -68.8496 l 4
 631.8 -247.86 418.77 -325.62 239.761 -242.189 c 4
 153.09 -201.689 89.9102 -131.22 57.5107 -48.5996 c 4
 56.7002 -46.9805 56.7002 -43.7393 56.7002 -42.1201 c 4
 56.7002 -32.4004 64.7998 -24.2998 74.5195 -24.2998 c 4
 81 -24.2998 88.29 -29.1602 90.7197 -35.6396 c 4
 119.88 -110.16 176.58 -173.34 254.34 -209.79 c 4
 415.53 -285.12 607.5 -214.65 682.83 -53.46 c 5
 714.42 17.8203 l 5
 415.53 690.93 l 6
 414.72 692.55 413.91 695.79 413.91 698.22 c 4
 413.91 707.939 421.2 716.04 430.92 716.04 c 4
EndSplineSet
Validated: 33
EndChar

StartChar: ydieresis
Encoding: 410 255 154
Width: 1124
VWidth: 0
Flags: W
HStem: 696.04 20G<424.44 433.35 1031.94 1040.04> 983.34 35.6406<609.734 648.559 843.014 881.838> 1058.67 35.6406<609.706 648.585 842.986 881.864>
VStem: 55.0801 34.0195<-69.6818 -24.3315> 573.48 35.6396<1019.59 1058.42> 648.811 35.6396<1019.57 1058.44> 806.761 35.6396<1019.59 1058.42> 882.09 35.6406<1019.57 1058.44> 1018.98 34.0195<705.511 716.008>
LayerCount: 2
Fore
SplineSet
629.37 1094.31 m 4
 660.15 1094.31 684.45 1070.01 684.45 1039.23 c 4
 684.45 1008.45 660.15 983.34 629.37 983.34 c 4
 598.59 983.34 573.48 1008.45 573.48 1039.23 c 4
 573.48 1070.01 598.59 1094.31 629.37 1094.31 c 4
862.65 1094.31 m 4
 893.43 1094.31 917.73 1070.01 917.73 1039.23 c 4
 917.73 1008.45 893.43 983.34 862.65 983.34 c 4
 831.87 983.34 806.761 1008.45 806.761 1039.23 c 4
 806.761 1070.01 831.87 1094.31 862.65 1094.31 c 4
629.37 1058.67 m 4
 618.03 1058.67 609.12 1050.57 609.12 1039.23 c 4
 609.12 1027.89 618.03 1018.98 629.37 1018.98 c 4
 640.71 1018.98 648.811 1027.89 648.811 1039.23 c 4
 648.811 1050.57 640.71 1058.67 629.37 1058.67 c 4
862.65 1058.67 m 4
 851.311 1058.67 842.4 1050.57 842.4 1039.23 c 4
 842.4 1027.89 851.311 1018.98 862.65 1018.98 c 4
 873.989 1018.98 882.09 1027.89 882.09 1039.23 c 4
 882.09 1050.57 873.989 1058.67 862.65 1058.67 c 4
429.3 716.04 m 0
 430.11 716.04 l 0
 436.59 716.04 443.88 711.18 446.311 705.511 c 2
 732.239 61.5605 l 1
 1018.98 705.511 l 2
 1021.41 711.18 1028.7 716.04 1035.18 716.04 c 0
 1044.9 716.04 1053 707.939 1053 698.22 c 0
 1053 695.79 1052.19 692.55 1051.38 690.93 c 2
 750.061 12.96 l 2
 750.061 11.3398 748.439 8.91016 747.63 8.09961 c 2
 713.61 -68.04 l 2
 713.61 -68.8496 l 0
 630.18 -247.86 417.15 -325.62 238.14 -242.189 c 0
 151.47 -201.689 88.29 -131.22 55.8896 -48.5996 c 0
 55.0801 -46.9805 55.0801 -43.7393 55.0801 -42.1201 c 0
 55.0801 -32.4004 63.1797 -24.2998 72.9004 -24.2998 c 0
 79.3799 -24.2998 86.6699 -29.1602 89.0996 -35.6396 c 0
 118.261 -110.16 174.96 -173.34 252.72 -209.79 c 0
 413.91 -285.12 605.88 -214.65 681.21 -53.46 c 1
 712.8 17.8203 l 1
 413.91 690.93 l 2
 413.1 692.55 412.29 695.79 412.29 698.22 c 0
 412.29 707.939 419.58 716.04 429.3 716.04 c 0
EndSplineSet
Validated: 33
EndChar

StartChar: copyright
Encoding: 451 169 195
Width: 931
VWidth: 0
Flags: W
HStem: 89.9102 33.21<364.197 567.378> 255.96 33.21<400.997 547.063> 640.71 33.21<400.997 545.849> 805.95 33.21<364.197 567.378>
VStem: 91.5303 33.209<362.922 566.888> 264.061 33.209<392.897 536.982> 807.57 33.21<362.922 566.888>
LayerCount: 2
Fore
SplineSet
465.75 839.16 m 4
 467.37 839.16 l 4
 673.11 838.35 840.78 671.489 840.78 464.939 c 4
 840.78 258.39 673.11 90.7197 467.37 89.9102 c 4
 466.561 89.9102 466.561 89.9102 465.75 89.9102 c 4
 464.13 89.9102 l 4
 258.39 90.7197 91.5303 258.39 91.5303 464.939 c 4
 91.5303 671.489 258.39 838.35 464.13 839.16 c 4
 465.75 839.16 l 4
465.75 805.95 m 4
 277.02 805.95 124.739 653.67 124.739 464.939 c 4
 124.739 276.21 277.02 123.12 465.75 123.12 c 4
 654.48 123.12 807.57 276.21 807.57 464.939 c 4
 807.57 653.67 654.48 805.95 465.75 805.95 c 4
473.04 673.92 m 4
 545.13 673.92 609.12 636.66 646.38 580.77 c 4
 648 578.34 649.62 574.29 649.62 571.86 c 4
 649.62 562.95 641.52 554.85 632.61 554.85 c 4
 627.75 554.85 621.27 558.09 618.84 562.14 c 4
 587.25 609.12 533.79 640.71 473.04 640.71 c 4
 375.84 640.71 297.27 562.14 297.27 464.939 c 4
 297.27 367.739 375.84 289.17 473.04 289.17 c 4
 533.79 289.17 587.25 319.95 618.84 366.93 c 4
 621.27 370.98 627.75 374.22 632.61 374.22 c 4
 641.52 374.22 649.62 366.93 649.62 358.02 c 4
 649.62 355.59 648 351.54 646.38 349.11 c 4
 609.12 293.22 545.13 255.96 473.04 255.96 c 4
 358.02 255.96 264.061 349.92 264.061 464.939 c 4
 264.061 579.96 358.02 673.92 473.04 673.92 c 4
EndSplineSet
Validated: 1
EndChar

StartChar: AE
Encoding: 468 198 212
Width: 1305
VWidth: 0
Flags: W
HStem: 0 33.21<704.7 1233.62> 378.27 33.2109<327.239 671.489 704.7 1158.29> 1058.67 33.21<704.7 1233.62>
VStem: 671.489 33.2109<33.21 378.27 411.48 1012.5>
LayerCount: 2
Fore
SplineSet
686.88 1091.88 m 6
 687.689 1091.88 l 4
 1216.62 1091.88 l 6
 1217.43 1091.88 l 4
 1226.34 1091.88 1233.63 1083.78 1233.63 1074.87 c 4
 1233.63 1065.96 1226.34 1058.67 1217.43 1058.67 c 4
 1216.62 1058.67 l 6
 704.7 1058.67 l 5
 704.7 411.48 l 5
 1141.29 411.48 l 6
 1150.2 411.48 1158.3 403.38 1158.3 394.47 c 4
 1158.3 385.561 1150.2 378.27 1141.29 378.27 c 4
 704.7 378.27 l 5
 704.7 33.21 l 5
 1216.62 33.21 l 6
 1217.43 33.21 l 4
 1226.34 33.21 1233.63 25.1104 1233.63 16.2002 c 4
 1233.63 7.29004 1226.34 0 1217.43 0 c 4
 1216.62 0 l 6
 690.93 0 l 6
 690.12 0 688.5 0 687.689 0 c 4
 678.78 0 671.489 7.29004 671.489 16.2002 c 4
 671.489 378.27 l 5
 308.61 378.27 l 5
 97.2002 8.09961 l 6
 94.7695 3.23926 88.29 0 82.6201 0 c 4
 73.71 0 66.4199 7.29004 66.4199 16.2002 c 4
 66.4199 18.6299 68.04 22.6797 68.8496 25.1104 c 6
 283.5 400.14 l 6
 284.311 401.761 285.12 404.189 285.93 405 c 6
 673.11 1082.97 l 6
 673.92 1083.78 l 4
 674.73 1085.4 l 4
 675.54 1086.21 l 4
 676.35 1087.02 l 4
 677.16 1087.83 l 4
 677.97 1088.64 l 4
 678.78 1088.64 l 4
 679.59 1089.45 680.4 1090.26 681.21 1090.26 c 4
 682.02 1090.26 l 4
 682.83 1090.26 l 4
 683.64 1091.07 l 4
 684.45 1091.07 l 4
 686.07 1091.07 l 4
 686.88 1091.88 l 6
671.489 1012.5 m 5
 327.239 411.48 l 5
 671.489 411.48 l 5
 671.489 1012.5 l 5
EndSplineSet
Validated: 1
EndChar

StartChar: Ccedilla
Encoding: 469 199 213
Width: 811
VWidth: 0
Flags: W
HStem: -302.939 33.209<390.25 495.7> 0 32.4004<348.715 426.061 459.27 540.185> 1057.86 33.21<346.068 543.46>
VStem: 85.8604 33.21<261.491 830.969> 312.66 33.21<-224.821 -156.335> 426.061 33.209<-46.4807 0> 539.46 33.21<-226.328 -119.51>
LayerCount: 2
Fore
SplineSet
443.07 1091.07 m 4
 567 1091.07 675.54 1027.89 739.53 932.311 c 4
 741.15 929.88 742.77 925.83 742.77 923.4 c 4
 742.77 914.489 734.67 906.39 725.761 906.39 c 4
 720.9 906.39 714.42 909.63 711.989 913.68 c 4
 653.67 1000.35 555.66 1057.86 443.07 1057.86 c 4
 264.061 1057.86 119.07 913.68 119.07 734.67 c 6
 119.07 356.4 l 6
 119.07 178.2 262.439 33.21 440.64 32.4004 c 4
 441.45 32.4004 442.261 33.21 443.07 33.21 c 4
 443.88 33.21 444.689 32.4004 445.5 32.4004 c 4
 556.47 33.21 654.48 90.7197 711.989 176.58 c 4
 714.42 180.63 720.9 183.87 725.761 183.87 c 4
 734.67 183.87 742.77 176.58 742.77 167.67 c 4
 742.77 165.239 741.15 160.38 739.53 157.95 c 4
 678.78 66.4199 575.91 5.66992 459.27 0 c 5
 459.27 -43.7393 l 5
 523.261 -51.8398 572.67 -106.92 572.67 -172.53 c 4
 572.67 -243.811 514.35 -302.939 443.07 -302.939 c 4
 371.79 -302.939 312.66 -243.811 312.66 -172.53 c 4
 312.66 -163.62 320.761 -156.33 329.67 -156.33 c 4
 338.58 -156.33 345.87 -163.62 345.87 -172.53 c 4
 345.87 -225.989 389.61 -269.73 443.07 -269.73 c 4
 496.53 -269.73 539.46 -225.989 539.46 -172.53 c 4
 539.46 -119.07 496.53 -76.1396 443.07 -76.1396 c 4
 434.16 -76.1396 426.061 -68.04 426.061 -59.1299 c 6
 426.061 0 l 5
 236.52 8.91016 85.8604 165.239 85.8604 356.4 c 6
 85.8604 734.67 l 6
 85.8604 931.5 246.239 1091.07 443.07 1091.07 c 4
EndSplineSet
Validated: 1
EndChar

